<svg xmlns="http://www.w3.org/2000/svg" width="754.671" height="800.162" viewBox="0 0 754.671 800.162" xmlns:xlink="http://www.w3.org/1999/xlink" role="img" artist="Katerina Limpitsouni" source="https://undraw.co/"><g transform="translate(-671 -206.761)"><path d="M424.064,258.675c199.456,0,154.907-93.51,154.907,105.946S561.358,506.092,361.9,506.092,0,410.641,0,211.185,224.608,258.675,424.064,258.675Z" transform="translate(671 314.744)" fill="#e6e6e6"/><path d="M238.2,104.517c9.239-7.634,20.668-9.055,25.525-3.175s1.3,16.835-7.939,24.471a30,30,0,0,1-12.657,6.362l-39.556,31.853-14.552-18.881,40.54-29.4a30,30,0,0,1,8.639-11.233Z" transform="translate(677.831 397.867)" fill="#ed9da0"/><path d="M122.173,88.744l-8.5,44.612L156.041,145.3l-5.264-47.629Z" transform="translate(593.11 387.78)" fill="#ed9da0"/><path d="M104.554,163.988c-.02-1.409-.007-13.7,9.09-21.463,10.45-8.921,25.195-5.31,30.367-4.044,11.947,2.926,12.927,8.051,24.146,13.316,20.99,9.852-5.31,4.809,7.18,1.65,4.323-1.093,66.519-5.407,82-14.936,30.11-18.532,50.626-29.77,50.626-29.77l13.412,26.824s-19.393,26.966-46.688,46.943c-28,20.492-42,30.738-63.272,34.7-1.832.341-46.89,8.034-83.181-19.079-8.278-6.184-23.445-17.516-23.681-34.138Z" transform="translate(582.851 410.265)" fill="#191919"/><circle cx="46.721" cy="46.721" r="46.721" transform="translate(682.288 412.593)" fill="#ed9da0"/><g transform="translate(759.69 618.588)"><path d="M334.988,254.466l-48.116-49.253-24.838,25.909,35.848,47.225,35.558,4.067Z" transform="translate(0.233 -99.85)" fill="#ed9da0"/><path d="M199.054,217.872c2.814.234,11.758,2.026,20.306-2.678a27.773,27.773,0,0,0,9.836-9.5c12.537-18.829,60.656-48.191,103.842-50,9.78-.409,16.217.724,22.068,3.774,8.3,4.325,11.609,10.52,22.137,25.032,5.759,7.938,12.131,15.417,17.959,23.3,34.122,46.176,47.058,49.8,45.736,64.605-1.467,16.425-19.181,32.008-30.955,30.209-4.822-.737-6.689-4.089-13.131-10.877-18.888-19.9-26.7-16.224-40.151-31.467-15.7-17.8-13.645-32.552-21.836-33.122-7.6-.529-10.824,12.06-27.042,28.782-7.421,7.652-12.7,11.162-28.8,22.33-62.692,43.493-63.693,46.549-76.345,50.018-5.536,1.518-44.824,12.289-58.819-4.852-21.9-26.824,29.839-107.668,55.2-105.561Z" transform="translate(-138.579 -155.617)" fill="#2f2e41"/><path d="M313.684,244.6c3.539-1.589,7.677-3.447,9.008-7.72a10.271,10.271,0,0,0-1.48-8.919c-2.148-2.842-5.328-3.217-5.2-3.72.2-.766,7.715-.466,15.97,2.451,1.558.551,8.614,3.129,17.59,10.137,7.192,5.615,6.224,6.74,10.734,9.978,13.843,9.938,26.827,2.105,34.318,11.425,2.891,3.6,4.124,8.7,2.907,12.832-2.443,8.292-14.325,11.146-20.818,12.619-15.639,3.548-27.476.652-39.836-1.431-42.035-7.083-65.652-.632-68.813-10.37-.6-1.843.374-1.686,3.615-15.211,3.2-13.349,3.094-17.015,5.818-18.084,4.1-1.609,6.854,5.71,17.185,8.215,9.155,2.22,16.709-1.172,19-2.2Z" transform="translate(6.827 -78.857)" fill="#2f2e41"/></g><g transform="translate(728.865 699.851)"><path d="M281.12,340.114,268.964,272.34l-35.1,7.491,3.145,59.206,27.139,23.332Z" transform="translate(-0.617 -105.637)" fill="#ed9da0"/><path d="M229.1,197.642c2.2,1.774,8.592,8.278,18.306,9.187a27.773,27.773,0,0,0,13.474-2.337c20.947-8.54,77.251-5.815,114,16.941,8.322,5.153,13.012,9.706,16.141,15.515,4.436,8.237,3.7,15.223,4.261,33.143.308,9.8,1.381,19.569,1.775,29.368,2.3,57.369,10.973,67.633,1.566,79.14-10.437,12.767-33.845,15.714-42.577,7.614-3.576-3.317-3.238-7.14-4.758-16.373-4.454-27.073-12.985-28.419-15.553-48.583-3-23.542,6.989-34.6.531-39.669-5.989-4.7-15.728,3.9-38.538,8.631-10.437,2.165-16.781,2.1-36.373,2.3-76.3.784-78.842,2.751-91.258-1.483-5.433-1.853-43.99-15-45.945-37.044-3.06-34.494,85.15-72.334,104.95-56.351Z" transform="translate(-124.069 -193.869)" fill="#2f2e41"/><path d="M275.65,318.121c3.82.672,8.288,1.458,11.788-1.329a10.271,10.271,0,0,0,3.784-8.211c-.182-3.558-2.6-5.654-2.214-6,.592-.524,6.646,3.946,11.837,11,.98,1.33,5.371,7.426,8.863,18.265,2.8,8.684,1.365,9.072,3.279,14.283,5.874,16,21.016,16.807,21.981,28.724.372,4.6-1.475,9.517-4.8,12.251-6.678,5.489-18.112,1.179-24.312-1.249-14.933-5.846-23.1-14.889-32.159-23.554-30.8-29.465-53.969-37.389-51.116-47.222.54-1.861,1.256-1.185,11.533-10.557,10.143-9.25,12.115-12.342,14.969-11.7,4.3.971,2.465,8.574,9.607,16.448,6.329,6.978,14.484,8.413,16.959,8.848Z" transform="translate(-13.569 -82.695)" fill="#2f2e41"/></g><path d="M158.837,120.289c1.819-6.506-.466-8.877,1.863-11.8,0,0,.937-1.175,9.314-4.347h0c-2.472-14.341-.621-16.765-.621-16.766,2.133-2.795,6.405-3.47,9.314-3.1,6.152.773,7.241,6.334,11.177,6.209,5.438-.172,11.959-11.057,9.935-20.491-1.651-7.7-8.771-13.411-10.556-12.419-1.77.983-8.14-3.353-10.556-2.484-1.65.593-9.416-.2-11.177.621-1.923.892-7.43,6.447-7.957,5.747-3.659-4.864-3.581-6.562-5.7-7.61-3.762-1.857-7.851,1.576-14.9,4.968-14.509,6.979-18.757,2.816-25.459,8.693-3.385,2.969-5.2,8.643-8.693,19.87-4.884,15.7-7.326,23.552-4.968,31.047,2.406,7.644,5.948,5.981,11.177,16.766,5.82,12.005,9.519,17.842,15.019,20.591,4.251,2.125,5.377,1.914,7.956-1.963,4.416-6.638-7-15.618-3.1-26.08,2.39-6.422,9.761-11.291,14.282-9.935,5.111,1.533,5.488,10.7,8.693,10.556,2.745-.121,4.651-6.938,4.968-8.072h0Z" transform="translate(576.541 347.955)" fill="#2f2e41"/><g transform="translate(803.533 776.48)"><path d="M600.171,677.179l-67.108-23.744a7.2,7.2,0,0,1-4.383-9.184l31.44-88.858a7.2,7.2,0,0,1,9.184-4.383l67.108,23.745a7.2,7.2,0,0,1,4.383,9.184c-.373,33.386-11.752,62.671-31.44,88.858a7.2,7.2,0,0,1-9.184,4.383Z" transform="translate(-528.268 -550.597)" fill="#e6e6e6"/><path d="M574.277,661.288,538.55,648.647a6.747,6.747,0,0,1-4.105-8.6l27.978-79.072a6.746,6.746,0,0,1,8.6-4.1L628.7,577.275a6.747,6.747,0,0,1,4.105,8.6c-3.3,23.8-8.372,45.154-20.213,57.126A30.052,30.052,0,0,1,574.277,661.288Z" transform="translate(-527.154 -549.464)" fill="#fff"/><path d="M555.771,593.211a2.865,2.865,0,0,1,3.658-1.733l44.926,16.036a2.862,2.862,0,1,1-1.924,5.391L557.5,596.868A2.865,2.865,0,0,1,555.771,593.211Z" transform="translate(-523.007 -542.762)" fill="#191919"/><path d="M589.582,591.3a2.866,2.866,0,0,1,3.658-1.733l9.884,3.528a2.862,2.862,0,1,1-1.924,5.391l-9.884-3.528A2.866,2.866,0,0,1,589.582,591.3Z" transform="translate(-516.5 -543.129)" fill="#191919"/><path d="M548.676,613.086a2.866,2.866,0,0,1,3.658-1.734l44.926,16.036a2.862,2.862,0,1,1-1.924,5.391l-44.926-16.036A2.865,2.865,0,0,1,548.676,613.086Z" transform="translate(-524.373 -538.937)" fill="#191919"/><path d="M552.223,603.148a2.865,2.865,0,0,1,3.658-1.733l44.926,16.036a2.862,2.862,0,1,1-1.924,5.391l-44.926-16.036a2.866,2.866,0,0,1-1.734-3.658Z" transform="translate(-523.69 -540.85)" fill="#191919"/></g><path d="M125.252,108.128c9.561-10.72,48.5.376,52.159,17.386,1.5,7-4.047,9.951-2.484,18.007,2.286,11.783,15.23,10.98,24.838,22.975,13.64,17.029-.412,33.676,14.9,62.095,3.272,6.073,6.031,11.191,11.8,16.145,13.234,11.367,27.394,49.482,23.6,57.127-6.319,12.72.836,22.059,1.242,37.257.508,19.015-9.6,45.374-29.805,54.022-22.7,9.716-50.086-6.376-63.336-22.354-7.907-9.534-10.2-18.329-13.661-29.184-15.459-48.516-24.193-44.128-36.015-82.586-13.515-43.965-16.172-95.472,0-111.77,2.143-2.16,8.042-7.154,11.8-16.145,5.054-12.1.688-18.176,4.968-22.975Z" transform="translate(574.733 404.824)" fill="#191919"/><g transform="translate(671 553.152)"><path d="M208.026,248.876c7.413,9.418,8.562,20.877,2.567,25.594s-16.861.9-24.275-8.518a30,30,0,0,1-6.059-12.8l-30.9-40.3,15.968-12.18L197,239.973a30,30,0,0,1,11.025,8.9Z" transform="translate(-37.771 -39.529)" fill="#ed9da0"/><path d="M153.907,125.47c1.375-.307,13.407-2.8,22.866,4.519,10.866,8.41,10.34,23.581,10.155,28.9-.426,12.292-5.244,14.3-8.109,26.355-5.361,22.559,4.849,43.523,10.49,55.106a120.292,120.292,0,0,0,20.713,29.489c24.286,25.7,45.956,39.216,45.956,39.216L232.7,329.75s-37.081-11.3-62.207-33.946c-25.774-23.228-65.409-105.411-73.625-125.43-.708-1.724,9.315,26.3,28.453-14.755,4.365-9.366,12.363-26.525,28.588-30.149h0Z" transform="translate(-96.83 -124.815)" fill="#191919"/></g><path d="M587.619,488.677a156.96,156.96,0,1,1,156.96-156.96A156.96,156.96,0,0,1,587.619,488.677Zm0-311.447A154.488,154.488,0,1,0,742.107,331.717,154.488,154.488,0,0,0,587.619,177.229Z" transform="translate(459.154 55.88)" fill="#090814"/><path d="M620.586,209.019H721.23a1.236,1.236,0,0,0,0-2.472H620.586a1.236,1.236,0,0,0,0,2.472Z" transform="translate(584.782 157.737)" fill="#3f3d56"/><path d="M736.9,312.249c-20.406-27.142-32.2-57.493-32.586-92.1a7.467,7.467,0,0,1,4.543-9.518l69.554-24.61a7.466,7.466,0,0,1,9.518,4.543l32.586,92.1a7.467,7.467,0,0,1-4.543,9.519l-69.554,24.61a7.466,7.466,0,0,1-9.518-4.543Z" transform="translate(604.725 152.795)" fill="#e6e6e6"/><path d="M731.03,281.156c-12.273-12.409-17.526-34.541-20.949-59.208a6.992,6.992,0,0,1,4.255-8.914l59.775-21.15a6.992,6.992,0,0,1,8.914,4.255l29,81.954a6.993,6.993,0,0,1-4.255,8.914l-37.03,13.1a31.147,31.147,0,0,1-39.708-18.952Z" transform="translate(606.091 154.183)" fill="#fff"/><path d="M779.318,232.071l-46.563,16.621a2.966,2.966,0,1,1-1.995-5.588l46.563-16.621a2.966,2.966,0,0,1,1.994,5.588Z" transform="translate(610.599 151.698)" fill="#191919"/><path d="M738.573,230.164l-10.244,3.657a2.966,2.966,0,1,1-1.994-5.588l10.244-3.656a2.966,2.966,0,1,1,1.995,5.588Z" transform="translate(609.555 151.248)" fill="#191919"/><path d="M786.412,251.947l-46.564,16.621a2.966,2.966,0,1,1-1.994-5.588l46.563-16.621a2.966,2.966,0,1,1,1.995,5.588Z" transform="translate(612.273 156.387)" fill="#191919"/><path d="M782.865,242.009,736.3,258.63a2.967,2.967,0,0,1-1.995-5.588l46.564-16.621a2.966,2.966,0,0,1,1.994,5.588Z" transform="translate(611.436 154.043)" fill="#191919"/><ellipse cx="12.359" cy="12.359" rx="12.359" ry="12.359" transform="translate(1300.638 358.106)" fill="#191919"/><path d="M545.966,190.019H445.323a1.236,1.236,0,1,1,0-2.472H545.966a1.236,1.236,0,1,1,0,2.472Z" transform="translate(435.133 58.879)" fill="#3f3d56"/><path d="M340,241.43c8.741-32.813,25.325-60.836,52.3-82.514a7.466,7.466,0,0,1,10.292-2.307l62.316,39.5a7.466,7.466,0,0,1,2.307,10.292l-52.3,82.514a7.466,7.466,0,0,1-10.292,2.307l-62.316-39.5A7.467,7.467,0,0,1,340,241.43Z" transform="translate(410.306 51.308)" fill="#e6e6e6"/><path d="M357.35,218.049c2.178-17.316,16.338-35.118,33.623-53.047a6.992,6.992,0,0,1,9.639-2.16l53.555,33.945a6.992,6.992,0,0,1,2.16,9.639l-46.539,73.426a6.993,6.993,0,0,1-9.639,2.16l-33.177-21.028a31.147,31.147,0,0,1-9.623-42.934Z" transform="translate(413.533 52.796)" fill="#fff"/><path d="M417.071,226.549,375.238,200.2a2.966,2.966,0,1,1,3.162-5.02l41.833,26.352a2.966,2.966,0,0,1-3.162,5.02Z" transform="translate(418.564 60.573)" fill="#191919"/><path d="M391.457,194.857l-9.2-5.8a2.966,2.966,0,0,1,3.162-5.02l9.2,5.8a2.966,2.966,0,0,1-3.162,5.02Z" transform="translate(420.219 57.944)" fill="#191919"/><path d="M405.822,244.405,363.99,218.053a2.966,2.966,0,0,1,3.162-5.02l41.833,26.352a2.966,2.966,0,1,1-3.162,5.02Z" transform="translate(414.134 63.425)" fill="#191919"/><path d="M411.447,235.477l-41.833-26.352a2.966,2.966,0,0,1,3.162-5.02l41.833,26.352a2.966,2.966,0,0,1-3.162,5.02Z" transform="translate(415.461 61.319)" fill="#191919"/><ellipse cx="12.359" cy="12.359" rx="12.359" ry="12.359" transform="translate(861.112 240.249)" fill="#191919"/><g transform="translate(1000.281 307.116)"><path d="M91.79,45.9A55.675,55.675,0,0,1,90.9,55.82a48.758,48.758,0,0,1-4.825,11.964c-4.082,7.25-8.458,9.957-12.055,17.056-.619.478-1.255.908-1.9,1.33-1.292.834-1.434,4.917-2.806,5.62-.009.009-.019.009-.028.019a5.19,5.19,0,0,0-.712,2.361v.019c-.693,4.056-1.292,12.307-1.986,17.187-.093.591-.179,1.134-.272,1.611-.235,1.292-.477,2.117-.749,2.219-3.344,1.292-4.768-.478-8.43,0-1.967.263-12.008,1.874-14.05,1.874-5.8,0-8.935-1.976-13.627-4.093-.328-.14-.656-.291-1-.44-.128-.047-.233-.1-.356-.149-1.348-.571-2.622-14.977-3.886-20.428a.034.034,0,0,1-.009-.028c-.263-1.134-.524-1.874-.787-2.023l-.2-.112c-.834-.478-1.648-1-2.445-1.546C15.951,80.223,6.633,72.576,2.032,60.076A52.678,52.678,0,0,1,0,45.9a45.895,45.895,0,1,1,91.79,0Z" transform="translate(0.723 24.677)" fill="#e6e6e6"/><path d="M91.6,57.625a48.763,48.763,0,0,1-4.824,11.96c-4.082,7.25-8.458,9.957-12.055,17.056-2.392,4.73-4.432,11.408-5.825,22.67-.084.665.093,1.423,0,2.079-.216,1.452.047,1.19-.834,2.5-.4.224-.647-.093-.777-.712a19.556,19.556,0,0,1-.056-4.7,61.916,61.916,0,0,1,2.041-12.486v-.019c.224-.815.468-1.6.712-2.36,4.337-13.207,12.335-19.191,15.96-26.1C104.981,31.277,69.793-9.167,31.036,4.9c-2.079.759-1.967,1.2-2.079,1.255-2.913,1.264-5.282,1.818-8.111,3.737C3.667,21.583-2.5,44.708,5.25,63.759c4.2,10.312,12.982,16.129,18.667,27.847q.51,1.02.983,2.135a.034.034,0,0,0,.009.028,57.261,57.261,0,0,1,4.244,20.578c.009.128.019.244.019.365.337.028.665.047.983.075,4.974.431,8.2,1.227,9.863.365l1.835.188c.608.852,10.842-.188,12.476-.207h.421a114.045,114.045,0,0,0,12.26-.347c.207-.019.421-.047.628-.075a1.1,1.1,0,0,1,.834,1.255c.128,1.18-1.827,4.6-2.491,4.983-1.92,1.124-33.2,1.7-36.191-.412a4.694,4.694,0,0,1-1.658-5.612c-.056-.263-1.208-1.011-1.255-1.255-.561-3.189.1-11.268-3.737-20.381a24.592,24.592,0,0,0-1.667-3.231C16.65,82.021,7.331,74.377,2.731,61.868A46.763,46.763,0,0,1,.262,40.886C1.92,23.278,17.109,5.95,34.155,1.576,69.83-7.584,99.953,24.768,91.6,57.625Z" transform="translate(0.024 22.876)" fill="#010001"/><path d="M38.4,0c2.968,2.824,1.383,3.779,0,7.071-1.745-.393-31.611,1.517-35.771,0A4.238,4.238,0,0,1,1.379,0,166.765,166.765,0,0,0,38.4,0Z" transform="translate(28.057 144.798)" fill="#010001"/><path d="M40.768.832c1.168,2.6-1.068,4.193-2.08,6.24l-2.078.416L3.749,7.071C1.765,6.69.513,3.92,0,2.08A1.228,1.228,0,0,1,.629.832L3.332,0A295.557,295.557,0,0,0,35.985.832a4.753,4.753,0,0,1,4.783,0Z" transform="translate(27.35 152.285)" fill="#010001"/><path d="M16.744,48.086h-.862V34L0,.369.779,0,16.744,33.8Z" transform="translate(24.414 71.188)" fill="#0f0f10"/><path d="M.407.073c1.761-1.2,1.79,12.853,1.251,13.31C-.4,15.112-.183.474.407.073Z" transform="translate(45.971 0)" fill="#010001"/><path d="M.074.042c1.383-.893,4.574,12.413,4.367,13.1C3.265,17.063-.578.461.074.042Z" transform="translate(32.162 1.278)" fill="#010001"/><path d="M2.687.01c1.649-.432-1.126,12.5-1.455,13.1C-1.887,18.787,1.792.246,2.687.01Z" transform="translate(57.832 1.31)" fill="#010001"/><path d="M.707,50.368,0,34.715l.015-.06L8.445,0l.838.2L.867,34.8l.7,15.531Z" transform="translate(53.874 68.928)" fill="#0f0f10"/></g></g></svg>