<svg xmlns="http://www.w3.org/2000/svg" xmlns:xlink="http://www.w3.org/1999/xlink" width="150" zoomAndPan="magnify" viewBox="0 0 112.5 112.499997" height="150" preserveAspectRatio="xMidYMid meet" version="1.0"><defs><clipPath id="6151ebe552"><path d="M 0 0 L 112.003906 0 L 112.003906 112.003906 L 0 112.003906 Z M 0 0 " clip-rule="nonzero"/></clipPath><clipPath id="03f59f889c"><path d="M 61 39 L 108 39 L 108 93 L 61 93 Z M 61 39 " clip-rule="nonzero"/></clipPath><clipPath id="fc04fb5cc1"><path d="M 99.660156 96.507812 L 55.796875 87.402344 L 67.175781 32.570312 L 111.042969 41.675781 Z M 99.660156 96.507812 " clip-rule="nonzero"/></clipPath><clipPath id="a527f0cb01"><path d="M 99.660156 96.507812 L 55.796875 87.402344 L 67.175781 32.570312 L 111.042969 41.675781 Z M 99.660156 96.507812 " clip-rule="nonzero"/></clipPath><clipPath id="e0a415f709"><path d="M 85 65 L 87 65 L 87 67 L 85 67 Z M 85 65 " clip-rule="nonzero"/></clipPath><clipPath id="97abb5de30"><path d="M 99.660156 96.507812 L 55.796875 87.402344 L 67.175781 32.570312 L 111.042969 41.675781 Z M 99.660156 96.507812 " clip-rule="nonzero"/></clipPath><clipPath id="93d65b858e"><path d="M 99.660156 96.507812 L 55.796875 87.402344 L 67.175781 32.570312 L 111.042969 41.675781 Z M 99.660156 96.507812 " clip-rule="nonzero"/></clipPath><clipPath id="8b81daddea"><path d="M 82 66 L 85 66 L 85 68 L 82 68 Z M 82 66 " clip-rule="nonzero"/></clipPath><clipPath id="09c8e33df5"><path d="M 99.660156 96.507812 L 55.796875 87.402344 L 67.175781 32.570312 L 111.042969 41.675781 Z M 99.660156 96.507812 " clip-rule="nonzero"/></clipPath><clipPath id="acdc559ef2"><path d="M 99.660156 96.507812 L 55.796875 87.402344 L 67.175781 32.570312 L 111.042969 41.675781 Z M 99.660156 96.507812 " clip-rule="nonzero"/></clipPath><clipPath id="2094b44bd2"><path d="M 9 80 L 52 80 L 52 112.003906 L 9 112.003906 Z M 9 80 " clip-rule="nonzero"/></clipPath><clipPath id="e59d577d93"><path d="M 63.105469 109.988281 L 34.078125 144.113281 L -8.578125 107.828125 L 20.449219 73.703125 Z M 63.105469 109.988281 " clip-rule="nonzero"/></clipPath><clipPath id="ec547f2df4"><path d="M 63.105469 109.988281 L 34.078125 144.113281 L -8.578125 107.828125 L 20.449219 73.703125 Z M 63.105469 109.988281 " clip-rule="nonzero"/></clipPath><clipPath id="b4deac4b29"><path d="M 29 106 L 31 106 L 31 108 L 29 108 Z M 29 106 " clip-rule="nonzero"/></clipPath><clipPath id="97b3bbe34d"><path d="M 63.105469 109.988281 L 34.078125 144.113281 L -8.578125 107.828125 L 20.449219 73.703125 Z M 63.105469 109.988281 " clip-rule="nonzero"/></clipPath><clipPath id="7bd0507531"><path d="M 63.105469 109.988281 L 34.078125 144.113281 L -8.578125 107.828125 L 20.449219 73.703125 Z M 63.105469 109.988281 " clip-rule="nonzero"/></clipPath><clipPath id="19832236b9"><path d="M 29 109 L 31 109 L 31 111 L 29 111 Z M 29 109 " clip-rule="nonzero"/></clipPath><clipPath id="24fc7d5f9f"><path d="M 63.105469 109.988281 L 34.078125 144.113281 L -8.578125 107.828125 L 20.449219 73.703125 Z M 63.105469 109.988281 " clip-rule="nonzero"/></clipPath><clipPath id="d5c9f848a1"><path d="M 63.105469 109.988281 L 34.078125 144.113281 L -8.578125 107.828125 L 20.449219 73.703125 Z M 63.105469 109.988281 " clip-rule="nonzero"/></clipPath><clipPath id="b81e6e4242"><path d="M 0 0 L 44 0 L 44 31 L 0 31 Z M 0 0 " clip-rule="nonzero"/></clipPath><clipPath id="e05deeedc3"><path d="M 35.21875 35.007812 L -8.648438 25.902344 L 2.734375 -28.929688 L 46.601562 -19.824219 Z M 35.21875 35.007812 " clip-rule="nonzero"/></clipPath><clipPath id="5771a9e583"><path d="M 35.21875 35.007812 L -8.648438 25.902344 L 2.734375 -28.929688 L 46.601562 -19.824219 Z M 35.21875 35.007812 " clip-rule="nonzero"/></clipPath><clipPath id="4364ca5b92"><path d="M 20 3 L 22 3 L 22 6 L 20 6 Z M 20 3 " clip-rule="nonzero"/></clipPath><clipPath id="6021dde1bf"><path d="M 35.21875 35.007812 L -8.648438 25.902344 L 2.734375 -28.929688 L 46.601562 -19.824219 Z M 35.21875 35.007812 " clip-rule="nonzero"/></clipPath><clipPath id="006a6e82b3"><path d="M 35.21875 35.007812 L -8.648438 25.902344 L 2.734375 -28.929688 L 46.601562 -19.824219 Z M 35.21875 35.007812 " clip-rule="nonzero"/></clipPath><clipPath id="0ec5c2afb3"><path d="M 18 4 L 21 4 L 21 7 L 18 7 Z M 18 4 " clip-rule="nonzero"/></clipPath><clipPath id="eea1618db0"><path d="M 35.21875 35.007812 L -8.648438 25.902344 L 2.734375 -28.929688 L 46.601562 -19.824219 Z M 35.21875 35.007812 " clip-rule="nonzero"/></clipPath><clipPath id="a5c637ecbb"><path d="M 35.21875 35.007812 L -8.648438 25.902344 L 2.734375 -28.929688 L 46.601562 -19.824219 Z M 35.21875 35.007812 " clip-rule="nonzero"/></clipPath><clipPath id="1a7d03a3f1"><path d="M 29.554688 19.8125 L 82.453125 19.8125 L 82.453125 112.003906 L 29.554688 112.003906 Z M 29.554688 19.8125 " clip-rule="nonzero"/></clipPath><clipPath id="a72326cd64"><path d="M 36 32 L 76 32 L 76 112.003906 L 36 112.003906 Z M 36 32 " clip-rule="nonzero"/></clipPath><clipPath id="cfd9ae22b0"><path d="M 29.554688 19.8125 L 82.453125 19.8125 L 82.453125 112.003906 L 29.554688 112.003906 Z M 29.554688 19.8125 " clip-rule="nonzero"/></clipPath></defs><g clip-path="url(#6151ebe552)"><path fill="#ffffff" d="M 0 0 L 112.003906 0 L 112.003906 112.003906 L 0 112.003906 Z M 0 0 " fill-opacity="1" fill-rule="nonzero"/><path fill="#ddd92a" d="M 0 0 L 112.003906 0 L 112.003906 112.003906 L 0 112.003906 Z M 0 0 " fill-opacity="1" fill-rule="nonzero"/></g><g clip-path="url(#03f59f889c)"><g clip-path="url(#fc04fb5cc1)"><g clip-path="url(#a527f0cb01)"><path fill="#696714" d="M 62.332031 62.859375 C 67.980469 63.761719 73.402344 65.449219 78.765625 67.332031 C 73.679688 69.769531 68.472656 71.96875 63.285156 74.066406 C 62.378906 74.433594 63.050781 75.792969 63.949219 75.429688 C 69.589844 73.148438 75.261719 70.746094 80.777344 68.046875 C 82.085938 68.515625 83.394531 68.992188 84.699219 69.472656 C 82.242188 76.679688 80.546875 84.015625 81.019531 91.644531 C 81.082031 92.609375 82.597656 92.6875 82.535156 91.710938 C 82.101562 84.609375 83.566406 77.769531 85.773438 71.058594 C 87.671875 75.75 89.890625 80.296875 92.855469 84.527344 C 93.417969 85.328125 94.5625 84.332031 94.003906 83.539062 C 91.101562 79.410156 88.917969 74.941406 87.054688 70.328125 C 92.265625 72.210938 97.503906 74.003906 102.929688 75.164062 C 103.875 75.363281 104.351562 73.925781 103.398438 73.71875 C 97.65625 72.484375 92.125 70.570312 86.617188 68.585938 C 87.148438 67.085938 87.710938 65.589844 88.292969 64.097656 C 95.140625 60.226562 101.601562 55.730469 107.265625 50.207031 C 107.964844 49.527344 106.960938 48.394531 106.261719 49.074219 C 101.117188 54.074219 95.324219 58.226562 89.1875 61.832031 C 92.09375 54.546875 95.257812 47.328125 97.148438 39.992188 C 97.390625 39.050781 95.957031 38.570312 95.707031 39.519531 C 93.652344 47.40625 90.152344 55.171875 87.074219 63.035156 C 86.316406 63.460938 85.554688 63.878906 84.789062 64.289062 C 82.882812 58.878906 81.171875 53.378906 79.0625 48.066406 C 78.699219 47.15625 77.335938 47.820312 77.695312 48.726562 C 79.835938 54.070312 81.5625 59.574219 83.484375 64.984375 C 82.539062 65.476562 81.589844 65.957031 80.632812 66.429688 C 74.683594 64.316406 68.6875 62.371094 62.414062 61.347656 C 61.449219 61.191406 61.371094 62.707031 62.332031 62.859375 Z M 62.332031 62.859375 " fill-opacity="1" fill-rule="nonzero"/></g></g></g><g clip-path="url(#e0a415f709)"><g clip-path="url(#97abb5de30)"><g clip-path="url(#93d65b858e)"><path fill="#696714" d="M 86.226562 65.242188 C 86.039062 65.738281 85.851562 66.234375 85.667969 66.734375 C 85.546875 66.402344 85.425781 66.066406 85.304688 65.734375 C 85.613281 65.570312 85.917969 65.410156 86.226562 65.242188 Z M 86.226562 65.242188 " fill-opacity="1" fill-rule="nonzero"/></g></g></g><g clip-path="url(#8b81daddea)"><g clip-path="url(#09c8e33df5)"><g clip-path="url(#acdc559ef2)"><path fill="#696714" d="M 84.003906 66.425781 C 84.175781 66.894531 84.347656 67.363281 84.519531 67.828125 C 83.878906 67.597656 83.242188 67.363281 82.601562 67.136719 C 83.070312 66.898438 83.539062 66.667969 84.003906 66.425781 Z M 84.003906 66.425781 " fill-opacity="1" fill-rule="nonzero"/></g></g></g><g clip-path="url(#2094b44bd2)"><g clip-path="url(#e59d577d93)"><g clip-path="url(#ec547f2df4)"><path fill="#696714" d="M 15.679688 126.605469 C 19.179688 122.082031 23.257812 118.132812 27.484375 114.328125 C 27.183594 119.964844 26.617188 125.585938 25.96875 131.144531 C 25.855469 132.117188 27.371094 132.179688 27.484375 131.214844 C 28.1875 125.171875 28.796875 119.042969 29.074219 112.90625 C 30.117188 111.984375 31.164062 111.066406 32.207031 110.148438 C 37.351562 115.765625 42.980469 120.769531 49.902344 124.011719 C 50.777344 124.421875 51.574219 123.128906 50.6875 122.714844 C 44.246094 119.6875 38.949219 115.125 34.113281 109.96875 C 39.140625 110.550781 44.195312 110.785156 49.332031 110.214844 C 50.304688 110.105469 49.976562 108.621094 49.015625 108.730469 C 43.996094 109.300781 39.03125 109.074219 34.085938 108.492188 C 38.242188 104.824219 42.324219 101.085938 45.945312 96.882812 C 46.574219 96.148438 45.542969 95.042969 44.902344 95.78125 C 41.066406 100.222656 36.734375 104.164062 32.351562 108.042969 C 31.289062 106.855469 30.246094 105.644531 29.214844 104.421875 C 29.105469 96.554688 28.257812 88.730469 26.128906 81.109375 C 25.867188 80.167969 24.390625 80.507812 24.652344 81.449219 C 26.570312 88.359375 27.4375 95.433594 27.65625 102.546875 C 22.65625 96.503906 17.839844 90.265625 12.3125 85.085938 C 11.601562 84.421875 10.492188 85.453125 11.203125 86.125 C 17.136719 91.710938 22.273438 98.507812 27.699219 104.976562 C 27.710938 105.847656 27.710938 106.714844 27.703125 107.585938 C 22.042969 106.664062 16.394531 105.527344 10.71875 104.832031 C 9.75 104.710938 9.679688 106.230469 10.644531 106.34375 C 16.359375 107.03125 22.019531 108.152344 27.6875 109.066406 C 27.664062 110.128906 27.632812 111.195312 27.589844 112.261719 C 22.882812 116.464844 18.300781 120.796875 14.390625 125.808594 C 13.789062 126.578125 15.085938 127.375 15.679688 126.605469 Z M 15.679688 126.605469 " fill-opacity="1" fill-rule="nonzero"/></g></g></g><g clip-path="url(#b4deac4b29)"><g clip-path="url(#97b3bbe34d)"><g clip-path="url(#7bd0507531)"><path fill="#696714" d="M 29.230469 106.785156 C 29.574219 107.1875 29.921875 107.585938 30.269531 107.984375 C 29.917969 107.933594 29.570312 107.882812 29.21875 107.828125 C 29.222656 107.480469 29.230469 107.132812 29.230469 106.785156 Z M 29.230469 106.785156 " fill-opacity="1" fill-rule="nonzero"/></g></g></g><g clip-path="url(#19832236b9)"><g clip-path="url(#24fc7d5f9f)"><g clip-path="url(#d5c9f848a1)"><path fill="#696714" d="M 29.203125 109.300781 C 29.695312 109.375 30.1875 109.445312 30.679688 109.519531 C 30.171875 109.96875 29.660156 110.417969 29.152344 110.871094 C 29.167969 110.34375 29.191406 109.824219 29.203125 109.300781 Z M 29.203125 109.300781 " fill-opacity="1" fill-rule="nonzero"/></g></g></g><g clip-path="url(#b81e6e4242)"><g clip-path="url(#e05deeedc3)"><g clip-path="url(#5771a9e583)"><path fill="#696714" d="M -2.113281 1.363281 C 3.539062 2.265625 8.957031 3.949219 14.324219 5.832031 C 9.234375 8.269531 4.03125 10.472656 -1.15625 12.566406 C -2.066406 12.933594 -1.394531 14.296875 -0.492188 13.929688 C 5.148438 11.648438 10.816406 9.246094 16.335938 6.546875 C 17.644531 7.015625 18.949219 7.496094 20.257812 7.972656 C 17.796875 15.179688 16.101562 22.515625 16.578125 30.144531 C 16.640625 31.109375 18.152344 31.191406 18.09375 30.210938 C 17.660156 23.109375 19.125 16.273438 21.328125 9.558594 C 23.230469 14.25 25.449219 18.796875 28.410156 23.027344 C 28.972656 23.828125 30.117188 22.832031 29.5625 22.039062 C 26.65625 17.910156 24.472656 13.445312 22.609375 8.828125 C 27.820312 10.710938 33.0625 12.503906 38.488281 13.664062 C 39.433594 13.863281 39.910156 12.425781 38.953125 12.222656 C 33.214844 10.984375 27.679688 9.070312 22.171875 7.085938 C 22.707031 5.585938 23.269531 4.089844 23.847656 2.597656 C 30.699219 -1.273438 37.15625 -5.769531 42.824219 -11.289062 C 43.523438 -11.972656 42.519531 -13.105469 41.816406 -12.425781 C 36.671875 -7.425781 30.882812 -3.273438 24.742188 0.332031 C 27.648438 -6.953125 30.816406 -14.171875 32.707031 -21.507812 C 32.949219 -22.449219 31.511719 -22.925781 31.265625 -21.980469 C 29.207031 -14.09375 25.710938 -6.328125 22.632812 1.535156 C 21.875 1.960938 21.113281 2.378906 20.34375 2.789062 C 18.4375 -2.621094 16.726562 -8.121094 14.617188 -13.433594 C 14.257812 -14.34375 12.890625 -13.675781 13.253906 -12.773438 C 15.390625 -7.429688 17.121094 -1.925781 19.039062 3.484375 C 18.097656 3.976562 17.144531 4.457031 16.191406 4.933594 C 10.242188 2.816406 4.242188 0.875 -2.03125 -0.148438 C -2.992188 -0.308594 -3.070312 1.207031 -2.113281 1.363281 Z M -2.113281 1.363281 " fill-opacity="1" fill-rule="nonzero"/></g></g></g><g clip-path="url(#4364ca5b92)"><g clip-path="url(#6021dde1bf)"><g clip-path="url(#006a6e82b3)"><path fill="#696714" d="M 21.78125 3.746094 C 21.59375 4.242188 21.410156 4.738281 21.226562 5.234375 C 21.105469 4.902344 20.980469 4.570312 20.863281 4.234375 C 21.167969 4.074219 21.476562 3.910156 21.78125 3.746094 Z M 21.78125 3.746094 " fill-opacity="1" fill-rule="nonzero"/></g></g></g><g clip-path="url(#0ec5c2afb3)"><g clip-path="url(#eea1618db0)"><g clip-path="url(#a5c637ecbb)"><path fill="#696714" d="M 19.5625 4.925781 C 19.730469 5.394531 19.902344 5.863281 20.078125 6.328125 C 19.4375 6.097656 18.800781 5.867188 18.160156 5.636719 C 18.628906 5.398438 19.09375 5.167969 19.5625 4.925781 Z M 19.5625 4.925781 " fill-opacity="1" fill-rule="nonzero"/></g></g></g><g clip-path="url(#1a7d03a3f1)"><path fill="#2d2a32" d="M 81.652344 82.402344 C 81.46875 80.742188 81.191406 79.011719 80.050781 77.730469 C 79.300781 76.890625 78.296875 76.378906 77.324219 75.878906 L 77.21875 75.824219 C 74.34375 74.34375 71.535156 72.6875 68.875 70.894531 C 68.429688 70.597656 67.964844 70.269531 67.566406 69.917969 C 67.925781 68.4375 68.15625 66.925781 68.246094 65.421875 C 68.304688 64.519531 68.269531 63.5 67.605469 62.757812 C 67.246094 62.355469 66.769531 62.117188 66.308594 61.917969 C 65.59375 61.613281 64.855469 61.371094 64.101562 61.195312 C 64.257812 60.160156 64.515625 59.132812 64.871094 58.148438 C 66.332031 56.726562 67.617188 54.9375 68.660156 52.839844 C 69.128906 53.039062 69.65625 53.140625 70.1875 53.140625 C 70.710938 53.140625 71.25 53.042969 71.753906 52.847656 C 72.941406 52.382812 74.015625 51.398438 74.863281 50 C 75.898438 48.296875 76.445312 46.328125 76.445312 44.34375 C 76.445312 43.894531 76.414062 43.441406 76.359375 42.996094 C 76.226562 41.929688 75.945312 41.082031 75.5 40.40625 C 74.917969 39.519531 74.019531 38.933594 73.097656 38.839844 C 72.5 38.777344 71.90625 38.902344 71.324219 39.203125 C 71.152344 25.808594 68.738281 19.8125 56.046875 19.8125 C 50.53125 19.8125 46.84375 20.972656 44.445312 23.460938 C 41.644531 26.359375 40.507812 31.101562 40.695312 39.207031 C 40.113281 38.902344 39.515625 38.777344 38.914062 38.839844 C 37.992188 38.933594 37.09375 39.519531 36.511719 40.40625 C 36.0625 41.082031 35.78125 41.929688 35.652344 42.996094 C 35.34375 45.421875 35.875 47.910156 37.144531 50 C 37.996094 51.398438 39.070312 52.382812 40.261719 52.847656 C 40.765625 53.042969 41.300781 53.140625 41.824219 53.140625 C 42.449219 53.140625 43.0625 53.003906 43.589844 52.734375 C 44.582031 54.773438 45.769531 56.511719 47.109375 57.910156 C 47.097656 57.980469 47.109375 58.054688 47.132812 58.128906 C 47.488281 59.121094 47.75 60.148438 47.910156 61.195312 C 47.15625 61.371094 46.417969 61.613281 45.703125 61.917969 C 45.238281 62.117188 44.761719 62.355469 44.40625 62.757812 C 43.742188 63.5 43.707031 64.519531 43.761719 65.417969 C 43.855469 66.933594 44.085938 68.449219 44.445312 69.917969 C 44.027344 70.285156 43.554688 70.613281 43.136719 70.894531 C 40.464844 72.691406 37.65625 74.347656 34.789062 75.824219 L 34.683594 75.878906 C 33.714844 76.375 32.707031 76.890625 31.960938 77.730469 C 30.820312 79.007812 30.546875 80.738281 30.359375 82.402344 C 29.261719 92.265625 29.289062 102.277344 30.4375 112.152344 C 30.441406 112.15625 30.441406 112.160156 30.441406 112.164062 C 30.441406 112.179688 30.445312 112.195312 30.449219 112.210938 C 30.449219 112.226562 30.453125 112.242188 30.460938 112.253906 C 30.480469 112.328125 30.519531 112.394531 30.574219 112.445312 C 30.582031 112.457031 30.59375 112.46875 30.605469 112.476562 C 30.617188 112.492188 30.632812 112.503906 30.648438 112.511719 C 30.660156 112.523438 30.675781 112.53125 30.691406 112.539062 C 30.699219 112.542969 30.707031 112.546875 30.714844 112.550781 C 33.46875 114.070312 36.378906 115.335938 39.378906 116.328125 C 44.679688 118.082031 50.269531 118.996094 55.816406 118.996094 C 56.914062 118.996094 58.007812 118.960938 59.097656 118.886719 C 63.636719 118.585938 68.160156 117.664062 72.496094 116.167969 C 75.566406 115.109375 78.542969 113.765625 81.367188 112.152344 C 81.429688 112.121094 81.480469 112.074219 81.519531 112.023438 C 81.53125 112.007812 81.542969 111.992188 81.550781 111.976562 C 81.554688 111.964844 81.558594 111.957031 81.5625 111.949219 C 81.578125 111.925781 81.585938 111.898438 81.597656 111.871094 C 81.597656 111.867188 81.597656 111.863281 81.597656 111.859375 C 81.601562 111.847656 81.605469 111.835938 81.605469 111.824219 C 81.609375 111.808594 81.613281 111.792969 81.613281 111.777344 C 81.617188 111.773438 81.617188 111.773438 81.617188 111.769531 C 82.71875 102.015625 82.730469 92.132812 81.652344 82.402344 " fill-opacity="1" fill-rule="nonzero"/></g><g clip-path="url(#a72326cd64)"><path fill="#edf4ed" d="M 40.398438 86.519531 C 40.574219 89.640625 40.410156 92.808594 40.386719 95.929688 C 40.363281 99.214844 40.339844 102.5 40.308594 105.78125 C 40.289062 107.359375 40.273438 108.9375 40.257812 110.515625 C 40.238281 112.136719 40.433594 113.9375 40.144531 115.535156 C 39.820312 115.429688 39.496094 115.324219 39.171875 115.210938 C 39.042969 114.070312 39.179688 112.835938 39.183594 111.707031 C 39.1875 110.265625 39.191406 108.820312 39.195312 107.378906 C 39.207031 104.554688 39.222656 101.734375 39.242188 98.910156 C 39.257812 96.089844 39.261719 93.265625 39.300781 90.441406 C 39.332031 88.371094 40.152344 82.773438 36.738281 82.882812 C 36.414062 82.894531 36.378906 82.542969 36.691406 82.476562 C 39.109375 81.984375 40.285156 84.53125 40.398438 86.519531 Z M 40.894531 50.058594 C 40.226562 49.589844 39.78125 48.84375 39.300781 48.195312 C 38.984375 47.765625 38.621094 47.296875 38.75 46.734375 C 38.863281 46.253906 39.175781 46.292969 39.425781 45.992188 C 39.757812 45.597656 39.425781 45.015625 39.269531 44.628906 C 39.1875 44.433594 38.53125 42.800781 38.050781 43.359375 C 37.90625 43.53125 37.539062 43.402344 37.648438 43.164062 C 37.835938 42.734375 38.332031 42.613281 38.757812 42.796875 C 39.511719 43.125 39.929688 44.304688 40.195312 44.996094 C 40.3125 45.304688 40.492188 45.710938 40.375 46.046875 C 40.28125 46.328125 40.066406 46.328125 39.929688 46.511719 C 39.324219 47.320312 40.078125 47.820312 40.59375 48.460938 C 40.917969 48.863281 41.253906 49.21875 41.425781 49.707031 C 41.527344 49.996094 41.132812 50.222656 40.894531 50.058594 Z M 43.003906 51.425781 C 42.949219 51.300781 42.898438 51.175781 42.847656 51.050781 C 42.820312 50.980469 42.789062 50.90625 42.761719 50.835938 C 42.703125 50.683594 42.640625 50.527344 42.589844 50.371094 C 42.5625 50.308594 42.539062 50.246094 42.519531 50.1875 C 42.46875 50.050781 42.417969 49.910156 42.375 49.773438 C 42.34375 49.683594 42.3125 49.59375 42.285156 49.503906 C 42.238281 49.363281 42.191406 49.226562 42.148438 49.085938 C 42.121094 48.996094 42.09375 48.910156 42.070312 48.824219 C 42.015625 48.660156 41.96875 48.496094 41.921875 48.332031 C 41.921875 48.328125 41.921875 48.324219 41.921875 48.320312 C 41.914062 48.292969 41.902344 48.261719 41.894531 48.230469 C 41.847656 48.0625 41.800781 47.890625 41.757812 47.71875 C 41.730469 47.613281 41.703125 47.507812 41.675781 47.402344 C 41.648438 47.292969 41.621094 47.1875 41.597656 47.078125 C 41.574219 46.972656 41.546875 46.867188 41.523438 46.761719 C 41.503906 46.675781 41.484375 46.585938 41.464844 46.496094 C 41.464844 46.492188 41.460938 46.484375 41.460938 46.476562 C 41.425781 46.316406 41.390625 46.148438 41.359375 45.984375 C 41.351562 45.957031 41.347656 45.925781 41.339844 45.898438 C 41.308594 45.738281 41.277344 45.574219 41.25 45.414062 C 41.234375 45.339844 41.222656 45.265625 41.210938 45.191406 C 41.171875 44.976562 41.136719 44.757812 41.101562 44.539062 L 41.101562 44.535156 C 41.074219 44.339844 41.042969 44.140625 41.015625 43.941406 C 41.007812 43.871094 41 43.800781 40.988281 43.734375 C 40.96875 43.554688 40.945312 43.375 40.925781 43.195312 C 40.925781 43.1875 40.921875 43.179688 40.921875 43.167969 C 40.914062 43.074219 40.902344 42.980469 40.894531 42.882812 C 40.875 42.6875 40.855469 42.492188 40.839844 42.296875 C 40.824219 42.09375 40.808594 41.890625 40.792969 41.6875 C 40.792969 41.675781 40.792969 41.660156 40.792969 41.644531 C 40.777344 41.40625 40.761719 41.167969 40.753906 40.929688 L 40.75 40.898438 C 40.742188 40.734375 40.738281 40.574219 40.730469 40.414062 C 40.222656 40.015625 39.714844 39.816406 39.214844 39.816406 C 39.148438 39.816406 39.082031 39.820312 39.019531 39.824219 C 38.386719 39.890625 37.761719 40.3125 37.339844 40.949219 C 36.976562 41.5 36.746094 42.207031 36.636719 43.117188 C 36.355469 45.324219 36.839844 47.585938 37.992188 49.484375 C 38.507812 50.328125 39.378906 51.4375 40.621094 51.921875 C 41.472656 52.253906 42.449219 52.210938 43.175781 51.832031 C 43.160156 51.796875 43.144531 51.765625 43.128906 51.730469 C 43.085938 51.628906 43.042969 51.527344 43.003906 51.425781 Z M 63.050781 61.566406 C 62.914062 62.683594 62.886719 63.8125 62.972656 64.929688 C 60.859375 66.03125 58.589844 66.761719 56.15625 66.851562 C 54.410156 66.914062 52.667969 66.691406 50.992188 66.199219 C 50.292969 65.996094 49.636719 65.726562 48.996094 65.429688 C 49.128906 64.140625 49.117188 62.835938 48.960938 61.542969 C 48.960938 61.539062 48.957031 61.53125 48.957031 61.527344 L 48.957031 61.523438 C 48.859375 60.738281 48.710938 59.964844 48.503906 59.203125 C 50.742188 61.023438 53.3125 62 56.046875 62 C 58.691406 62 61.230469 61.070312 63.460938 59.367188 C 63.28125 60.066406 63.148438 60.773438 63.0625 61.488281 C 63.058594 61.5 63.058594 61.511719 63.054688 61.523438 C 63.054688 61.535156 63.054688 61.546875 63.054688 61.558594 C 63.054688 61.558594 63.050781 61.5625 63.050781 61.566406 Z M 64.003906 72.878906 C 60.078125 77.3125 51.519531 77.277344 47.578125 72.867188 C 47.332031 72.59375 47.804688 72.339844 48.039062 72.484375 C 50.457031 73.984375 52.878906 75.128906 55.796875 75.109375 C 58.664062 75.089844 61.082031 73.945312 63.46875 72.476562 C 63.742188 72.308594 64.3125 72.53125 64.003906 72.878906 Z M 62.636719 38.167969 C 61.285156 38.167969 60.28125 38.386719 60.28125 37.609375 C 60.28125 36.832031 61.378906 36.199219 62.730469 36.199219 C 64.085938 36.199219 65.183594 36.832031 65.183594 37.609375 C 65.183594 38.386719 63.992188 38.167969 62.636719 38.167969 Z M 63.703125 45.457031 C 63.703125 45.96875 63.28125 46.386719 62.769531 46.386719 L 62.695312 46.386719 C 62.179688 46.386719 61.761719 45.96875 61.761719 45.457031 L 61.761719 42.226562 C 61.761719 41.714844 62.179688 41.292969 62.695312 41.292969 L 62.769531 41.292969 C 63.28125 41.292969 63.703125 41.714844 63.703125 42.226562 Z M 61.703125 51.773438 C 59.136719 54.738281 53.980469 55.269531 51.101562 52.429688 C 50.84375 52.175781 51.332031 51.953125 51.542969 52.070312 C 53.097656 52.90625 54.703125 53.484375 56.492188 53.324219 C 58.191406 53.171875 59.671875 52.351562 60.964844 51.28125 C 61.308594 50.996094 62.089844 51.324219 61.703125 51.773438 Z M 58.527344 56.9375 C 57.351562 57.554688 55.960938 57.554688 54.703125 57.207031 C 54.113281 57.042969 54.558594 56.390625 55.039062 56.488281 C 56.152344 56.714844 57.164062 56.515625 58.234375 56.199219 C 58.765625 56.039062 59.003906 56.6875 58.527344 56.9375 Z M 48.804688 38.167969 C 47.453125 38.167969 46.449219 38.386719 46.449219 37.609375 C 46.449219 36.832031 47.546875 36.199219 48.902344 36.199219 C 50.253906 36.199219 51.351562 36.832031 51.351562 37.609375 C 51.351562 38.386719 50.160156 38.167969 48.804688 38.167969 Z M 49.777344 45.457031 C 49.777344 45.96875 49.355469 46.386719 48.84375 46.386719 L 48.769531 46.386719 C 48.257812 46.386719 47.839844 45.96875 47.839844 45.457031 L 47.839844 42.226562 C 47.839844 41.714844 48.257812 41.292969 48.769531 41.292969 L 48.84375 41.292969 C 49.355469 41.292969 49.777344 41.714844 49.777344 42.226562 Z M 54.726562 44.503906 C 54.855469 44.390625 55.175781 44.371094 55.195312 44.601562 C 55.277344 45.480469 54.773438 46.386719 54.675781 47.277344 C 54.566406 48.246094 54.738281 50.023438 56.175781 49.753906 C 56.503906 49.6875 56.84375 50.09375 56.480469 50.3125 C 55.328125 51.007812 54.023438 50.292969 53.679688 49.042969 C 53.320312 47.746094 53.675781 45.40625 54.726562 44.503906 Z M 69.792969 46.4375 C 69.738281 45.492188 69.714844 44.546875 69.625 43.605469 C 69.492188 42.261719 69.265625 40.925781 68.964844 39.609375 C 68.429688 37.277344 67.613281 35.019531 66.601562 32.855469 C 63.070312 33.105469 59.511719 33.082031 55.972656 33.109375 C 52.488281 33.140625 49.003906 33.179688 45.519531 33.125 C 44.550781 35.222656 43.769531 37.410156 43.265625 39.667969 C 42.753906 41.949219 42.707031 44.238281 42.488281 46.53125 C 42.914062 48.402344 43.503906 50.179688 44.253906 51.808594 C 45.589844 54.734375 47.335938 57.03125 49.347656 58.601562 C 51.359375 60.171875 53.636719 61.007812 56.046875 61.007812 C 60.859375 61.007812 65.324219 57.625 67.980469 51.957031 C 68.175781 51.550781 68.355469 51.132812 68.527344 50.703125 C 68.65625 50.386719 68.777344 50.0625 68.890625 49.734375 C 68.964844 49.515625 69.039062 49.296875 69.113281 49.074219 C 69.382812 48.214844 69.613281 47.335938 69.792969 46.4375 Z M 75.25 82.882812 C 71.9375 82.789062 72.675781 87.988281 72.703125 90.023438 C 72.742188 92.847656 72.75 95.667969 72.765625 98.492188 C 72.785156 101.316406 72.800781 104.140625 72.8125 106.964844 C 72.816406 108.410156 72.820312 109.859375 72.828125 111.300781 C 72.832031 112.492188 72.964844 113.785156 72.851562 114.992188 C 72.507812 115.117188 72.164062 115.234375 71.820312 115.351562 C 71.601562 113.929688 71.773438 112.339844 71.757812 110.921875 C 71.742188 109.28125 71.722656 107.640625 71.707031 106 C 71.667969 102.71875 71.648438 99.4375 71.625 96.15625 C 71.613281 94.515625 71.59375 92.871094 71.589844 91.230469 C 71.585938 89.601562 71.484375 87.929688 71.625 86.304688 C 71.792969 84.386719 73.066406 82.011719 75.34375 82.476562 C 75.675781 82.546875 75.546875 82.894531 75.25 82.882812 Z M 72.246094 48.875 C 72.472656 48.320312 72.875 47.628906 72.894531 47.015625 C 72.921875 46.328125 72.503906 46.722656 72.058594 46.640625 C 71.464844 46.535156 71.253906 46.035156 71.375 45.488281 C 71.523438 44.839844 73.027344 41.363281 74.132812 42.621094 C 74.203125 42.703125 74.132812 42.8125 74.042969 42.835938 C 73.542969 42.953125 73.347656 43.492188 73.140625 43.894531 C 72.953125 44.253906 72.53125 44.859375 72.484375 45.257812 C 72.414062 45.882812 72.472656 45.628906 72.980469 45.679688 C 73.199219 45.703125 73.339844 45.671875 73.539062 45.773438 C 74.609375 46.324219 73.601562 48.378906 73.207031 49.089844 C 72.964844 49.523438 72.007812 49.464844 72.246094 48.875 Z M 74.015625 49.484375 C 75.171875 47.585938 75.652344 45.328125 75.375 43.117188 C 75.261719 42.207031 75.03125 41.496094 74.671875 40.949219 C 74.25 40.3125 73.625 39.890625 72.996094 39.828125 C 72.453125 39.769531 71.894531 39.953125 71.335938 40.371094 L 71.335938 40.90625 C 71.335938 41.519531 71.316406 42.128906 71.277344 42.734375 C 71.273438 42.820312 71.269531 42.90625 71.261719 42.992188 C 71.242188 43.269531 71.21875 43.546875 71.191406 43.820312 C 71.179688 43.941406 71.167969 44.058594 71.152344 44.179688 C 71.140625 44.296875 71.125 44.417969 71.109375 44.535156 C 71.101562 44.613281 71.09375 44.6875 71.082031 44.757812 C 71.066406 44.863281 71.054688 44.964844 71.039062 45.070312 C 71.023438 45.183594 71.003906 45.300781 70.988281 45.414062 C 70.984375 45.429688 70.980469 45.445312 70.980469 45.460938 C 70.960938 45.578125 70.941406 45.691406 70.921875 45.808594 C 70.914062 45.855469 70.90625 45.902344 70.894531 45.953125 L 70.894531 45.960938 C 70.882812 46.03125 70.871094 46.101562 70.855469 46.175781 C 70.765625 46.664062 70.664062 47.144531 70.546875 47.621094 C 70.519531 47.730469 70.492188 47.835938 70.464844 47.945312 C 70.433594 48.066406 70.402344 48.1875 70.371094 48.304688 C 70.371094 48.3125 70.367188 48.324219 70.363281 48.332031 C 70.195312 48.949219 70.007812 49.554688 69.796875 50.148438 C 69.765625 50.234375 69.734375 50.320312 69.703125 50.40625 C 69.671875 50.5 69.636719 50.589844 69.601562 50.679688 C 69.570312 50.761719 69.539062 50.84375 69.507812 50.925781 C 69.375 51.269531 69.230469 51.609375 69.082031 51.941406 C 69.773438 52.21875 70.636719 52.214844 71.390625 51.921875 C 72.632812 51.433594 73.503906 50.328125 74.015625 49.484375 " fill-opacity="1" fill-rule="nonzero"/></g><g clip-path="url(#cfd9ae22b0)"><path fill="#2d2a32" d="M 41.425781 49.707031 C 41.527344 49.996094 41.132812 50.222656 40.894531 50.058594 C 40.226562 49.589844 39.78125 48.84375 39.300781 48.195312 C 38.984375 47.765625 38.621094 47.296875 38.75 46.734375 C 38.863281 46.253906 39.175781 46.292969 39.425781 45.992188 C 39.757812 45.597656 39.425781 45.015625 39.269531 44.628906 C 39.1875 44.433594 38.53125 42.800781 38.050781 43.359375 C 37.90625 43.53125 37.539062 43.402344 37.648438 43.164062 C 37.835938 42.734375 38.332031 42.613281 38.757812 42.796875 C 39.511719 43.125 39.929688 44.304688 40.195312 44.996094 C 40.3125 45.304688 40.492188 45.710938 40.375 46.046875 C 40.28125 46.328125 40.066406 46.328125 39.929688 46.511719 C 39.324219 47.320312 40.078125 47.820312 40.59375 48.460938 C 40.917969 48.863281 41.253906 49.21875 41.425781 49.707031 Z M 48.84375 46.386719 L 48.769531 46.386719 C 48.257812 46.386719 47.835938 45.96875 47.835938 45.457031 L 47.835938 42.226562 C 47.835938 41.714844 48.257812 41.292969 48.769531 41.292969 L 48.84375 41.292969 C 49.355469 41.292969 49.777344 41.714844 49.777344 42.226562 L 49.777344 45.457031 C 49.777344 45.96875 49.355469 46.386719 48.84375 46.386719 Z M 48.804688 38.167969 C 47.453125 38.167969 46.449219 38.386719 46.449219 37.609375 C 46.449219 36.832031 47.546875 36.199219 48.902344 36.199219 C 50.253906 36.199219 51.351562 36.832031 51.351562 37.609375 C 51.351562 38.386719 50.160156 38.167969 48.804688 38.167969 Z M 53.679688 49.042969 C 53.320312 47.746094 53.671875 45.40625 54.726562 44.503906 C 54.855469 44.390625 55.175781 44.371094 55.195312 44.601562 C 55.277344 45.480469 54.773438 46.386719 54.675781 47.273438 C 54.566406 48.246094 54.738281 50.023438 56.175781 49.75 C 56.503906 49.6875 56.84375 50.09375 56.480469 50.3125 C 55.328125 51.007812 54.023438 50.292969 53.679688 49.042969 Z M 58.527344 56.9375 C 57.351562 57.550781 55.960938 57.554688 54.703125 57.207031 C 54.113281 57.039062 54.558594 56.390625 55.039062 56.488281 C 56.152344 56.714844 57.164062 56.515625 58.230469 56.195312 C 58.765625 56.039062 59.003906 56.6875 58.527344 56.9375 Z M 51.542969 52.070312 C 53.097656 52.90625 54.703125 53.484375 56.492188 53.324219 C 58.191406 53.171875 59.671875 52.351562 60.964844 51.28125 C 61.308594 50.996094 62.089844 51.324219 61.699219 51.773438 C 59.136719 54.738281 53.980469 55.269531 51.101562 52.429688 C 50.84375 52.175781 51.332031 51.953125 51.542969 52.070312 Z M 63.703125 42.226562 L 63.703125 45.457031 C 63.703125 45.96875 63.28125 46.386719 62.769531 46.386719 L 62.691406 46.386719 C 62.179688 46.386719 61.761719 45.96875 61.761719 45.457031 L 61.761719 42.226562 C 61.761719 41.714844 62.179688 41.292969 62.691406 41.292969 L 62.769531 41.292969 C 63.28125 41.292969 63.703125 41.714844 63.703125 42.226562 Z M 60.28125 37.609375 C 60.28125 36.832031 61.378906 36.199219 62.730469 36.199219 C 64.085938 36.199219 65.183594 36.832031 65.183594 37.609375 C 65.183594 38.386719 63.992188 38.167969 62.636719 38.167969 C 61.285156 38.167969 60.28125 38.386719 60.28125 37.609375 Z M 71.375 45.488281 C 71.523438 44.839844 73.027344 41.363281 74.132812 42.621094 C 74.199219 42.699219 74.132812 42.8125 74.042969 42.832031 C 73.542969 42.949219 73.347656 43.492188 73.140625 43.894531 C 72.953125 44.253906 72.53125 44.859375 72.484375 45.257812 C 72.414062 45.882812 72.472656 45.628906 72.980469 45.679688 C 73.195312 45.703125 73.339844 45.667969 73.539062 45.773438 C 74.609375 46.324219 73.601562 48.378906 73.203125 49.089844 C 72.964844 49.523438 72.007812 49.464844 72.246094 48.875 C 72.46875 48.320312 72.875 47.628906 72.894531 47.015625 C 72.921875 46.328125 72.503906 46.722656 72.058594 46.640625 C 71.460938 46.53125 71.253906 46.035156 71.375 45.488281 Z M 71.820312 115.351562 C 71.601562 113.929688 71.773438 112.335938 71.757812 110.921875 C 71.742188 109.28125 71.722656 107.640625 71.703125 106 C 71.667969 102.71875 71.648438 99.4375 71.625 96.15625 C 71.613281 94.511719 71.59375 92.871094 71.585938 91.230469 C 71.582031 89.601562 71.484375 87.929688 71.625 86.304688 C 71.792969 84.386719 73.066406 82.011719 75.34375 82.476562 C 75.675781 82.546875 75.542969 82.890625 75.25 82.882812 C 71.9375 82.789062 72.675781 87.988281 72.703125 90.023438 C 72.742188 92.847656 72.75 95.667969 72.765625 98.492188 C 72.785156 101.316406 72.800781 104.140625 72.8125 106.964844 C 72.816406 108.410156 72.820312 109.855469 72.824219 111.300781 C 72.828125 112.492188 72.960938 113.785156 72.851562 114.992188 C 72.507812 115.117188 72.164062 115.234375 71.820312 115.351562 Z M 39.171875 115.210938 C 39.042969 114.070312 39.179688 112.835938 39.183594 111.707031 C 39.1875 110.265625 39.191406 108.820312 39.195312 107.378906 C 39.207031 104.554688 39.222656 101.734375 39.242188 98.910156 C 39.257812 96.089844 39.261719 93.265625 39.300781 90.441406 C 39.328125 88.371094 40.152344 82.773438 36.734375 82.882812 C 36.414062 82.894531 36.378906 82.542969 36.691406 82.476562 C 39.109375 81.984375 40.285156 84.53125 40.398438 86.519531 C 40.574219 89.640625 40.410156 92.808594 40.386719 95.929688 C 40.363281 99.214844 40.339844 102.5 40.308594 105.78125 C 40.289062 107.359375 40.273438 108.9375 40.257812 110.515625 C 40.238281 112.136719 40.433594 113.9375 40.144531 115.535156 C 39.820312 115.429688 39.496094 115.324219 39.171875 115.210938 Z M 44.25 51.808594 C 43.503906 50.179688 42.910156 48.402344 42.488281 46.53125 C 42.707031 44.238281 42.753906 41.949219 43.265625 39.667969 C 43.769531 37.410156 44.550781 35.222656 45.519531 33.125 C 49.003906 33.179688 52.488281 33.140625 55.972656 33.109375 C 59.511719 33.082031 63.070312 33.105469 66.601562 32.855469 C 67.613281 35.019531 68.429688 37.277344 68.964844 39.609375 C 69.265625 40.925781 69.492188 42.261719 69.621094 43.605469 C 69.714844 44.546875 69.734375 45.492188 69.792969 46.4375 C 69.609375 47.335938 69.382812 48.214844 69.109375 49.074219 C 69.039062 49.296875 68.964844 49.515625 68.890625 49.734375 C 68.777344 50.0625 68.65625 50.382812 68.527344 50.703125 C 68.355469 51.132812 68.175781 51.550781 67.980469 51.957031 C 65.324219 57.625 60.859375 61.007812 56.046875 61.007812 C 53.636719 61.007812 51.359375 60.171875 49.347656 58.601562 C 47.335938 57.03125 45.589844 54.734375 44.25 51.808594 Z M 40.621094 51.921875 C 39.378906 51.4375 38.507812 50.328125 37.992188 49.484375 C 36.839844 47.585938 36.355469 45.324219 36.632812 43.117188 C 36.746094 42.207031 36.976562 41.5 37.339844 40.949219 C 37.761719 40.3125 38.386719 39.890625 39.019531 39.824219 C 39.082031 39.820312 39.148438 39.816406 39.210938 39.816406 C 39.714844 39.816406 40.21875 40.015625 40.730469 40.414062 C 40.738281 40.574219 40.742188 40.734375 40.75 40.898438 L 40.753906 40.929688 C 40.761719 41.167969 40.777344 41.40625 40.792969 41.644531 C 40.792969 41.660156 40.792969 41.675781 40.792969 41.6875 C 40.804688 41.890625 40.820312 42.09375 40.839844 42.296875 C 40.855469 42.492188 40.875 42.6875 40.894531 42.882812 C 40.902344 42.980469 40.914062 43.074219 40.921875 43.167969 C 40.921875 43.179688 40.925781 43.1875 40.925781 43.195312 C 40.945312 43.375 40.96875 43.554688 40.988281 43.734375 C 41 43.800781 41.007812 43.871094 41.015625 43.941406 C 41.042969 44.140625 41.074219 44.339844 41.101562 44.535156 L 41.101562 44.539062 C 41.136719 44.757812 41.171875 44.976562 41.207031 45.191406 C 41.222656 45.265625 41.234375 45.339844 41.25 45.414062 C 41.277344 45.574219 41.308594 45.738281 41.339844 45.898438 C 41.347656 45.925781 41.351562 45.957031 41.359375 45.984375 C 41.390625 46.148438 41.421875 46.316406 41.460938 46.476562 C 41.460938 46.484375 41.464844 46.492188 41.464844 46.496094 C 41.484375 46.585938 41.503906 46.675781 41.523438 46.761719 C 41.546875 46.867188 41.574219 46.972656 41.597656 47.078125 C 41.621094 47.1875 41.648438 47.292969 41.675781 47.402344 C 41.699219 47.507812 41.730469 47.613281 41.757812 47.71875 C 41.800781 47.890625 41.847656 48.0625 41.894531 48.230469 C 41.902344 48.261719 41.910156 48.292969 41.917969 48.320312 C 41.917969 48.324219 41.921875 48.328125 41.921875 48.332031 C 41.96875 48.496094 42.015625 48.660156 42.070312 48.824219 C 42.09375 48.910156 42.121094 48.996094 42.148438 49.085938 C 42.191406 49.226562 42.238281 49.363281 42.285156 49.503906 C 42.3125 49.59375 42.34375 49.683594 42.375 49.773438 C 42.417969 49.910156 42.46875 50.050781 42.519531 50.1875 C 42.539062 50.246094 42.5625 50.308594 42.589844 50.371094 C 42.640625 50.527344 42.699219 50.683594 42.761719 50.835938 C 42.789062 50.90625 42.816406 50.980469 42.847656 51.050781 C 42.898438 51.175781 42.949219 51.300781 43.003906 51.425781 C 43.042969 51.527344 43.085938 51.628906 43.128906 51.730469 C 43.144531 51.765625 43.160156 51.796875 43.175781 51.832031 C 42.449219 52.210938 41.472656 52.253906 40.621094 51.921875 Z M 70.371094 48.304688 C 70.402344 48.1875 70.433594 48.066406 70.464844 47.945312 C 70.492188 47.835938 70.519531 47.730469 70.546875 47.621094 C 70.664062 47.144531 70.765625 46.660156 70.855469 46.171875 C 70.871094 46.101562 70.882812 46.03125 70.894531 45.960938 L 70.894531 45.953125 C 70.90625 45.902344 70.914062 45.855469 70.921875 45.804688 C 70.941406 45.691406 70.960938 45.578125 70.980469 45.460938 C 70.980469 45.445312 70.984375 45.429688 70.988281 45.414062 C 71.003906 45.296875 71.023438 45.183594 71.039062 45.066406 C 71.054688 44.964844 71.066406 44.863281 71.082031 44.757812 C 71.089844 44.683594 71.101562 44.613281 71.109375 44.535156 C 71.125 44.417969 71.140625 44.296875 71.152344 44.179688 C 71.167969 44.058594 71.179688 43.9375 71.191406 43.820312 C 71.21875 43.546875 71.242188 43.269531 71.261719 42.992188 C 71.269531 42.90625 71.273438 42.820312 71.277344 42.734375 C 71.316406 42.128906 71.335938 41.519531 71.335938 40.90625 L 71.335938 40.371094 C 71.894531 39.953125 72.449219 39.769531 72.996094 39.828125 C 73.625 39.890625 74.25 40.3125 74.671875 40.949219 C 75.03125 41.496094 75.261719 42.207031 75.375 43.117188 C 75.652344 45.328125 75.167969 47.585938 74.015625 49.484375 C 73.503906 50.328125 72.632812 51.433594 71.390625 51.921875 C 70.636719 52.214844 69.773438 52.21875 69.082031 51.941406 C 69.230469 51.605469 69.375 51.269531 69.507812 50.925781 C 69.539062 50.84375 69.570312 50.761719 69.601562 50.679688 C 69.636719 50.589844 69.671875 50.496094 69.703125 50.40625 C 69.734375 50.320312 69.765625 50.234375 69.796875 50.148438 C 70.007812 49.554688 70.195312 48.949219 70.363281 48.332031 C 70.367188 48.324219 70.371094 48.3125 70.371094 48.304688 Z M 47.578125 72.867188 C 47.332031 72.59375 47.804688 72.339844 48.039062 72.484375 C 50.457031 73.984375 52.878906 75.128906 55.796875 75.109375 C 58.664062 75.089844 61.082031 73.945312 63.46875 72.476562 C 63.742188 72.308594 64.3125 72.53125 64.003906 72.878906 C 60.078125 77.3125 51.519531 77.277344 47.578125 72.867188 Z M 63.0625 61.488281 C 63.058594 61.5 63.058594 61.511719 63.054688 61.523438 C 63.054688 61.535156 63.054688 61.546875 63.054688 61.558594 C 63.054688 61.558594 63.050781 61.5625 63.050781 61.566406 C 62.914062 62.683594 62.886719 63.8125 62.972656 64.929688 C 60.859375 66.03125 58.589844 66.761719 56.15625 66.851562 C 54.410156 66.914062 52.667969 66.691406 50.992188 66.199219 C 50.292969 65.996094 49.636719 65.726562 48.996094 65.429688 C 49.128906 64.140625 49.117188 62.835938 48.960938 61.542969 C 48.960938 61.539062 48.957031 61.53125 48.957031 61.527344 L 48.957031 61.523438 C 48.859375 60.738281 48.710938 59.964844 48.503906 59.203125 C 50.742188 61.023438 53.3125 62 56.046875 62 C 58.691406 62 61.230469 61.070312 63.460938 59.367188 C 63.28125 60.066406 63.148438 60.773438 63.0625 61.488281 Z M 81.652344 82.402344 C 81.46875 80.742188 81.191406 79.011719 80.050781 77.730469 C 79.300781 76.890625 78.296875 76.378906 77.324219 75.878906 L 77.21875 75.824219 C 74.34375 74.34375 71.535156 72.6875 68.875 70.894531 C 68.429688 70.597656 67.964844 70.269531 67.566406 69.917969 C 67.925781 68.4375 68.15625 66.925781 68.25 65.421875 C 68.304688 64.519531 68.269531 63.5 67.605469 62.757812 C 67.246094 62.355469 66.769531 62.117188 66.308594 61.917969 C 65.59375 61.613281 64.855469 61.371094 64.101562 61.195312 C 64.257812 60.160156 64.515625 59.132812 64.871094 58.148438 C 66.332031 56.726562 67.617188 54.9375 68.660156 52.839844 C 69.128906 53.039062 69.65625 53.140625 70.1875 53.140625 C 70.710938 53.140625 71.25 53.042969 71.753906 52.847656 C 72.941406 52.382812 74.015625 51.398438 74.863281 50 C 75.898438 48.296875 76.445312 46.328125 76.445312 44.34375 C 76.445312 43.894531 76.417969 43.441406 76.359375 42.996094 C 76.226562 41.929688 75.945312 41.082031 75.5 40.40625 C 74.917969 39.519531 74.019531 38.933594 73.097656 38.839844 C 72.5 38.777344 71.90625 38.902344 71.324219 39.203125 C 71.152344 25.808594 68.742188 19.8125 56.046875 19.8125 C 50.53125 19.8125 46.847656 20.972656 44.445312 23.460938 C 41.644531 26.359375 40.507812 31.101562 40.695312 39.207031 C 40.113281 38.902344 39.515625 38.777344 38.914062 38.839844 C 37.992188 38.933594 37.09375 39.519531 36.511719 40.40625 C 36.0625 41.082031 35.78125 41.929688 35.652344 42.996094 C 35.34375 45.421875 35.875 47.910156 37.144531 50 C 37.996094 51.398438 39.074219 52.382812 40.261719 52.847656 C 40.765625 53.042969 41.300781 53.140625 41.824219 53.140625 C 42.449219 53.140625 43.0625 53.003906 43.589844 52.734375 C 44.582031 54.773438 45.769531 56.511719 47.109375 57.910156 C 47.097656 57.980469 47.109375 58.054688 47.132812 58.128906 C 47.488281 59.121094 47.75 60.148438 47.910156 61.195312 C 47.15625 61.371094 46.417969 61.613281 45.703125 61.917969 C 45.242188 62.117188 44.765625 62.355469 44.40625 62.757812 C 43.742188 63.5 43.707031 64.519531 43.765625 65.417969 C 43.855469 66.933594 44.085938 68.449219 44.445312 69.917969 C 44.027344 70.285156 43.554688 70.613281 43.140625 70.894531 C 40.464844 72.691406 37.65625 74.347656 34.789062 75.824219 L 34.683594 75.878906 C 33.714844 76.375 32.707031 76.890625 31.960938 77.730469 C 30.820312 79.007812 30.546875 80.738281 30.359375 82.402344 C 29.261719 92.265625 29.292969 102.277344 30.4375 112.152344 C 30.441406 112.15625 30.441406 112.160156 30.441406 112.164062 C 30.441406 112.179688 30.445312 112.195312 30.449219 112.210938 C 30.449219 112.226562 30.453125 112.242188 30.460938 112.253906 C 30.480469 112.328125 30.519531 112.394531 30.574219 112.445312 C 30.582031 112.457031 30.59375 112.46875 30.605469 112.476562 C 30.617188 112.492188 30.632812 112.503906 30.648438 112.511719 C 30.664062 112.523438 30.675781 112.53125 30.691406 112.539062 C 30.699219 112.542969 30.707031 112.546875 30.714844 112.550781 C 33.46875 114.070312 36.378906 115.335938 39.378906 116.328125 C 44.679688 118.082031 50.269531 118.996094 55.816406 118.996094 C 56.914062 118.996094 58.007812 118.960938 59.101562 118.886719 C 63.636719 118.585938 68.160156 117.664062 72.496094 116.167969 C 75.566406 115.109375 78.542969 113.765625 81.367188 112.152344 L 81.371094 112.152344 C 81.429688 112.121094 81.480469 112.074219 81.519531 112.023438 C 81.53125 112.007812 81.542969 111.992188 81.550781 111.976562 C 81.554688 111.964844 81.558594 111.957031 81.5625 111.949219 C 81.578125 111.925781 81.585938 111.898438 81.597656 111.871094 C 81.597656 111.867188 81.601562 111.863281 81.601562 111.859375 C 81.605469 111.847656 81.605469 111.835938 81.609375 111.824219 C 81.613281 111.808594 81.613281 111.792969 81.617188 111.777344 C 81.617188 111.773438 81.617188 111.773438 81.617188 111.769531 C 82.722656 102.015625 82.734375 92.132812 81.652344 82.402344 " fill-opacity="1" fill-rule="nonzero"/></g></svg>