<svg xmlns="http://www.w3.org/2000/svg" xmlns:xlink="http://www.w3.org/1999/xlink" width="150" zoomAndPan="magnify" viewBox="0 0 112.5 112.499997" height="150" preserveAspectRatio="xMidYMid meet" version="1.0"><defs><clipPath id="30c497fd12"><path d="M 0 0 L 112.003906 0 L 112.003906 112.003906 L 0 112.003906 Z M 0 0 " clip-rule="nonzero"/></clipPath><clipPath id="0c8b967ab0"><path d="M 61 39 L 108 39 L 108 93 L 61 93 Z M 61 39 " clip-rule="nonzero"/></clipPath><clipPath id="3bbad34eb1"><path d="M 99.660156 96.507812 L 55.796875 87.402344 L 67.175781 32.570312 L 111.042969 41.675781 Z M 99.660156 96.507812 " clip-rule="nonzero"/></clipPath><clipPath id="a67414755b"><path d="M 99.660156 96.507812 L 55.796875 87.402344 L 67.175781 32.570312 L 111.042969 41.675781 Z M 99.660156 96.507812 " clip-rule="nonzero"/></clipPath><clipPath id="22f29e3422"><path d="M 85 65 L 87 65 L 87 67 L 85 67 Z M 85 65 " clip-rule="nonzero"/></clipPath><clipPath id="3fc074a869"><path d="M 99.660156 96.507812 L 55.796875 87.402344 L 67.175781 32.570312 L 111.042969 41.675781 Z M 99.660156 96.507812 " clip-rule="nonzero"/></clipPath><clipPath id="778b958cb9"><path d="M 99.660156 96.507812 L 55.796875 87.402344 L 67.175781 32.570312 L 111.042969 41.675781 Z M 99.660156 96.507812 " clip-rule="nonzero"/></clipPath><clipPath id="65e243d981"><path d="M 82 66 L 85 66 L 85 68 L 82 68 Z M 82 66 " clip-rule="nonzero"/></clipPath><clipPath id="ed6dbe5ad5"><path d="M 99.660156 96.507812 L 55.796875 87.402344 L 67.175781 32.570312 L 111.042969 41.675781 Z M 99.660156 96.507812 " clip-rule="nonzero"/></clipPath><clipPath id="286d38b9f3"><path d="M 99.660156 96.507812 L 55.796875 87.402344 L 67.175781 32.570312 L 111.042969 41.675781 Z M 99.660156 96.507812 " clip-rule="nonzero"/></clipPath><clipPath id="428be1a0c6"><path d="M 9 80 L 52 80 L 52 112.003906 L 9 112.003906 Z M 9 80 " clip-rule="nonzero"/></clipPath><clipPath id="c522318dab"><path d="M 63.105469 109.988281 L 34.078125 144.113281 L -8.578125 107.828125 L 20.449219 73.703125 Z M 63.105469 109.988281 " clip-rule="nonzero"/></clipPath><clipPath id="f3def6a2d3"><path d="M 63.105469 109.988281 L 34.078125 144.113281 L -8.578125 107.828125 L 20.449219 73.703125 Z M 63.105469 109.988281 " clip-rule="nonzero"/></clipPath><clipPath id="7584fa7eec"><path d="M 29 106 L 31 106 L 31 108 L 29 108 Z M 29 106 " clip-rule="nonzero"/></clipPath><clipPath id="8eaf00d075"><path d="M 63.105469 109.988281 L 34.078125 144.113281 L -8.578125 107.828125 L 20.449219 73.703125 Z M 63.105469 109.988281 " clip-rule="nonzero"/></clipPath><clipPath id="ce89a61cdf"><path d="M 63.105469 109.988281 L 34.078125 144.113281 L -8.578125 107.828125 L 20.449219 73.703125 Z M 63.105469 109.988281 " clip-rule="nonzero"/></clipPath><clipPath id="7837b3342f"><path d="M 29 109 L 31 109 L 31 111 L 29 111 Z M 29 109 " clip-rule="nonzero"/></clipPath><clipPath id="289ce9bc29"><path d="M 63.105469 109.988281 L 34.078125 144.113281 L -8.578125 107.828125 L 20.449219 73.703125 Z M 63.105469 109.988281 " clip-rule="nonzero"/></clipPath><clipPath id="d43dc61bf3"><path d="M 63.105469 109.988281 L 34.078125 144.113281 L -8.578125 107.828125 L 20.449219 73.703125 Z M 63.105469 109.988281 " clip-rule="nonzero"/></clipPath><clipPath id="cb1dc08408"><path d="M 0 0 L 44 0 L 44 31 L 0 31 Z M 0 0 " clip-rule="nonzero"/></clipPath><clipPath id="aa850706c0"><path d="M 35.21875 35.007812 L -8.648438 25.902344 L 2.734375 -28.929688 L 46.601562 -19.824219 Z M 35.21875 35.007812 " clip-rule="nonzero"/></clipPath><clipPath id="a892690bd1"><path d="M 35.21875 35.007812 L -8.648438 25.902344 L 2.734375 -28.929688 L 46.601562 -19.824219 Z M 35.21875 35.007812 " clip-rule="nonzero"/></clipPath><clipPath id="a7d8ff70d3"><path d="M 20 3 L 22 3 L 22 6 L 20 6 Z M 20 3 " clip-rule="nonzero"/></clipPath><clipPath id="8adaea6d32"><path d="M 35.21875 35.007812 L -8.648438 25.902344 L 2.734375 -28.929688 L 46.601562 -19.824219 Z M 35.21875 35.007812 " clip-rule="nonzero"/></clipPath><clipPath id="85082ce0cb"><path d="M 35.21875 35.007812 L -8.648438 25.902344 L 2.734375 -28.929688 L 46.601562 -19.824219 Z M 35.21875 35.007812 " clip-rule="nonzero"/></clipPath><clipPath id="036df782c1"><path d="M 18 4 L 21 4 L 21 7 L 18 7 Z M 18 4 " clip-rule="nonzero"/></clipPath><clipPath id="a941edabea"><path d="M 35.21875 35.007812 L -8.648438 25.902344 L 2.734375 -28.929688 L 46.601562 -19.824219 Z M 35.21875 35.007812 " clip-rule="nonzero"/></clipPath><clipPath id="08b46d7360"><path d="M 35.21875 35.007812 L -8.648438 25.902344 L 2.734375 -28.929688 L 46.601562 -19.824219 Z M 35.21875 35.007812 " clip-rule="nonzero"/></clipPath><clipPath id="399419e057"><path d="M 29.554688 21.769531 L 82.570312 21.769531 L 82.570312 112.003906 L 29.554688 112.003906 Z M 29.554688 21.769531 " clip-rule="nonzero"/></clipPath><clipPath id="d216d095bd"><path d="M 30 32 L 82 32 L 82 112.003906 L 30 112.003906 Z M 30 32 " clip-rule="nonzero"/></clipPath><clipPath id="21186d69e4"><path d="M 29.554688 21.769531 L 82.570312 21.769531 L 82.570312 112.003906 L 29.554688 112.003906 Z M 29.554688 21.769531 " clip-rule="nonzero"/></clipPath></defs><g clip-path="url(#30c497fd12)"><path fill="#ffffff" d="M 0 0 L 112.003906 0 L 112.003906 112.003906 L 0 112.003906 Z M 0 0 " fill-opacity="1" fill-rule="nonzero"/><path fill="#ddd92a" d="M 0 0 L 112.003906 0 L 112.003906 112.003906 L 0 112.003906 Z M 0 0 " fill-opacity="1" fill-rule="nonzero"/></g><g clip-path="url(#0c8b967ab0)"><g clip-path="url(#3bbad34eb1)"><g clip-path="url(#a67414755b)"><path fill="#696714" d="M 62.332031 62.859375 C 67.980469 63.761719 73.402344 65.449219 78.765625 67.332031 C 73.679688 69.769531 68.472656 71.96875 63.285156 74.066406 C 62.378906 74.433594 63.050781 75.792969 63.949219 75.429688 C 69.589844 73.148438 75.261719 70.746094 80.777344 68.046875 C 82.085938 68.515625 83.394531 68.992188 84.699219 69.472656 C 82.242188 76.679688 80.546875 84.015625 81.019531 91.644531 C 81.082031 92.609375 82.597656 92.6875 82.535156 91.710938 C 82.101562 84.609375 83.566406 77.769531 85.773438 71.058594 C 87.671875 75.75 89.890625 80.296875 92.855469 84.527344 C 93.417969 85.328125 94.5625 84.332031 94.003906 83.539062 C 91.101562 79.410156 88.917969 74.941406 87.054688 70.328125 C 92.265625 72.210938 97.503906 74.003906 102.929688 75.164062 C 103.875 75.363281 104.351562 73.925781 103.398438 73.71875 C 97.65625 72.484375 92.125 70.570312 86.617188 68.585938 C 87.148438 67.085938 87.710938 65.589844 88.292969 64.097656 C 95.140625 60.226562 101.601562 55.730469 107.265625 50.207031 C 107.964844 49.527344 106.960938 48.394531 106.261719 49.074219 C 101.117188 54.074219 95.324219 58.226562 89.1875 61.832031 C 92.09375 54.546875 95.257812 47.328125 97.148438 39.992188 C 97.390625 39.050781 95.957031 38.570312 95.707031 39.519531 C 93.652344 47.40625 90.152344 55.171875 87.074219 63.035156 C 86.316406 63.460938 85.554688 63.878906 84.789062 64.289062 C 82.882812 58.878906 81.171875 53.378906 79.0625 48.066406 C 78.699219 47.15625 77.335938 47.820312 77.695312 48.726562 C 79.835938 54.070312 81.5625 59.574219 83.484375 64.984375 C 82.539062 65.476562 81.589844 65.957031 80.632812 66.429688 C 74.683594 64.316406 68.6875 62.371094 62.414062 61.347656 C 61.449219 61.191406 61.371094 62.707031 62.332031 62.859375 Z M 62.332031 62.859375 " fill-opacity="1" fill-rule="nonzero"/></g></g></g><g clip-path="url(#22f29e3422)"><g clip-path="url(#3fc074a869)"><g clip-path="url(#778b958cb9)"><path fill="#696714" d="M 86.226562 65.242188 C 86.039062 65.738281 85.851562 66.234375 85.667969 66.734375 C 85.546875 66.402344 85.425781 66.066406 85.304688 65.734375 C 85.613281 65.570312 85.917969 65.410156 86.226562 65.242188 Z M 86.226562 65.242188 " fill-opacity="1" fill-rule="nonzero"/></g></g></g><g clip-path="url(#65e243d981)"><g clip-path="url(#ed6dbe5ad5)"><g clip-path="url(#286d38b9f3)"><path fill="#696714" d="M 84.003906 66.425781 C 84.175781 66.894531 84.347656 67.363281 84.519531 67.828125 C 83.878906 67.597656 83.242188 67.363281 82.601562 67.136719 C 83.070312 66.898438 83.539062 66.667969 84.003906 66.425781 Z M 84.003906 66.425781 " fill-opacity="1" fill-rule="nonzero"/></g></g></g><g clip-path="url(#428be1a0c6)"><g clip-path="url(#c522318dab)"><g clip-path="url(#f3def6a2d3)"><path fill="#696714" d="M 15.679688 126.605469 C 19.179688 122.082031 23.257812 118.132812 27.484375 114.328125 C 27.183594 119.964844 26.617188 125.585938 25.96875 131.144531 C 25.855469 132.117188 27.371094 132.179688 27.484375 131.214844 C 28.1875 125.171875 28.796875 119.042969 29.074219 112.90625 C 30.117188 111.984375 31.164062 111.066406 32.207031 110.148438 C 37.351562 115.765625 42.980469 120.769531 49.902344 124.011719 C 50.777344 124.421875 51.574219 123.128906 50.6875 122.714844 C 44.246094 119.6875 38.949219 115.125 34.113281 109.96875 C 39.140625 110.550781 44.195312 110.785156 49.332031 110.214844 C 50.304688 110.105469 49.976562 108.621094 49.015625 108.730469 C 43.996094 109.300781 39.03125 109.074219 34.085938 108.492188 C 38.242188 104.824219 42.324219 101.085938 45.945312 96.882812 C 46.574219 96.148438 45.542969 95.042969 44.902344 95.78125 C 41.066406 100.222656 36.734375 104.164062 32.351562 108.042969 C 31.289062 106.855469 30.246094 105.644531 29.214844 104.421875 C 29.105469 96.554688 28.257812 88.730469 26.128906 81.109375 C 25.867188 80.167969 24.390625 80.507812 24.652344 81.449219 C 26.570312 88.359375 27.4375 95.433594 27.65625 102.546875 C 22.65625 96.503906 17.839844 90.265625 12.3125 85.085938 C 11.601562 84.421875 10.492188 85.453125 11.203125 86.125 C 17.136719 91.710938 22.273438 98.507812 27.699219 104.976562 C 27.710938 105.847656 27.710938 106.714844 27.703125 107.585938 C 22.042969 106.664062 16.394531 105.527344 10.71875 104.832031 C 9.75 104.710938 9.679688 106.230469 10.644531 106.34375 C 16.359375 107.03125 22.019531 108.152344 27.6875 109.066406 C 27.664062 110.128906 27.632812 111.195312 27.589844 112.261719 C 22.882812 116.464844 18.300781 120.796875 14.390625 125.808594 C 13.789062 126.578125 15.085938 127.375 15.679688 126.605469 Z M 15.679688 126.605469 " fill-opacity="1" fill-rule="nonzero"/></g></g></g><g clip-path="url(#7584fa7eec)"><g clip-path="url(#8eaf00d075)"><g clip-path="url(#ce89a61cdf)"><path fill="#696714" d="M 29.230469 106.785156 C 29.574219 107.1875 29.921875 107.585938 30.269531 107.984375 C 29.917969 107.933594 29.570312 107.882812 29.21875 107.828125 C 29.222656 107.480469 29.230469 107.132812 29.230469 106.785156 Z M 29.230469 106.785156 " fill-opacity="1" fill-rule="nonzero"/></g></g></g><g clip-path="url(#7837b3342f)"><g clip-path="url(#289ce9bc29)"><g clip-path="url(#d43dc61bf3)"><path fill="#696714" d="M 29.203125 109.300781 C 29.695312 109.375 30.1875 109.445312 30.679688 109.519531 C 30.171875 109.96875 29.660156 110.417969 29.152344 110.871094 C 29.167969 110.34375 29.191406 109.824219 29.203125 109.300781 Z M 29.203125 109.300781 " fill-opacity="1" fill-rule="nonzero"/></g></g></g><g clip-path="url(#cb1dc08408)"><g clip-path="url(#aa850706c0)"><g clip-path="url(#a892690bd1)"><path fill="#696714" d="M -2.113281 1.363281 C 3.539062 2.265625 8.957031 3.949219 14.324219 5.832031 C 9.234375 8.269531 4.03125 10.472656 -1.15625 12.566406 C -2.066406 12.933594 -1.394531 14.296875 -0.492188 13.929688 C 5.148438 11.648438 10.816406 9.246094 16.335938 6.546875 C 17.644531 7.015625 18.949219 7.496094 20.257812 7.972656 C 17.796875 15.179688 16.101562 22.515625 16.578125 30.144531 C 16.640625 31.109375 18.152344 31.191406 18.09375 30.210938 C 17.660156 23.109375 19.125 16.273438 21.328125 9.558594 C 23.230469 14.25 25.449219 18.796875 28.410156 23.027344 C 28.972656 23.828125 30.117188 22.832031 29.5625 22.039062 C 26.65625 17.910156 24.472656 13.445312 22.609375 8.828125 C 27.820312 10.710938 33.0625 12.503906 38.488281 13.664062 C 39.433594 13.863281 39.910156 12.425781 38.953125 12.222656 C 33.214844 10.984375 27.679688 9.070312 22.171875 7.085938 C 22.707031 5.585938 23.269531 4.089844 23.847656 2.597656 C 30.699219 -1.273438 37.15625 -5.769531 42.824219 -11.289062 C 43.523438 -11.972656 42.519531 -13.105469 41.816406 -12.425781 C 36.671875 -7.425781 30.882812 -3.273438 24.742188 0.332031 C 27.648438 -6.953125 30.816406 -14.171875 32.707031 -21.507812 C 32.949219 -22.449219 31.511719 -22.925781 31.265625 -21.980469 C 29.207031 -14.09375 25.710938 -6.328125 22.632812 1.535156 C 21.875 1.960938 21.113281 2.378906 20.34375 2.789062 C 18.4375 -2.621094 16.726562 -8.121094 14.617188 -13.433594 C 14.257812 -14.34375 12.890625 -13.675781 13.253906 -12.773438 C 15.390625 -7.429688 17.121094 -1.925781 19.039062 3.484375 C 18.097656 3.976562 17.144531 4.457031 16.191406 4.933594 C 10.242188 2.816406 4.242188 0.875 -2.03125 -0.148438 C -2.992188 -0.308594 -3.070312 1.207031 -2.113281 1.363281 Z M -2.113281 1.363281 " fill-opacity="1" fill-rule="nonzero"/></g></g></g><g clip-path="url(#a7d8ff70d3)"><g clip-path="url(#8adaea6d32)"><g clip-path="url(#85082ce0cb)"><path fill="#696714" d="M 21.78125 3.746094 C 21.59375 4.242188 21.410156 4.738281 21.226562 5.234375 C 21.105469 4.902344 20.980469 4.570312 20.863281 4.234375 C 21.167969 4.074219 21.476562 3.910156 21.78125 3.746094 Z M 21.78125 3.746094 " fill-opacity="1" fill-rule="nonzero"/></g></g></g><g clip-path="url(#036df782c1)"><g clip-path="url(#a941edabea)"><g clip-path="url(#08b46d7360)"><path fill="#696714" d="M 19.5625 4.925781 C 19.730469 5.394531 19.902344 5.863281 20.078125 6.328125 C 19.4375 6.097656 18.800781 5.867188 18.160156 5.636719 C 18.628906 5.398438 19.09375 5.167969 19.5625 4.925781 Z M 19.5625 4.925781 " fill-opacity="1" fill-rule="nonzero"/></g></g></g><g clip-path="url(#399419e057)"><path fill="#2d2a32" d="M 80.894531 86.886719 C 80.761719 84.679688 80.605469 82.175781 79.484375 80.011719 C 77.996094 77.15625 75.1875 75.5 72.46875 73.902344 C 70.851562 72.949219 69.175781 71.964844 67.816406 70.734375 C 67.816406 70.660156 67.816406 70.582031 67.816406 70.507812 C 67.816406 70.015625 67.75 69.519531 67.628906 69.019531 C 67.46875 68.34375 67.199219 67.675781 66.835938 67.066406 C 65.957031 65.574219 64.660156 64.421875 63.363281 63.40625 C 63.425781 62.832031 63.5 62.25 63.578125 61.675781 C 63.617188 61.375 63.664062 61.0625 63.714844 60.726562 C 66.125 58.851562 67.925781 56.238281 68.832031 53.304688 C 70.402344 53.496094 72.132812 52.769531 73.261719 51.414062 C 74.363281 50.097656 74.96875 48.28125 75.0625 46.015625 C 75.140625 44.132812 74.792969 42.707031 73.996094 41.667969 C 73.261719 40.710938 71.914062 40.082031 70.695312 40.292969 C 71.078125 38.800781 71.449219 37 71.503906 35.125 C 71.605469 31.703125 70.539062 28.605469 68.570312 26.621094 C 66.59375 24.632812 63.511719 23.855469 61.078125 24.683594 C 60.015625 23.167969 58.054688 22.132812 55.941406 22.011719 C 53.511719 21.871094 51.152344 22.75 48.949219 23.660156 C 46.628906 24.617188 44.21875 25.710938 42.457031 27.605469 C 40.324219 29.910156 39.246094 33.4375 39.507812 37.28125 C 39.574219 38.234375 39.710938 39.214844 39.925781 40.257812 C 38.953125 40.328125 37.953125 40.855469 37.328125 41.667969 C 36.53125 42.707031 36.183594 44.128906 36.265625 46.015625 C 36.359375 48.28125 36.960938 50.097656 38.058594 51.410156 C 39.191406 52.769531 40.921875 53.492188 42.492188 53.304688 C 43.503906 56.566406 45.644531 59.464844 48.441406 61.328125 C 48.472656 61.574219 48.507812 61.816406 48.539062 62.0625 C 48.601562 62.542969 48.660156 62.988281 48.703125 63.40625 C 47.40625 64.421875 46.109375 65.574219 45.226562 67.066406 C 44.5625 68.191406 44.210938 69.515625 44.25 70.738281 C 42.886719 71.964844 41.21875 72.949219 39.597656 73.902344 C 36.878906 75.5 34.070312 77.152344 32.582031 80.011719 C 31.464844 82.167969 31.308594 84.675781 31.171875 86.886719 L 29.578125 112.855469 C 29.566406 113.046875 29.667969 113.226562 29.832031 113.316406 C 36.730469 117.125 44.355469 119.328125 52.148438 119.800781 C 52.503906 119.820312 52.855469 119.839844 53.210938 119.851562 C 53.914062 119.882812 54.617188 119.894531 55.320312 119.894531 C 56.117188 119.894531 56.917969 119.878906 57.71875 119.839844 C 59.554688 119.757812 61.386719 119.574219 63.199219 119.292969 C 63.472656 119.253906 63.753906 119.210938 64.023438 119.164062 C 66.84375 118.6875 69.628906 117.980469 72.339844 117.050781 C 72.664062 116.941406 72.992188 116.824219 73.316406 116.707031 C 76.390625 115.585938 79.371094 114.183594 82.199219 112.507812 C 82.355469 112.414062 82.453125 112.238281 82.4375 112.054688 L 80.894531 86.886719 " fill-opacity="1" fill-rule="nonzero"/></g><g clip-path="url(#d216d095bd)"><path fill="#edf4ed" d="M 52.140625 84.960938 C 52.128906 84.804688 52.113281 84.648438 52.101562 84.492188 C 51.925781 82.679688 51.589844 80.863281 50.945312 79.15625 C 50.269531 77.359375 49.113281 75.835938 48.3125 74.105469 C 47.414062 72.164062 47.117188 69.167969 49.023438 67.820312 C 48.984375 66.734375 48.914062 65.652344 48.816406 64.574219 C 47.769531 65.429688 46.765625 66.394531 46.074219 67.566406 C 45.613281 68.34375 45.328125 69.226562 45.253906 70.082031 C 45.648438 72.363281 46.644531 74.460938 48.378906 76.046875 C 48.617188 76.265625 48.15625 76.539062 47.953125 76.386719 C 46.339844 75.195312 45.160156 73.558594 44.671875 71.675781 C 43.289062 72.871094 41.667969 73.824219 40.09375 74.75 C 37.378906 76.347656 34.8125 77.859375 33.457031 80.46875 C 32.433594 82.4375 32.285156 84.832031 32.152344 86.949219 L 30.578125 112.605469 C 33.164062 114.011719 35.847656 115.1875 38.601562 116.128906 C 38.492188 114.976562 38.664062 113.703125 38.675781 112.597656 C 38.6875 111.167969 38.703125 109.734375 38.714844 108.304688 C 38.742188 105.375 38.773438 102.445312 38.804688 99.515625 C 38.839844 96.585938 38.871094 93.660156 38.90625 90.726562 C 38.921875 89.253906 38.96875 87.78125 38.96875 86.308594 C 38.96875 84.867188 38.542969 82.59375 36.585938 82.902344 C 36.222656 82.957031 36.078125 82.535156 36.421875 82.386719 C 37.40625 81.957031 38.464844 82.339844 39.160156 83.117188 C 40.011719 84.070312 40.0625 85.410156 40.070312 86.625 C 40.101562 89.996094 40.03125 93.371094 40.003906 96.742188 C 39.972656 100.1875 39.949219 103.636719 39.914062 107.085938 C 39.898438 108.777344 39.878906 110.46875 39.863281 112.160156 C 39.851562 113.542969 40.042969 115.136719 39.789062 116.519531 C 43.796875 117.78125 47.949219 118.554688 52.148438 118.8125 C 52.160156 115.652344 52.195312 112.488281 52.207031 109.328125 C 52.222656 105.101562 52.246094 100.878906 52.257812 96.652344 C 52.273438 93.273438 52.425781 89.84375 52.246094 86.457031 C 52.21875 85.960938 52.183594 85.460938 52.140625 84.960938 Z M 63.160156 72.308594 C 63.601562 71.273438 63.726562 69.808594 63.015625 68.90625 C 63 69.648438 62.996094 70.390625 63.007812 71.128906 C 63.019531 71.402344 62.800781 71.625 62.53125 71.632812 L 62.519531 71.632812 C 62.25 71.632812 62.035156 71.417969 62.027344 71.148438 C 62.007812 70.183594 62.015625 69.210938 62.042969 68.242188 C 62.042969 68.164062 62.046875 68.085938 62.050781 68.007812 C 62.101562 66.523438 62.199219 65.042969 62.355469 63.574219 C 62.425781 62.898438 62.507812 62.214844 62.605469 61.539062 C 62.605469 61.53125 62.605469 61.519531 62.609375 61.507812 C 62.3125 61.699219 62.011719 61.871094 61.710938 62.035156 C 59.898438 63.003906 57.816406 63.578125 55.6875 63.699219 L 55.636719 63.699219 C 53.507812 63.578125 51.425781 63.003906 49.613281 62.035156 C 49.582031 62.019531 49.550781 62.003906 49.523438 61.988281 C 49.601562 62.558594 49.660156 63.078125 49.707031 63.570312 L 49.707031 63.574219 C 49.84375 64.847656 49.941406 66.128906 49.992188 67.414062 C 50 67.542969 50.003906 67.671875 50.007812 67.796875 C 50.046875 68.914062 50.058594 70.03125 50.039062 71.148438 C 50.035156 71.414062 49.816406 71.632812 49.546875 71.632812 L 49.539062 71.632812 C 49.269531 71.625 49.050781 71.402344 49.058594 71.128906 C 49.070312 70.363281 49.070312 69.59375 49.050781 68.820312 C 47.347656 71.511719 50.410156 75.21875 51.554688 77.65625 C 52.804688 80.320312 53.234375 83.242188 53.375 86.164062 C 53.679688 86.460938 53.992188 86.753906 54.308594 87.039062 C 54.984375 87.652344 55.792969 88.515625 56.703125 87.742188 C 57.890625 86.730469 58.960938 85.527344 59.960938 84.332031 C 60.023438 84.257812 60.085938 84.179688 60.148438 84.101562 C 60.003906 81.5 60.070312 78.851562 60.996094 76.386719 C 61.542969 74.929688 62.554688 73.730469 63.160156 72.308594 Z M 37.980469 44.554688 C 38.761719 44.140625 40.203125 45.578125 39.640625 46.382812 C 39.558594 46.503906 39.308594 46.59375 39.195312 46.703125 C 38.851562 47.023438 38.679688 47.421875 38.660156 47.894531 C 38.625 48.972656 39.566406 49.917969 40.59375 50.074219 C 40.816406 50.109375 41.125 49.832031 40.914062 49.625 C 40.097656 48.824219 38.769531 48.105469 40.078125 46.945312 C 40.578125 46.5 40.71875 46.167969 40.382812 45.515625 C 39.929688 44.648438 38.789062 43.46875 37.828125 44.414062 C 37.730469 44.511719 37.886719 44.605469 37.980469 44.554688 Z M 45.582031 39.84375 C 45.582031 40.800781 46.980469 39.84375 48.703125 39.84375 C 50.425781 39.84375 51.820312 40.800781 51.820312 39.84375 C 51.820312 38.886719 50.425781 38.105469 48.703125 38.105469 C 46.980469 38.105469 45.582031 38.886719 45.582031 39.84375 Z M 51.449219 54.0625 C 53.492188 56.738281 58.058594 57.191406 60.125 54.230469 C 60.507812 53.6875 59.695312 53.414062 59.304688 53.707031 C 58.179688 54.5625 56.992188 55.222656 55.535156 55.167969 C 54.253906 55.121094 53.074219 54.542969 52.140625 53.683594 C 51.902344 53.460938 51.1875 53.714844 51.449219 54.0625 Z M 52.960938 50.332031 C 53.601562 51.667969 55.363281 51.953125 56.390625 50.902344 C 56.820312 50.464844 55.996094 50.179688 55.652344 50.414062 C 54.605469 51.128906 53.71875 49.851562 53.695312 48.910156 C 53.675781 47.96875 54.363281 47.339844 54.480469 46.476562 C 54.5 46.339844 54.339844 46.300781 54.242188 46.347656 C 52.914062 46.988281 52.335938 49.042969 52.960938 50.332031 Z M 58.882812 39.671875 C 58.882812 40.628906 60.277344 39.671875 62.003906 39.671875 C 63.726562 39.671875 65.125 40.628906 65.125 39.671875 C 65.125 38.714844 63.726562 37.9375 62.003906 37.9375 C 60.277344 37.9375 58.882812 38.714844 58.882812 39.671875 Z M 63.03125 44.710938 C 63.03125 43.429688 62.566406 42.394531 62.003906 42.394531 C 61.433594 42.394531 60.972656 43.429688 60.972656 44.710938 C 60.972656 45.988281 61.433594 47.023438 62.003906 47.023438 C 62.566406 47.023438 63.03125 45.988281 63.03125 44.710938 Z M 49.683594 44.710938 C 49.683594 43.429688 49.226562 42.394531 48.660156 42.394531 C 48.09375 42.394531 47.636719 43.429688 47.636719 44.710938 C 47.636719 45.988281 48.09375 47.023438 48.660156 47.023438 C 49.226562 47.023438 49.683594 45.988281 49.683594 44.710938 Z M 70.148438 46.417969 C 70.164062 46.960938 70.375 47.210938 70.671875 47.609375 C 70.980469 48.015625 71.183594 48.296875 71.003906 48.820312 C 70.878906 49.203125 70.582031 49.503906 70.433594 49.882812 C 70.324219 50.160156 70.683594 50.289062 70.890625 50.15625 C 71.652344 49.667969 72.277344 48.671875 71.890625 47.746094 C 71.636719 47.140625 70.929688 46.878906 71.019531 46.113281 C 71.113281 45.328125 71.792969 44.957031 72.09375 44.300781 C 72.171875 44.125 71.960938 43.988281 71.800781 44.054688 C 70.914062 44.429688 70.125 45.421875 70.148438 46.417969 Z M 37.246094 45.972656 C 37.179688 44.328125 37.457031 43.113281 38.109375 42.265625 C 38.59375 41.632812 39.410156 41.234375 40.144531 41.238281 C 40.4375 42.429688 40.800781 43.609375 41.1875 44.765625 C 41.28125 45.039062 41.371094 45.308594 41.464844 45.582031 C 41.636719 46.082031 41.8125 46.578125 41.988281 47.070312 C 42.058594 47.273438 42.246094 47.398438 42.449219 47.398438 C 42.503906 47.398438 42.5625 47.390625 42.617188 47.371094 C 42.871094 47.28125 43.003906 47 42.914062 46.742188 C 42.644531 45.976562 42.371094 45.195312 42.105469 44.410156 C 42.886719 41.71875 43.660156 39.042969 44.710938 36.429688 C 45.183594 35.257812 45.726562 33.925781 46.769531 33.136719 C 48.214844 32.039062 49.941406 33.148438 51.417969 33.601562 C 54.164062 34.4375 56.898438 34.105469 59.519531 33.035156 C 60.996094 32.433594 62.550781 31.824219 63.976562 32.890625 C 65.121094 33.753906 65.871094 35.160156 66.46875 36.4375 C 67.941406 39.585938 68.300781 42.941406 68.027344 46.371094 C 67.972656 47.082031 69.136719 46.914062 69.246094 46.316406 C 69.382812 45.589844 69.460938 44.855469 69.488281 44.113281 C 69.558594 44.054688 69.613281 43.976562 69.640625 43.882812 C 69.875 43.125 70.136719 42.277344 70.382812 41.429688 C 71.308594 40.9375 72.589844 41.449219 73.210938 42.265625 C 73.867188 43.117188 74.148438 44.328125 74.074219 45.972656 C 73.992188 48.019531 73.46875 49.636719 72.507812 50.78125 C 71.632812 51.828125 70.289062 52.425781 69.089844 52.339844 C 69.253906 51.679688 69.363281 51.007812 69.421875 50.339844 C 69.445312 50.074219 69.246094 49.832031 68.972656 49.808594 C 68.710938 49.78125 68.464844 49.984375 68.441406 50.253906 C 68.367188 51.042969 68.226562 51.835938 68.007812 52.609375 L 68.007812 52.617188 C 67.597656 54.097656 66.941406 55.5 66.09375 56.757812 C 65.238281 58.019531 64.179688 59.140625 62.964844 60.0625 C 62.414062 60.480469 61.835938 60.851562 61.246094 61.167969 C 59.566406 62.066406 57.636719 62.601562 55.660156 62.714844 C 53.691406 62.601562 51.757812 62.066406 50.078125 61.167969 C 49.753906 60.992188 49.445312 60.8125 49.167969 60.625 C 49.167969 60.625 49.164062 60.625 49.164062 60.625 C 46.351562 58.8125 44.222656 55.890625 43.316406 52.613281 C 43.3125 52.605469 43.3125 52.601562 43.3125 52.59375 C 43.097656 51.820312 42.953125 51.03125 42.882812 50.253906 C 42.859375 49.984375 42.617188 49.78125 42.347656 49.808594 C 42.078125 49.832031 41.878906 50.074219 41.902344 50.339844 C 41.964844 51.007812 42.070312 51.675781 42.230469 52.339844 C 41.03125 52.425781 39.6875 51.828125 38.816406 50.78125 C 37.859375 49.636719 37.332031 48.019531 37.246094 45.972656 Z M 73.433594 115.613281 C 73.476562 114.527344 73.347656 113.382812 73.339844 112.355469 C 73.328125 110.859375 73.3125 109.363281 73.296875 107.867188 C 73.269531 104.9375 73.238281 102.011719 73.203125 99.085938 C 73.171875 96.15625 73.140625 93.230469 73.105469 90.304688 C 73.09375 88.90625 73.03125 87.507812 73.046875 86.113281 C 73.066406 84.65625 73.515625 82.609375 75.414062 82.90625 C 75.671875 82.945312 75.996094 82.554688 75.675781 82.410156 C 74.769531 81.996094 73.839844 82.261719 73.109375 82.917969 C 72.105469 83.828125 71.964844 85.199219 71.945312 86.476562 C 71.886719 89.84375 71.980469 93.21875 72.007812 96.585938 C 72.035156 99.972656 72.0625 103.355469 72.101562 106.738281 C 72.113281 108.433594 72.132812 110.125 72.148438 111.816406 C 72.15625 112.726562 72.167969 113.640625 72.175781 114.546875 C 72.179688 115.042969 72.144531 115.5625 72.171875 116.066406 C 69.511719 116.988281 66.777344 117.691406 64.007812 118.167969 C 63.527344 110.722656 62.828125 103.292969 62.203125 95.859375 C 61.886719 92.074219 61.492188 88.28125 61.246094 84.484375 C 61.246094 84.457031 61.242188 84.425781 61.242188 84.398438 C 61.207031 83.851562 61.179688 83.308594 61.171875 82.769531 L 61.171875 82.765625 C 61.113281 79.890625 61.476562 77.097656 62.953125 74.523438 C 63.707031 73.203125 64.601562 71.757812 64.277344 70.171875 C 64.113281 69.347656 63.695312 68.652344 63.03125 68.261719 C 63.066406 67.035156 63.136719 65.800781 63.246094 64.574219 C 64.296875 65.429688 65.300781 66.398438 65.992188 67.566406 C 66.558594 68.53125 66.863281 69.660156 66.828125 70.691406 C 66.648438 71.140625 66.449219 71.582031 66.199219 72.007812 C 65.597656 73.027344 64.792969 73.835938 63.894531 74.59375 C 63.605469 74.835938 64.097656 75.058594 64.316406 74.933594 C 65.554688 74.238281 66.71875 73.042969 67.386719 71.671875 C 68.773438 72.867188 70.394531 73.824219 71.96875 74.75 C 74.6875 76.351562 77.253906 77.859375 78.609375 80.464844 C 79.632812 82.445312 79.78125 84.835938 79.910156 86.949219 L 81.433594 111.8125 C 78.878906 113.308594 76.199219 114.578125 73.433594 115.613281 " fill-opacity="1" fill-rule="nonzero"/></g><g clip-path="url(#21186d69e4)"><path fill="#2d2a32" d="M 40.914062 49.625 C 41.125 49.832031 40.816406 50.109375 40.59375 50.074219 C 39.570312 49.917969 38.625 48.972656 38.664062 47.894531 C 38.679688 47.421875 38.851562 47.023438 39.195312 46.703125 C 39.308594 46.59375 39.558594 46.503906 39.640625 46.382812 C 40.207031 45.578125 38.765625 44.140625 37.984375 44.554688 C 37.890625 44.605469 37.730469 44.511719 37.832031 44.414062 C 38.792969 43.46875 39.929688 44.648438 40.382812 45.515625 C 40.71875 46.167969 40.578125 46.5 40.078125 46.945312 C 38.769531 48.105469 40.101562 48.824219 40.914062 49.625 Z M 49.683594 44.710938 C 49.683594 45.988281 49.226562 47.023438 48.660156 47.023438 C 48.09375 47.023438 47.636719 45.988281 47.636719 44.710938 C 47.636719 43.429688 48.09375 42.394531 48.660156 42.394531 C 49.226562 42.394531 49.683594 43.429688 49.683594 44.710938 Z M 48.703125 39.84375 C 46.980469 39.84375 45.582031 40.800781 45.582031 39.84375 C 45.582031 38.886719 46.980469 38.105469 48.703125 38.105469 C 50.425781 38.105469 51.820312 38.886719 51.820312 39.84375 C 51.820312 40.800781 50.425781 39.84375 48.703125 39.84375 Z M 52.960938 50.332031 C 52.339844 49.042969 52.914062 46.988281 54.242188 46.347656 C 54.339844 46.300781 54.5 46.339844 54.480469 46.476562 C 54.363281 47.339844 53.675781 47.96875 53.695312 48.910156 C 53.71875 49.851562 54.609375 51.128906 55.652344 50.414062 C 55.996094 50.179688 56.820312 50.464844 56.390625 50.902344 C 55.363281 51.953125 53.601562 51.667969 52.960938 50.332031 Z M 52.140625 53.683594 C 53.078125 54.542969 54.253906 55.121094 55.539062 55.167969 C 56.992188 55.222656 58.179688 54.5625 59.308594 53.707031 C 59.695312 53.414062 60.507812 53.6875 60.125 54.230469 C 58.058594 57.191406 53.492188 56.738281 51.449219 54.0625 C 51.1875 53.714844 51.902344 53.460938 52.140625 53.683594 Z M 63.03125 44.710938 C 63.03125 45.988281 62.570312 47.023438 62.003906 47.023438 C 61.433594 47.023438 60.976562 45.988281 60.976562 44.710938 C 60.976562 43.429688 61.433594 42.394531 62.003906 42.394531 C 62.570312 42.394531 63.03125 43.429688 63.03125 44.710938 Z M 58.882812 39.671875 C 58.882812 38.714844 60.277344 37.9375 62.003906 37.9375 C 63.726562 37.9375 65.125 38.714844 65.125 39.671875 C 65.125 40.628906 63.726562 39.671875 62.003906 39.671875 C 60.277344 39.671875 58.882812 40.628906 58.882812 39.671875 Z M 70.671875 47.609375 C 70.378906 47.210938 70.164062 46.960938 70.148438 46.417969 C 70.125 45.421875 70.914062 44.429688 71.804688 44.054688 C 71.964844 43.988281 72.171875 44.125 72.097656 44.300781 C 71.796875 44.957031 71.113281 45.328125 71.019531 46.113281 C 70.929688 46.878906 71.636719 47.140625 71.890625 47.746094 C 72.277344 48.671875 71.652344 49.667969 70.890625 50.15625 C 70.683594 50.289062 70.328125 50.160156 70.4375 49.882812 C 70.582031 49.503906 70.878906 49.203125 71.003906 48.820312 C 71.183594 48.296875 70.980469 48.015625 70.671875 47.609375 Z M 73.4375 115.613281 C 73.480469 114.527344 73.347656 113.382812 73.339844 112.355469 C 73.328125 110.859375 73.3125 109.363281 73.296875 107.867188 C 73.269531 104.9375 73.238281 102.011719 73.203125 99.085938 C 73.171875 96.15625 73.140625 93.230469 73.105469 90.304688 C 73.09375 88.90625 73.03125 87.507812 73.046875 86.113281 C 73.066406 84.65625 73.515625 82.609375 75.414062 82.90625 C 75.671875 82.945312 76 82.554688 75.675781 82.410156 C 74.769531 81.996094 73.839844 82.261719 73.109375 82.917969 C 72.105469 83.828125 71.96875 85.199219 71.945312 86.476562 C 71.886719 89.84375 71.980469 93.21875 72.011719 96.585938 C 72.039062 99.972656 72.066406 103.355469 72.101562 106.738281 C 72.113281 108.433594 72.132812 110.125 72.148438 111.816406 C 72.15625 112.726562 72.167969 113.640625 72.175781 114.546875 C 72.179688 115.042969 72.144531 115.5625 72.171875 116.066406 C 69.511719 116.988281 66.777344 117.691406 64.011719 118.167969 C 63.527344 110.722656 62.828125 103.292969 62.203125 95.859375 C 61.886719 92.074219 61.492188 88.28125 61.246094 84.484375 C 61.246094 84.457031 61.242188 84.425781 61.242188 84.398438 C 61.207031 83.851562 61.179688 83.308594 61.171875 82.769531 L 61.171875 82.765625 C 61.113281 79.890625 61.476562 77.097656 62.953125 74.523438 C 63.707031 73.203125 64.601562 71.757812 64.277344 70.171875 C 64.113281 69.347656 63.695312 68.652344 63.03125 68.261719 C 63.066406 67.035156 63.136719 65.800781 63.246094 64.574219 C 64.296875 65.429688 65.300781 66.398438 65.992188 67.566406 C 66.5625 68.53125 66.863281 69.660156 66.828125 70.691406 C 66.648438 71.140625 66.449219 71.582031 66.199219 72.007812 C 65.597656 73.027344 64.792969 73.835938 63.894531 74.59375 C 63.605469 74.835938 64.097656 75.058594 64.316406 74.933594 C 65.554688 74.238281 66.71875 73.042969 67.386719 71.671875 C 68.777344 72.867188 70.398438 73.824219 71.972656 74.75 C 74.6875 76.351562 77.253906 77.859375 78.609375 80.464844 C 79.636719 82.445312 79.78125 84.835938 79.910156 86.949219 L 81.4375 111.8125 C 78.878906 113.308594 76.199219 114.578125 73.4375 115.613281 Z M 51.554688 77.65625 C 50.410156 75.21875 47.347656 71.511719 49.050781 68.820312 C 49.070312 69.59375 49.070312 70.363281 49.058594 71.128906 C 49.050781 71.402344 49.269531 71.625 49.539062 71.632812 L 49.546875 71.632812 C 49.816406 71.632812 50.035156 71.414062 50.039062 71.148438 C 50.058594 70.03125 50.046875 68.914062 50.007812 67.796875 C 50.003906 67.671875 50 67.542969 49.992188 67.414062 C 49.941406 66.128906 49.84375 64.847656 49.707031 63.574219 L 49.707031 63.570312 C 49.660156 63.078125 49.601562 62.558594 49.523438 61.988281 C 49.550781 62.003906 49.582031 62.019531 49.613281 62.035156 C 51.425781 63.003906 53.507812 63.578125 55.636719 63.699219 L 55.6875 63.699219 C 57.816406 63.578125 59.898438 63.003906 61.710938 62.035156 C 62.011719 61.871094 62.3125 61.699219 62.609375 61.507812 C 62.605469 61.519531 62.605469 61.53125 62.605469 61.539062 C 62.507812 62.214844 62.425781 62.898438 62.355469 63.574219 C 62.199219 65.042969 62.101562 66.523438 62.050781 68.007812 C 62.046875 68.085938 62.042969 68.164062 62.042969 68.242188 C 62.015625 69.210938 62.007812 70.183594 62.027344 71.148438 C 62.035156 71.417969 62.25 71.632812 62.519531 71.632812 L 62.53125 71.632812 C 62.800781 71.625 63.019531 71.402344 63.007812 71.128906 C 62.996094 70.390625 63 69.648438 63.015625 68.90625 C 63.726562 69.808594 63.601562 71.273438 63.160156 72.308594 C 62.554688 73.730469 61.542969 74.929688 60.996094 76.386719 C 60.070312 78.851562 60.003906 81.5 60.148438 84.101562 C 60.085938 84.179688 60.023438 84.257812 59.960938 84.332031 C 58.960938 85.527344 57.890625 86.730469 56.703125 87.742188 C 55.792969 88.515625 54.984375 87.652344 54.308594 87.039062 C 53.992188 86.753906 53.679688 86.460938 53.375 86.164062 C 53.234375 83.242188 52.804688 80.320312 51.554688 77.65625 Z M 52.257812 96.652344 C 52.242188 100.878906 52.222656 105.101562 52.207031 109.328125 C 52.195312 112.488281 52.160156 115.652344 52.148438 118.8125 C 47.949219 118.554688 43.796875 117.78125 39.789062 116.519531 C 40.042969 115.136719 39.851562 113.542969 39.863281 112.160156 C 39.878906 110.46875 39.898438 108.777344 39.914062 107.085938 C 39.949219 103.636719 39.972656 100.1875 40.003906 96.742188 C 40.03125 93.371094 40.101562 89.996094 40.070312 86.625 C 40.0625 85.410156 40.011719 84.070312 39.160156 83.117188 C 38.464844 82.339844 37.40625 81.957031 36.421875 82.386719 C 36.078125 82.535156 36.222656 82.957031 36.585938 82.902344 C 38.542969 82.59375 38.96875 84.867188 38.96875 86.308594 C 38.96875 87.78125 38.921875 89.253906 38.90625 90.726562 C 38.871094 93.660156 38.839844 96.585938 38.804688 99.515625 C 38.773438 102.445312 38.742188 105.375 38.714844 108.304688 C 38.703125 109.734375 38.6875 111.167969 38.675781 112.597656 C 38.664062 113.703125 38.492188 114.976562 38.601562 116.128906 C 35.847656 115.1875 33.164062 114.011719 30.578125 112.605469 L 32.152344 86.949219 C 32.285156 84.832031 32.433594 82.4375 33.457031 80.46875 C 34.8125 77.859375 37.378906 76.347656 40.09375 74.75 C 41.667969 73.824219 43.289062 72.871094 44.671875 71.675781 C 45.160156 73.558594 46.339844 75.195312 47.953125 76.386719 C 48.15625 76.539062 48.617188 76.265625 48.378906 76.046875 C 46.644531 74.460938 45.648438 72.363281 45.253906 70.082031 C 45.328125 69.226562 45.613281 68.34375 46.074219 67.566406 C 46.765625 66.394531 47.769531 65.429688 48.816406 64.574219 C 48.914062 65.652344 48.984375 66.734375 49.023438 67.820312 C 47.117188 69.167969 47.414062 72.164062 48.3125 74.105469 C 49.113281 75.835938 50.269531 77.359375 50.945312 79.15625 C 51.589844 80.863281 51.925781 82.679688 52.101562 84.492188 C 52.113281 84.648438 52.128906 84.804688 52.140625 84.960938 C 52.183594 85.460938 52.21875 85.960938 52.242188 86.457031 C 52.425781 89.84375 52.273438 93.273438 52.257812 96.652344 Z M 43.316406 52.613281 C 43.3125 52.605469 43.3125 52.601562 43.3125 52.59375 C 43.097656 51.820312 42.953125 51.03125 42.882812 50.253906 C 42.859375 49.984375 42.617188 49.78125 42.347656 49.808594 C 42.078125 49.832031 41.878906 50.074219 41.902344 50.339844 C 41.964844 51.007812 42.070312 51.675781 42.230469 52.339844 C 41.03125 52.425781 39.6875 51.828125 38.816406 50.78125 C 37.859375 49.636719 37.332031 48.019531 37.246094 45.972656 C 37.179688 44.328125 37.457031 43.113281 38.109375 42.265625 C 38.59375 41.632812 39.410156 41.234375 40.144531 41.238281 C 40.4375 42.429688 40.800781 43.609375 41.1875 44.765625 C 41.28125 45.039062 41.371094 45.308594 41.464844 45.582031 C 41.636719 46.082031 41.8125 46.578125 41.988281 47.070312 C 42.058594 47.273438 42.246094 47.398438 42.449219 47.398438 C 42.503906 47.398438 42.5625 47.390625 42.617188 47.371094 C 42.871094 47.28125 43.003906 47 42.914062 46.742188 C 42.644531 45.976562 42.371094 45.195312 42.105469 44.410156 C 42.886719 41.71875 43.660156 39.042969 44.710938 36.429688 C 45.183594 35.257812 45.726562 33.925781 46.769531 33.136719 C 48.214844 32.039062 49.941406 33.148438 51.417969 33.601562 C 54.164062 34.4375 56.898438 34.105469 59.519531 33.035156 C 60.996094 32.433594 62.550781 31.824219 63.976562 32.890625 C 65.121094 33.753906 65.871094 35.160156 66.46875 36.4375 C 67.941406 39.585938 68.300781 42.941406 68.027344 46.371094 C 67.972656 47.082031 69.136719 46.914062 69.246094 46.316406 C 69.382812 45.589844 69.460938 44.855469 69.488281 44.113281 C 69.558594 44.054688 69.613281 43.976562 69.640625 43.882812 C 69.875 43.125 70.136719 42.277344 70.382812 41.429688 C 71.308594 40.9375 72.589844 41.449219 73.210938 42.265625 C 73.867188 43.117188 74.148438 44.328125 74.074219 45.972656 C 73.992188 48.019531 73.46875 49.636719 72.507812 50.78125 C 71.632812 51.828125 70.289062 52.425781 69.089844 52.339844 C 69.253906 51.679688 69.363281 51.007812 69.421875 50.339844 C 69.445312 50.074219 69.246094 49.832031 68.972656 49.808594 C 68.710938 49.78125 68.464844 49.984375 68.441406 50.253906 C 68.367188 51.042969 68.226562 51.835938 68.007812 52.609375 L 68.007812 52.617188 C 67.597656 54.097656 66.941406 55.5 66.09375 56.757812 C 65.238281 58.019531 64.179688 59.140625 62.964844 60.0625 C 62.414062 60.480469 61.835938 60.851562 61.246094 61.167969 C 59.566406 62.066406 57.636719 62.601562 55.660156 62.714844 C 53.691406 62.601562 51.757812 62.066406 50.078125 61.167969 C 49.753906 60.992188 49.445312 60.8125 49.167969 60.625 C 49.167969 60.625 49.164062 60.625 49.164062 60.625 C 46.351562 58.8125 44.222656 55.890625 43.316406 52.613281 Z M 80.894531 86.886719 C 80.761719 84.679688 80.601562 82.175781 79.484375 80.011719 C 77.996094 77.15625 75.1875 75.5 72.46875 73.902344 C 70.851562 72.949219 69.175781 71.964844 67.816406 70.734375 C 67.816406 70.660156 67.816406 70.582031 67.816406 70.507812 C 67.816406 70.015625 67.75 69.519531 67.628906 69.019531 C 67.46875 68.34375 67.195312 67.675781 66.835938 67.066406 C 65.957031 65.574219 64.660156 64.421875 63.359375 63.40625 C 63.425781 62.832031 63.496094 62.25 63.578125 61.675781 C 63.617188 61.375 63.664062 61.0625 63.714844 60.726562 C 66.125 58.851562 67.925781 56.238281 68.828125 53.304688 C 70.398438 53.496094 72.132812 52.769531 73.261719 51.414062 C 74.359375 50.097656 74.964844 48.28125 75.058594 46.015625 C 75.136719 44.132812 74.792969 42.707031 73.996094 41.667969 C 73.261719 40.710938 71.914062 40.082031 70.695312 40.292969 C 71.078125 38.800781 71.449219 37 71.503906 35.125 C 71.605469 31.703125 70.535156 28.605469 68.570312 26.621094 C 66.59375 24.632812 63.511719 23.855469 61.074219 24.683594 C 60.015625 23.167969 58.054688 22.132812 55.941406 22.011719 C 53.511719 21.871094 51.152344 22.75 48.949219 23.660156 C 46.628906 24.617188 44.214844 25.710938 42.457031 27.605469 C 40.324219 29.910156 39.246094 33.4375 39.507812 37.28125 C 39.570312 38.234375 39.707031 39.214844 39.925781 40.257812 C 38.953125 40.328125 37.949219 40.855469 37.328125 41.667969 C 36.53125 42.707031 36.183594 44.128906 36.261719 46.015625 C 36.355469 48.28125 36.960938 50.097656 38.058594 51.410156 C 39.191406 52.769531 40.921875 53.492188 42.492188 53.304688 C 43.5 56.566406 45.644531 59.464844 48.441406 61.328125 C 48.472656 61.574219 48.507812 61.816406 48.539062 62.0625 C 48.601562 62.542969 48.660156 62.988281 48.703125 63.40625 C 47.40625 64.421875 46.109375 65.574219 45.226562 67.066406 C 44.5625 68.191406 44.210938 69.515625 44.25 70.738281 C 42.886719 71.964844 41.21875 72.949219 39.597656 73.902344 C 36.878906 75.5 34.066406 77.152344 32.582031 80.011719 C 31.464844 82.167969 31.308594 84.675781 31.171875 86.886719 L 29.574219 112.855469 C 29.566406 113.046875 29.667969 113.226562 29.832031 113.316406 C 36.730469 117.125 44.351562 119.328125 52.144531 119.800781 C 52.503906 119.820312 52.855469 119.839844 53.210938 119.851562 C 53.914062 119.882812 54.617188 119.894531 55.320312 119.894531 C 56.117188 119.894531 56.917969 119.878906 57.71875 119.839844 C 59.554688 119.757812 61.382812 119.574219 63.199219 119.292969 C 63.472656 119.253906 63.75 119.210938 64.023438 119.164062 C 66.839844 118.6875 69.628906 117.980469 72.335938 117.050781 C 72.664062 116.941406 72.992188 116.824219 73.316406 116.707031 C 76.390625 115.585938 79.367188 114.183594 82.199219 112.507812 C 82.355469 112.414062 82.449219 112.238281 82.4375 112.054688 L 80.894531 86.886719 " fill-opacity="1" fill-rule="nonzero"/></g></svg>