<svg xmlns="http://www.w3.org/2000/svg" xmlns:xlink="http://www.w3.org/1999/xlink" width="150" zoomAndPan="magnify" viewBox="0 0 112.5 112.499997" height="150" preserveAspectRatio="xMidYMid meet" version="1.0"><defs><clipPath id="fe4485db75"><path d="M 0 0 L 112.003906 0 L 112.003906 112.003906 L 0 112.003906 Z M 0 0 " clip-rule="nonzero"/></clipPath><clipPath id="33a24c12f2"><path d="M 61 39 L 108 39 L 108 93 L 61 93 Z M 61 39 " clip-rule="nonzero"/></clipPath><clipPath id="7624933222"><path d="M 99.660156 96.507812 L 55.796875 87.402344 L 67.175781 32.570312 L 111.042969 41.675781 Z M 99.660156 96.507812 " clip-rule="nonzero"/></clipPath><clipPath id="d30d3ab747"><path d="M 99.660156 96.507812 L 55.796875 87.402344 L 67.175781 32.570312 L 111.042969 41.675781 Z M 99.660156 96.507812 " clip-rule="nonzero"/></clipPath><clipPath id="a50c066c4b"><path d="M 85 65 L 87 65 L 87 67 L 85 67 Z M 85 65 " clip-rule="nonzero"/></clipPath><clipPath id="f6ecd7cd44"><path d="M 99.660156 96.507812 L 55.796875 87.402344 L 67.175781 32.570312 L 111.042969 41.675781 Z M 99.660156 96.507812 " clip-rule="nonzero"/></clipPath><clipPath id="1730fe8602"><path d="M 99.660156 96.507812 L 55.796875 87.402344 L 67.175781 32.570312 L 111.042969 41.675781 Z M 99.660156 96.507812 " clip-rule="nonzero"/></clipPath><clipPath id="cdbf76489f"><path d="M 82 66 L 85 66 L 85 68 L 82 68 Z M 82 66 " clip-rule="nonzero"/></clipPath><clipPath id="3e07394a8f"><path d="M 99.660156 96.507812 L 55.796875 87.402344 L 67.175781 32.570312 L 111.042969 41.675781 Z M 99.660156 96.507812 " clip-rule="nonzero"/></clipPath><clipPath id="5474a1736b"><path d="M 99.660156 96.507812 L 55.796875 87.402344 L 67.175781 32.570312 L 111.042969 41.675781 Z M 99.660156 96.507812 " clip-rule="nonzero"/></clipPath><clipPath id="1f1cc7ae83"><path d="M 9 80 L 52 80 L 52 112.003906 L 9 112.003906 Z M 9 80 " clip-rule="nonzero"/></clipPath><clipPath id="142d5900cf"><path d="M 63.105469 109.988281 L 34.078125 144.113281 L -8.578125 107.828125 L 20.449219 73.703125 Z M 63.105469 109.988281 " clip-rule="nonzero"/></clipPath><clipPath id="c46f1bb02f"><path d="M 63.105469 109.988281 L 34.078125 144.113281 L -8.578125 107.828125 L 20.449219 73.703125 Z M 63.105469 109.988281 " clip-rule="nonzero"/></clipPath><clipPath id="b805b8db63"><path d="M 29 106 L 31 106 L 31 108 L 29 108 Z M 29 106 " clip-rule="nonzero"/></clipPath><clipPath id="daf6a0f6c1"><path d="M 63.105469 109.988281 L 34.078125 144.113281 L -8.578125 107.828125 L 20.449219 73.703125 Z M 63.105469 109.988281 " clip-rule="nonzero"/></clipPath><clipPath id="4d52439744"><path d="M 63.105469 109.988281 L 34.078125 144.113281 L -8.578125 107.828125 L 20.449219 73.703125 Z M 63.105469 109.988281 " clip-rule="nonzero"/></clipPath><clipPath id="a907f2c55e"><path d="M 29 109 L 31 109 L 31 111 L 29 111 Z M 29 109 " clip-rule="nonzero"/></clipPath><clipPath id="47e4b86b36"><path d="M 63.105469 109.988281 L 34.078125 144.113281 L -8.578125 107.828125 L 20.449219 73.703125 Z M 63.105469 109.988281 " clip-rule="nonzero"/></clipPath><clipPath id="f09bbf0b64"><path d="M 63.105469 109.988281 L 34.078125 144.113281 L -8.578125 107.828125 L 20.449219 73.703125 Z M 63.105469 109.988281 " clip-rule="nonzero"/></clipPath><clipPath id="a55ae7e452"><path d="M 0 0 L 44 0 L 44 31 L 0 31 Z M 0 0 " clip-rule="nonzero"/></clipPath><clipPath id="16abb9e8ba"><path d="M 35.21875 35.007812 L -8.648438 25.902344 L 2.734375 -28.929688 L 46.601562 -19.824219 Z M 35.21875 35.007812 " clip-rule="nonzero"/></clipPath><clipPath id="2818e7597b"><path d="M 35.21875 35.007812 L -8.648438 25.902344 L 2.734375 -28.929688 L 46.601562 -19.824219 Z M 35.21875 35.007812 " clip-rule="nonzero"/></clipPath><clipPath id="4d26bb0322"><path d="M 20 3 L 22 3 L 22 6 L 20 6 Z M 20 3 " clip-rule="nonzero"/></clipPath><clipPath id="059937a2f3"><path d="M 35.21875 35.007812 L -8.648438 25.902344 L 2.734375 -28.929688 L 46.601562 -19.824219 Z M 35.21875 35.007812 " clip-rule="nonzero"/></clipPath><clipPath id="f0562c5fca"><path d="M 35.21875 35.007812 L -8.648438 25.902344 L 2.734375 -28.929688 L 46.601562 -19.824219 Z M 35.21875 35.007812 " clip-rule="nonzero"/></clipPath><clipPath id="1a13f2822d"><path d="M 18 4 L 21 4 L 21 7 L 18 7 Z M 18 4 " clip-rule="nonzero"/></clipPath><clipPath id="cf59da18ce"><path d="M 35.21875 35.007812 L -8.648438 25.902344 L 2.734375 -28.929688 L 46.601562 -19.824219 Z M 35.21875 35.007812 " clip-rule="nonzero"/></clipPath><clipPath id="2f75b2820c"><path d="M 35.21875 35.007812 L -8.648438 25.902344 L 2.734375 -28.929688 L 46.601562 -19.824219 Z M 35.21875 35.007812 " clip-rule="nonzero"/></clipPath><clipPath id="e359f501b4"><path d="M 24 23.53125 L 87 23.53125 L 87 112.003906 L 24 112.003906 Z M 24 23.53125 " clip-rule="nonzero"/></clipPath><clipPath id="a97389ad5f"><path d="M 31 35 L 82 35 L 82 112.003906 L 31 112.003906 Z M 31 35 " clip-rule="nonzero"/></clipPath><clipPath id="cee043fd29"><path d="M 24 23.53125 L 87 23.53125 L 87 112.003906 L 24 112.003906 Z M 24 23.53125 " clip-rule="nonzero"/></clipPath></defs><g clip-path="url(#fe4485db75)"><path fill="#ffffff" d="M 0 0 L 112.003906 0 L 112.003906 112.003906 L 0 112.003906 Z M 0 0 " fill-opacity="1" fill-rule="nonzero"/><path fill="#ddd92a" d="M 0 0 L 112.003906 0 L 112.003906 112.003906 L 0 112.003906 Z M 0 0 " fill-opacity="1" fill-rule="nonzero"/></g><g clip-path="url(#33a24c12f2)"><g clip-path="url(#7624933222)"><g clip-path="url(#d30d3ab747)"><path fill="#696714" d="M 62.332031 62.859375 C 67.980469 63.761719 73.402344 65.449219 78.765625 67.332031 C 73.679688 69.769531 68.472656 71.96875 63.285156 74.066406 C 62.378906 74.433594 63.050781 75.792969 63.949219 75.429688 C 69.589844 73.148438 75.261719 70.746094 80.777344 68.046875 C 82.085938 68.515625 83.394531 68.992188 84.699219 69.472656 C 82.242188 76.679688 80.546875 84.015625 81.019531 91.644531 C 81.082031 92.609375 82.597656 92.6875 82.535156 91.710938 C 82.101562 84.609375 83.566406 77.769531 85.773438 71.058594 C 87.671875 75.75 89.890625 80.296875 92.855469 84.527344 C 93.417969 85.328125 94.5625 84.332031 94.003906 83.539062 C 91.101562 79.410156 88.917969 74.941406 87.054688 70.328125 C 92.265625 72.210938 97.503906 74.003906 102.929688 75.164062 C 103.875 75.363281 104.351562 73.925781 103.398438 73.71875 C 97.65625 72.484375 92.125 70.570312 86.617188 68.585938 C 87.148438 67.085938 87.710938 65.589844 88.292969 64.097656 C 95.140625 60.226562 101.601562 55.730469 107.265625 50.207031 C 107.964844 49.527344 106.960938 48.394531 106.261719 49.074219 C 101.117188 54.074219 95.324219 58.226562 89.1875 61.832031 C 92.09375 54.546875 95.257812 47.328125 97.148438 39.992188 C 97.390625 39.050781 95.957031 38.570312 95.707031 39.519531 C 93.652344 47.40625 90.152344 55.171875 87.074219 63.035156 C 86.316406 63.460938 85.554688 63.878906 84.789062 64.289062 C 82.882812 58.878906 81.171875 53.378906 79.0625 48.066406 C 78.699219 47.15625 77.335938 47.820312 77.695312 48.726562 C 79.835938 54.070312 81.5625 59.574219 83.484375 64.984375 C 82.539062 65.476562 81.589844 65.957031 80.632812 66.429688 C 74.683594 64.316406 68.6875 62.371094 62.414062 61.347656 C 61.449219 61.191406 61.371094 62.707031 62.332031 62.859375 Z M 62.332031 62.859375 " fill-opacity="1" fill-rule="nonzero"/></g></g></g><g clip-path="url(#a50c066c4b)"><g clip-path="url(#f6ecd7cd44)"><g clip-path="url(#1730fe8602)"><path fill="#696714" d="M 86.226562 65.242188 C 86.039062 65.738281 85.851562 66.234375 85.667969 66.734375 C 85.546875 66.402344 85.425781 66.066406 85.304688 65.734375 C 85.613281 65.570312 85.917969 65.410156 86.226562 65.242188 Z M 86.226562 65.242188 " fill-opacity="1" fill-rule="nonzero"/></g></g></g><g clip-path="url(#cdbf76489f)"><g clip-path="url(#3e07394a8f)"><g clip-path="url(#5474a1736b)"><path fill="#696714" d="M 84.003906 66.425781 C 84.175781 66.894531 84.347656 67.363281 84.519531 67.828125 C 83.878906 67.597656 83.242188 67.363281 82.601562 67.136719 C 83.070312 66.898438 83.539062 66.667969 84.003906 66.425781 Z M 84.003906 66.425781 " fill-opacity="1" fill-rule="nonzero"/></g></g></g><g clip-path="url(#1f1cc7ae83)"><g clip-path="url(#142d5900cf)"><g clip-path="url(#c46f1bb02f)"><path fill="#696714" d="M 15.679688 126.605469 C 19.179688 122.082031 23.257812 118.132812 27.484375 114.328125 C 27.183594 119.964844 26.617188 125.585938 25.96875 131.144531 C 25.855469 132.117188 27.371094 132.179688 27.484375 131.214844 C 28.1875 125.171875 28.796875 119.042969 29.074219 112.90625 C 30.117188 111.984375 31.164062 111.066406 32.207031 110.148438 C 37.351562 115.765625 42.980469 120.769531 49.902344 124.011719 C 50.777344 124.421875 51.574219 123.128906 50.6875 122.714844 C 44.246094 119.6875 38.949219 115.125 34.113281 109.96875 C 39.140625 110.550781 44.195312 110.785156 49.332031 110.214844 C 50.304688 110.105469 49.976562 108.621094 49.015625 108.730469 C 43.996094 109.300781 39.03125 109.074219 34.085938 108.492188 C 38.242188 104.824219 42.324219 101.085938 45.945312 96.882812 C 46.574219 96.148438 45.542969 95.042969 44.902344 95.78125 C 41.066406 100.222656 36.734375 104.164062 32.351562 108.042969 C 31.289062 106.855469 30.246094 105.644531 29.214844 104.421875 C 29.105469 96.554688 28.257812 88.730469 26.128906 81.109375 C 25.867188 80.167969 24.390625 80.507812 24.652344 81.449219 C 26.570312 88.359375 27.4375 95.433594 27.65625 102.546875 C 22.65625 96.503906 17.839844 90.265625 12.3125 85.085938 C 11.601562 84.421875 10.492188 85.453125 11.203125 86.125 C 17.136719 91.710938 22.273438 98.507812 27.699219 104.976562 C 27.710938 105.847656 27.710938 106.714844 27.703125 107.585938 C 22.042969 106.664062 16.394531 105.527344 10.71875 104.832031 C 9.75 104.710938 9.679688 106.230469 10.644531 106.34375 C 16.359375 107.03125 22.019531 108.152344 27.6875 109.066406 C 27.664062 110.128906 27.632812 111.195312 27.589844 112.261719 C 22.882812 116.464844 18.300781 120.796875 14.390625 125.808594 C 13.789062 126.578125 15.085938 127.375 15.679688 126.605469 Z M 15.679688 126.605469 " fill-opacity="1" fill-rule="nonzero"/></g></g></g><g clip-path="url(#b805b8db63)"><g clip-path="url(#daf6a0f6c1)"><g clip-path="url(#4d52439744)"><path fill="#696714" d="M 29.230469 106.785156 C 29.574219 107.1875 29.921875 107.585938 30.269531 107.984375 C 29.917969 107.933594 29.570312 107.882812 29.21875 107.828125 C 29.222656 107.480469 29.230469 107.132812 29.230469 106.785156 Z M 29.230469 106.785156 " fill-opacity="1" fill-rule="nonzero"/></g></g></g><g clip-path="url(#a907f2c55e)"><g clip-path="url(#47e4b86b36)"><g clip-path="url(#f09bbf0b64)"><path fill="#696714" d="M 29.203125 109.300781 C 29.695312 109.375 30.1875 109.445312 30.679688 109.519531 C 30.171875 109.96875 29.660156 110.417969 29.152344 110.871094 C 29.167969 110.34375 29.191406 109.824219 29.203125 109.300781 Z M 29.203125 109.300781 " fill-opacity="1" fill-rule="nonzero"/></g></g></g><g clip-path="url(#a55ae7e452)"><g clip-path="url(#16abb9e8ba)"><g clip-path="url(#2818e7597b)"><path fill="#696714" d="M -2.113281 1.363281 C 3.539062 2.265625 8.957031 3.949219 14.324219 5.832031 C 9.234375 8.269531 4.03125 10.472656 -1.15625 12.566406 C -2.066406 12.933594 -1.394531 14.296875 -0.492188 13.929688 C 5.148438 11.648438 10.816406 9.246094 16.335938 6.546875 C 17.644531 7.015625 18.949219 7.496094 20.257812 7.972656 C 17.796875 15.179688 16.101562 22.515625 16.578125 30.144531 C 16.640625 31.109375 18.152344 31.191406 18.09375 30.210938 C 17.660156 23.109375 19.125 16.273438 21.328125 9.558594 C 23.230469 14.25 25.449219 18.796875 28.410156 23.027344 C 28.972656 23.828125 30.117188 22.832031 29.5625 22.039062 C 26.65625 17.910156 24.472656 13.445312 22.609375 8.828125 C 27.820312 10.710938 33.0625 12.503906 38.488281 13.664062 C 39.433594 13.863281 39.910156 12.425781 38.953125 12.222656 C 33.214844 10.984375 27.679688 9.070312 22.171875 7.085938 C 22.707031 5.585938 23.269531 4.089844 23.847656 2.597656 C 30.699219 -1.273438 37.15625 -5.769531 42.824219 -11.289062 C 43.523438 -11.972656 42.519531 -13.105469 41.816406 -12.425781 C 36.671875 -7.425781 30.882812 -3.273438 24.742188 0.332031 C 27.648438 -6.953125 30.816406 -14.171875 32.707031 -21.507812 C 32.949219 -22.449219 31.511719 -22.925781 31.265625 -21.980469 C 29.207031 -14.09375 25.710938 -6.328125 22.632812 1.535156 C 21.875 1.960938 21.113281 2.378906 20.34375 2.789062 C 18.4375 -2.621094 16.726562 -8.121094 14.617188 -13.433594 C 14.257812 -14.34375 12.890625 -13.675781 13.253906 -12.773438 C 15.390625 -7.429688 17.121094 -1.925781 19.039062 3.484375 C 18.097656 3.976562 17.144531 4.457031 16.191406 4.933594 C 10.242188 2.816406 4.242188 0.875 -2.03125 -0.148438 C -2.992188 -0.308594 -3.070312 1.207031 -2.113281 1.363281 Z M -2.113281 1.363281 " fill-opacity="1" fill-rule="nonzero"/></g></g></g><g clip-path="url(#4d26bb0322)"><g clip-path="url(#059937a2f3)"><g clip-path="url(#f0562c5fca)"><path fill="#696714" d="M 21.78125 3.746094 C 21.59375 4.242188 21.410156 4.738281 21.226562 5.234375 C 21.105469 4.902344 20.980469 4.570312 20.863281 4.234375 C 21.167969 4.074219 21.476562 3.910156 21.78125 3.746094 Z M 21.78125 3.746094 " fill-opacity="1" fill-rule="nonzero"/></g></g></g><g clip-path="url(#1a13f2822d)"><g clip-path="url(#cf59da18ce)"><g clip-path="url(#2f75b2820c)"><path fill="#696714" d="M 19.5625 4.925781 C 19.730469 5.394531 19.902344 5.863281 20.078125 6.328125 C 19.4375 6.097656 18.800781 5.867188 18.160156 5.636719 C 18.628906 5.398438 19.09375 5.167969 19.5625 4.925781 Z M 19.5625 4.925781 " fill-opacity="1" fill-rule="nonzero"/></g></g></g><g clip-path="url(#e359f501b4)"><path fill="#2d2a32" d="M 84.304688 77.957031 C 82.140625 73.996094 76.847656 70.253906 78.722656 65.195312 C 79.574219 62.902344 81.308594 61.039062 82.015625 58.679688 C 82.75 56.234375 82.230469 53.710938 81.214844 51.425781 C 79.878906 48.433594 77.863281 45.761719 76.046875 43.050781 C 75.914062 42.851562 75.78125 42.652344 75.648438 42.449219 C 75.609375 42.203125 75.566406 41.953125 75.519531 41.703125 C 74.25 34.734375 70.632812 28.839844 65.605469 25.539062 C 63.640625 24.242188 61.832031 23.609375 60.082031 23.589844 L 60.019531 23.589844 C 58.125 23.589844 56.394531 24.410156 55.441406 25.703125 C 54.476562 24.394531 52.714844 23.570312 50.804688 23.589844 C 49.050781 23.609375 47.242188 24.242188 45.277344 25.539062 C 40.25 28.839844 36.636719 34.734375 35.367188 41.703125 C 35.308594 42.007812 35.257812 42.3125 35.210938 42.617188 C 33.710938 44.847656 32.140625 47.050781 30.804688 49.382812 C 29.488281 51.683594 28.367188 54.285156 28.574219 56.996094 C 28.753906 59.390625 30.074219 61.308594 31.230469 63.328125 C 32.5625 65.664062 33.089844 67.984375 31.859375 70.496094 C 30.789062 72.675781 29.019531 74.433594 27.644531 76.417969 C 24.734375 80.625 23.617188 85.972656 24.59375 90.992188 C 25.453125 95.402344 27.9375 99.371094 31.441406 102.113281 L 30.585938 113.996094 C 30.570312 114.175781 30.65625 114.351562 30.808594 114.445312 C 33.835938 116.378906 37.070312 117.945312 40.4375 119.121094 C 40.859375 119.269531 41.28125 119.410156 41.707031 119.542969 C 46.21875 120.976562 50.9375 121.714844 55.667969 121.714844 C 57.019531 121.714844 58.375 121.65625 59.722656 121.535156 C 63.355469 121.207031 66.941406 120.429688 70.398438 119.242188 C 70.808594 119.101562 71.214844 118.957031 71.621094 118.800781 C 75.203125 117.457031 78.636719 115.660156 81.828125 113.453125 C 81.972656 113.351562 82.050781 113.1875 82.039062 113.011719 C 81.738281 108.859375 81.4375 104.699219 81.136719 100.542969 C 86.902344 94.707031 88.382812 85.425781 84.304688 77.957031 " fill-opacity="1" fill-rule="nonzero"/></g><g clip-path="url(#a97389ad5f)"><path fill="#edf4ed" d="M 38.144531 102.742188 C 37.367188 101.597656 36.445312 100.441406 36.257812 99.023438 C 36.0625 97.601562 36.65625 96.257812 37.34375 95.050781 C 38.160156 93.621094 39.28125 92.222656 39.460938 90.53125 C 39.484375 90.308594 39.484375 90.085938 39.460938 89.871094 C 39.417969 89.480469 39.308594 89.109375 39.128906 88.773438 L 39.128906 88.769531 C 38.75 88.058594 38.085938 87.519531 37.222656 87.351562 C 36.914062 87.292969 36.910156 86.890625 37.242188 86.882812 C 38.039062 86.855469 38.691406 87.089844 39.195312 87.488281 C 39.222656 87.195312 39.253906 86.917969 39.265625 86.667969 C 39.324219 85.453125 39.382812 84.234375 39.441406 83.019531 C 39.496094 81.804688 39.546875 80.585938 39.613281 79.371094 C 39.648438 78.792969 39.664062 78.199219 39.695312 77.609375 C 39.089844 77.914062 38.503906 78.242188 37.957031 78.609375 C 37.039062 79.214844 36.3125 79.875 35.734375 80.625 C 33.800781 83.109375 33.546875 86.613281 33.34375 89.425781 L 32.484375 101.320312 L 32.378906 102.796875 L 31.585938 113.773438 C 34.332031 115.507812 37.253906 116.929688 40.285156 118.023438 C 39.746094 112.835938 41.285156 107.363281 38.144531 102.742188 Z M 38.046875 49.535156 C 38.066406 49.710938 38.390625 49.71875 38.417969 49.546875 C 38.355469 49.957031 39.347656 49.640625 38.835938 50.171875 C 38.753906 50.257812 38.570312 50.296875 38.46875 50.386719 C 38.15625 50.667969 38.074219 51.074219 38.058594 51.480469 C 38.027344 52.554688 38.53125 53.714844 39.226562 54.507812 C 39.46875 54.785156 40.179688 54.484375 39.945312 54.109375 C 39.472656 53.355469 38.308594 51.527344 39.285156 50.789062 C 39.738281 50.449219 39.976562 50.371094 39.78125 49.710938 C 39.644531 49.238281 39.3125 48.761719 38.773438 48.78125 C 38.332031 48.796875 38 49.101562 38.046875 49.535156 Z M 37.25 52.816406 C 36.96875 51.582031 36.886719 50.1875 37.101562 48.9375 C 37.386719 47.285156 38.941406 45.820312 40.292969 47.277344 C 40.285156 47.484375 40.28125 47.691406 40.28125 47.898438 C 40.28125 48.164062 40.285156 48.425781 40.292969 48.6875 C 40.300781 48.910156 40.308594 49.128906 40.324219 49.347656 C 40.324219 49.390625 40.328125 49.433594 40.332031 49.472656 C 40.339844 49.660156 40.355469 49.847656 40.371094 50.035156 C 40.378906 50.15625 40.394531 50.273438 40.40625 50.386719 C 40.414062 50.488281 40.425781 50.589844 40.433594 50.691406 C 40.464844 50.957031 40.496094 51.21875 40.535156 51.480469 C 40.5625 51.695312 40.597656 51.910156 40.632812 52.125 C 40.644531 52.179688 40.652344 52.238281 40.664062 52.296875 C 40.691406 52.46875 40.722656 52.636719 40.757812 52.808594 C 40.808594 53.054688 40.859375 53.300781 40.917969 53.546875 C 40.941406 53.660156 40.96875 53.773438 40.996094 53.882812 C 41.164062 54.578125 41.363281 55.257812 41.589844 55.917969 C 41.617188 56.007812 41.648438 56.09375 41.679688 56.179688 C 41.726562 56.308594 41.769531 56.4375 41.820312 56.558594 C 39.554688 57.105469 37.726562 54.929688 37.25 52.816406 Z M 50.140625 70.992188 C 49 72.851562 46.945312 74.414062 43.859375 75.765625 C 43.5625 75.898438 43.257812 76.027344 42.953125 76.15625 C 43.050781 78.988281 43.078125 81.8125 43.359375 84.644531 C 43.496094 85.980469 43.664062 87.3125 43.859375 88.644531 C 48 89.507812 52.136719 90.117188 56.398438 89.960938 C 58.792969 89.871094 61.191406 89.585938 63.535156 89.09375 C 64.996094 88.785156 66.417969 88.335938 67.851562 87.917969 C 68.007812 86.746094 68.152344 85.570312 68.261719 84.394531 C 68.539062 81.492188 68.550781 78.59375 68.660156 75.691406 C 65.671875 74.355469 63.667969 72.816406 62.550781 70.992188 C 62.507812 70.921875 62.484375 70.84375 62.480469 70.761719 C 62.449219 70.261719 62.433594 69.761719 62.433594 69.257812 C 62.433594 69.089844 62.4375 68.921875 62.441406 68.753906 C 62.4375 68.75 62.4375 68.746094 62.441406 68.742188 C 62.445312 68.582031 62.449219 68.417969 62.457031 68.257812 C 62.453125 68.246094 62.457031 68.230469 62.457031 68.214844 C 62.460938 68.085938 62.46875 67.953125 62.476562 67.824219 C 62.480469 67.75 62.484375 67.675781 62.492188 67.605469 C 62.5 67.457031 62.511719 67.3125 62.523438 67.167969 C 62.535156 67.03125 62.546875 66.890625 62.5625 66.753906 C 62.5625 66.730469 62.566406 66.710938 62.570312 66.6875 C 62.582031 66.554688 62.597656 66.425781 62.613281 66.292969 C 62.621094 66.246094 62.625 66.199219 62.632812 66.148438 C 62.652344 66.003906 62.671875 65.855469 62.691406 65.710938 C 62.710938 65.585938 62.730469 65.460938 62.753906 65.332031 C 62.757812 65.292969 62.765625 65.25 62.773438 65.210938 L 61.476562 66.039062 C 61.410156 66.078125 61.34375 66.113281 61.277344 66.148438 L 59.898438 66.796875 C 59.878906 66.808594 59.855469 66.816406 59.832031 66.824219 C 59.789062 66.84375 59.742188 66.859375 59.699219 66.875 C 59.621094 66.90625 59.542969 66.933594 59.46875 66.960938 C 59.054688 67.109375 58.636719 67.234375 58.214844 67.335938 C 58.128906 67.359375 58.035156 67.378906 57.945312 67.398438 C 57.855469 67.417969 57.765625 67.433594 57.671875 67.453125 C 57.199219 67.542969 56.722656 67.605469 56.246094 67.636719 C 56.164062 67.640625 56.082031 67.644531 56.003906 67.648438 C 55.910156 67.652344 55.816406 67.65625 55.722656 67.660156 C 55.628906 67.660156 55.535156 67.664062 55.441406 67.664062 C 55.324219 67.664062 55.210938 67.660156 55.09375 67.65625 C 55.015625 67.65625 54.9375 67.652344 54.863281 67.648438 C 54.800781 67.644531 54.738281 67.644531 54.675781 67.636719 C 54.628906 67.636719 54.582031 67.632812 54.539062 67.628906 C 54.472656 67.625 54.410156 67.621094 54.347656 67.613281 C 54.253906 67.605469 54.160156 67.59375 54.070312 67.582031 C 54.0625 67.582031 54.058594 67.582031 54.050781 67.582031 C 53.957031 67.570312 53.859375 67.558594 53.765625 67.546875 C 53.65625 67.53125 53.542969 67.511719 53.433594 67.492188 C 53.304688 67.472656 53.175781 67.445312 53.046875 67.421875 C 52.804688 67.371094 52.566406 67.3125 52.324219 67.246094 C 52.269531 67.234375 52.210938 67.214844 52.15625 67.199219 C 52.066406 67.175781 51.980469 67.148438 51.890625 67.121094 C 51.878906 67.117188 51.863281 67.113281 51.847656 67.109375 C 51.738281 67.074219 51.628906 67.039062 51.519531 67 C 51.496094 66.992188 51.472656 66.984375 51.449219 66.972656 C 51.371094 66.945312 51.289062 66.914062 51.210938 66.882812 C 50.832031 66.742188 50.460938 66.582031 50.089844 66.398438 C 50.105469 66.519531 50.117188 66.640625 50.128906 66.765625 C 50.140625 66.875 50.152344 66.984375 50.160156 67.09375 C 50.1875 67.359375 50.203125 67.625 50.21875 67.894531 C 50.226562 68.027344 50.234375 68.167969 50.238281 68.300781 C 50.246094 68.441406 50.25 68.582031 50.253906 68.71875 C 50.265625 69.402344 50.253906 70.085938 50.210938 70.765625 C 50.207031 70.847656 50.183594 70.925781 50.140625 70.992188 Z M 46.019531 42.9375 C 46.835938 42.289062 47.609375 41.730469 48.710938 42.046875 C 49.550781 42.285156 49.953125 42.953125 50.628906 43.417969 C 50.757812 43.507812 51.046875 43.453125 51.066406 43.269531 C 51.230469 41.964844 49.585938 41.035156 48.46875 40.929688 C 47.234375 40.808594 45.753906 41.355469 45.222656 42.546875 C 45.007812 43.023438 45.730469 43.164062 46.019531 42.9375 Z M 51.546875 59.296875 C 53.707031 60.660156 56.730469 60.386719 58.714844 58.851562 C 59.171875 58.5 58.621094 57.992188 58.1875 58.222656 C 56.148438 59.300781 54.109375 59.433594 51.929688 58.746094 C 51.601562 58.640625 51.167969 59.054688 51.546875 59.296875 Z M 52.460938 52.585938 C 52.484375 53.867188 54 54.78125 55.167969 54.640625 C 55.425781 54.605469 55.644531 54.304688 55.433594 54.089844 C 55.003906 53.660156 54.34375 53.640625 53.886719 53.238281 C 53.058594 52.507812 53.683594 51.609375 54.234375 50.949219 C 54.894531 50.164062 55.679688 49.273438 55.167969 48.207031 C 55.070312 48 54.621094 48.0625 54.664062 48.320312 C 54.953125 50.148438 52.433594 50.800781 52.460938 52.585938 Z M 55.851562 56.714844 C 55.058594 56.417969 54.261719 56.546875 53.523438 56.9375 C 53.21875 57.09375 53.539062 57.429688 53.796875 57.332031 C 54.398438 57.101562 55.042969 57.101562 55.667969 57.214844 C 55.988281 57.273438 56.195312 56.84375 55.851562 56.714844 Z M 59.140625 43.273438 C 59.167969 43.457031 59.4375 43.519531 59.570312 43.414062 C 60.34375 42.820312 60.808594 41.996094 61.902344 41.949219 C 62.804688 41.910156 63.445312 42.453125 64.136719 42.945312 C 64.394531 43.128906 65.203125 43.011719 65.015625 42.542969 C 64.511719 41.289062 63.011719 40.769531 61.742188 40.945312 C 60.703125 41.085938 58.972656 42.019531 59.140625 43.273438 Z M 62.890625 48.390625 C 62.890625 46.96875 62.476562 45.816406 61.96875 45.816406 C 61.457031 45.816406 61.042969 46.96875 61.042969 48.390625 C 61.042969 49.816406 61.457031 50.96875 61.96875 50.96875 C 62.476562 50.96875 62.890625 49.816406 62.890625 48.390625 Z M 57.199219 61.171875 C 55.953125 61.863281 54.601562 61.984375 53.371094 61.1875 C 53.097656 61.007812 52.546875 61.34375 52.84375 61.644531 C 54.125 62.949219 56.578125 63.09375 57.789062 61.597656 C 58.121094 61.191406 57.496094 61.007812 57.199219 61.171875 Z M 49.167969 48.390625 C 49.167969 46.96875 48.757812 45.816406 48.246094 45.816406 C 47.738281 45.816406 47.324219 46.96875 47.324219 48.390625 C 47.324219 49.816406 47.738281 50.96875 48.246094 50.96875 C 48.757812 50.96875 49.167969 49.816406 49.167969 48.390625 Z M 42.757812 56.285156 C 41.792969 53.730469 41.265625 50.871094 41.265625 47.898438 C 41.265625 45.382812 41.640625 42.984375 42.320312 40.792969 C 44.746094 40.542969 47.214844 39.667969 49.277344 38.679688 C 51.15625 37.777344 52.949219 36.625 54.503906 35.214844 C 58.320312 38.253906 63.359375 40.089844 68.207031 39.730469 C 69.113281 42.199219 69.617188 44.972656 69.617188 47.898438 C 69.617188 51.0625 69.023438 54.105469 67.929688 56.796875 C 67.863281 56.964844 67.792969 57.132812 67.71875 57.300781 C 66.625 59.804688 65.085938 61.980469 63.191406 63.625 C 60.886719 65.625 58.207031 66.683594 55.441406 66.683594 C 54.074219 66.683594 52.734375 66.425781 51.445312 65.921875 C 51.210938 65.832031 50.976562 65.730469 50.746094 65.625 C 50.402344 65.464844 50.066406 65.285156 49.730469 65.089844 C 49.726562 65.085938 49.722656 65.085938 49.71875 65.082031 C 46.800781 63.375 44.472656 60.460938 43 56.898438 C 42.917969 56.699219 42.835938 56.492188 42.757812 56.285156 Z M 71.386719 52.148438 C 71.128906 52.761719 70.59375 53.3125 71.140625 53.890625 C 71.269531 54.023438 71.597656 54.011719 71.671875 53.816406 C 71.867188 53.328125 72.003906 52.84375 72.203125 52.355469 C 72.316406 52.074219 72.414062 51.746094 72.363281 51.4375 C 72.316406 51.132812 72.167969 51.011719 71.992188 50.789062 C 71.738281 50.46875 71.742188 50.511719 71.953125 49.992188 C 72.011719 49.84375 72.246094 49.199219 72.386719 49.292969 C 72.5 49.363281 72.820312 49.28125 72.714844 49.105469 C 72.082031 48.050781 71.046875 50.015625 70.992188 50.542969 C 70.921875 51.21875 71.710938 51.378906 71.386719 52.148438 Z M 69.597656 54.992188 C 69.652344 54.808594 69.703125 54.621094 69.753906 54.4375 C 69.820312 54.179688 69.882812 53.925781 69.945312 53.667969 C 69.976562 53.542969 70.003906 53.417969 70.03125 53.292969 C 70.070312 53.101562 70.109375 52.90625 70.148438 52.710938 C 70.183594 52.53125 70.214844 52.347656 70.246094 52.164062 C 70.265625 52.054688 70.285156 51.945312 70.300781 51.832031 C 70.316406 51.734375 70.332031 51.636719 70.34375 51.535156 C 70.375 51.335938 70.398438 51.136719 70.421875 50.941406 C 70.46875 50.546875 70.507812 50.152344 70.535156 49.753906 C 70.578125 49.140625 70.601562 48.523438 70.601562 47.898438 C 70.601562 47.796875 70.601562 47.691406 70.597656 47.589844 C 71.785156 46.417969 73.226562 47.585938 73.621094 49.058594 C 73.9375 50.238281 73.851562 51.628906 73.664062 52.824219 C 73.296875 55.167969 71.464844 57.683594 68.921875 56.953125 C 68.964844 56.855469 69 56.757812 69.035156 56.664062 C 69.167969 56.320312 69.289062 55.96875 69.402344 55.617188 C 69.4375 55.515625 69.46875 55.410156 69.5 55.304688 C 69.535156 55.203125 69.566406 55.097656 69.597656 54.992188 Z M 71.214844 105.78125 C 71.621094 104.277344 72.371094 103 73.246094 101.726562 C 74.320312 100.160156 75.019531 98.691406 74.300781 96.804688 C 73.664062 95.128906 72.414062 93.769531 71.808594 92.074219 C 71.480469 91.152344 71.472656 90.070312 71.78125 89.132812 C 71.574219 88.300781 71.703125 87.21875 71.683594 86.476562 C 71.640625 85.195312 71.601562 83.917969 71.5625 82.636719 C 71.503906 80.765625 71.269531 78.765625 71.371094 76.851562 C 70.953125 76.671875 70.539062 76.496094 70.125 76.320312 C 69.90625 76.226562 69.6875 76.132812 69.464844 76.039062 C 69.660156 78.871094 69.5 81.777344 69.300781 84.570312 C 69.230469 85.574219 69.140625 86.582031 69.027344 87.585938 C 68.992188 87.9375 68.953125 88.285156 68.910156 88.636719 C 68.507812 88.808594 68.097656 88.964844 67.679688 89.109375 C 66.421875 89.542969 65.121094 89.859375 63.851562 90.136719 C 61.382812 90.675781 58.878906 90.992188 56.355469 91.070312 C 52.234375 91.207031 47.929688 90.820312 43.988281 89.496094 C 43.5625 89.351562 43.140625 89.199219 42.726562 89.03125 C 42.699219 88.816406 42.671875 88.601562 42.644531 88.382812 C 42.492188 87.097656 42.375 85.804688 42.285156 84.507812 C 42.101562 81.882812 41.957031 79.175781 42.101562 76.515625 C 41.597656 76.730469 41.09375 76.949219 40.59375 77.179688 C 40.585938 77.859375 40.542969 78.539062 40.527344 79.199219 C 40.503906 80.414062 40.457031 81.625 40.417969 82.835938 C 40.378906 84.109375 40.339844 85.386719 40.300781 86.660156 C 40.273438 87.363281 40.371094 88.234375 40.222656 88.984375 C 40.5625 89.9375 40.554688 91.066406 40.207031 92.042969 C 39.640625 93.625 38.496094 94.914062 37.839844 96.453125 C 37.011719 98.394531 37.601562 99.902344 38.730469 101.550781 C 39.636719 102.871094 40.417969 104.183594 40.839844 105.742188 C 41.234375 107.191406 41.355469 108.703125 41.386719 110.203125 C 41.445312 112.96875 41.203125 115.722656 41.542969 118.457031 C 47.355469 120.371094 53.53125 121.109375 59.636719 120.554688 C 63.347656 120.21875 67.015625 119.40625 70.539062 118.152344 C 70.800781 115.636719 70.613281 113.105469 70.644531 110.558594 C 70.664062 108.949219 70.792969 107.339844 71.214844 105.78125 Z M 71.746094 117.707031 C 72.179688 112.660156 70.777344 107.273438 73.769531 102.828125 C 74.53125 101.699219 75.441406 100.585938 75.726562 99.21875 C 76.007812 97.847656 75.542969 96.53125 74.902344 95.332031 C 74.152344 93.917969 73.054688 92.613281 72.675781 91.027344 C 72.570312 90.589844 72.546875 90.148438 72.605469 89.730469 C 72.640625 89.433594 72.71875 89.152344 72.832031 88.890625 C 73.167969 88.125 73.824219 87.535156 74.792969 87.351562 C 75.078125 87.296875 75.167969 86.894531 74.8125 86.878906 C 73.988281 86.851562 73.316406 87.109375 72.804688 87.546875 C 72.769531 87.167969 72.726562 86.800781 72.710938 86.46875 C 72.652344 85.222656 72.59375 83.976562 72.53125 82.730469 C 72.476562 81.585938 72.433594 80.4375 72.367188 79.292969 C 72.332031 78.625 72.320312 77.9375 72.277344 77.257812 C 72.5 77.367188 72.726562 77.472656 72.945312 77.585938 C 72.949219 77.585938 72.949219 77.589844 72.953125 77.589844 C 74.789062 78.503906 76.0625 79.46875 76.960938 80.625 C 78.894531 83.109375 79.148438 86.613281 79.351562 89.425781 L 79.582031 92.640625 C 79.757812 95.058594 79.933594 97.476562 80.105469 99.890625 C 80.140625 100.402344 80.179688 100.90625 80.214844 101.414062 C 80.488281 105.210938 80.765625 109.007812 81.039062 112.804688 C 78.121094 114.800781 75 116.445312 71.746094 117.707031 " fill-opacity="1" fill-rule="nonzero"/></g><g clip-path="url(#cee043fd29)"><path fill="#2d2a32" d="M 38.046875 49.535156 C 38 49.101562 38.332031 48.796875 38.773438 48.78125 C 39.3125 48.761719 39.644531 49.238281 39.78125 49.710938 C 39.976562 50.371094 39.738281 50.449219 39.285156 50.789062 C 38.308594 51.527344 39.472656 53.355469 39.945312 54.109375 C 40.179688 54.484375 39.46875 54.785156 39.226562 54.507812 C 38.53125 53.714844 38.027344 52.554688 38.058594 51.480469 C 38.074219 51.074219 38.15625 50.667969 38.46875 50.386719 C 38.570312 50.296875 38.753906 50.257812 38.835938 50.171875 C 39.347656 49.640625 38.355469 49.957031 38.417969 49.546875 C 38.390625 49.71875 38.066406 49.710938 38.046875 49.535156 Z M 49.167969 48.390625 C 49.167969 49.816406 48.757812 50.96875 48.246094 50.96875 C 47.738281 50.96875 47.324219 49.816406 47.324219 48.390625 C 47.324219 46.96875 47.738281 45.816406 48.246094 45.816406 C 48.757812 45.816406 49.167969 46.96875 49.167969 48.390625 Z M 46.019531 42.9375 C 45.730469 43.164062 45.007812 43.023438 45.222656 42.546875 C 45.753906 41.355469 47.234375 40.808594 48.46875 40.929688 C 49.585938 41.035156 51.230469 41.964844 51.066406 43.269531 C 51.046875 43.453125 50.757812 43.507812 50.628906 43.417969 C 49.953125 42.953125 49.550781 42.285156 48.710938 42.046875 C 47.609375 41.730469 46.835938 42.289062 46.019531 42.9375 Z M 52.460938 52.585938 C 52.433594 50.800781 54.953125 50.148438 54.664062 48.320312 C 54.621094 48.0625 55.070312 48 55.167969 48.207031 C 55.679688 49.269531 54.894531 50.164062 54.234375 50.949219 C 53.683594 51.609375 53.058594 52.507812 53.886719 53.238281 C 54.34375 53.640625 55.003906 53.660156 55.433594 54.089844 C 55.644531 54.304688 55.425781 54.605469 55.167969 54.636719 C 54 54.78125 52.484375 53.867188 52.460938 52.585938 Z M 55.851562 56.714844 C 56.195312 56.84375 55.988281 57.273438 55.667969 57.214844 C 55.042969 57.101562 54.398438 57.101562 53.796875 57.332031 C 53.539062 57.429688 53.21875 57.09375 53.523438 56.933594 C 54.261719 56.546875 55.058594 56.417969 55.851562 56.714844 Z M 57.789062 61.597656 C 56.578125 63.089844 54.125 62.949219 52.84375 61.644531 C 52.546875 61.34375 53.097656 61.007812 53.371094 61.183594 C 54.601562 61.984375 55.953125 61.863281 57.199219 61.171875 C 57.496094 61.007812 58.121094 61.191406 57.789062 61.597656 Z M 51.929688 58.746094 C 54.109375 59.433594 56.148438 59.300781 58.1875 58.222656 C 58.621094 57.992188 59.171875 58.5 58.714844 58.851562 C 56.730469 60.386719 53.707031 60.660156 51.546875 59.296875 C 51.167969 59.054688 51.601562 58.640625 51.929688 58.746094 Z M 62.890625 48.390625 C 62.890625 49.816406 62.476562 50.96875 61.96875 50.96875 C 61.457031 50.96875 61.042969 49.816406 61.042969 48.390625 C 61.042969 46.96875 61.457031 45.816406 61.96875 45.816406 C 62.476562 45.816406 62.890625 46.96875 62.890625 48.390625 Z M 59.140625 43.273438 C 58.972656 42.019531 60.703125 41.085938 61.742188 40.945312 C 63.011719 40.769531 64.511719 41.285156 65.015625 42.542969 C 65.203125 43.011719 64.394531 43.125 64.136719 42.945312 C 63.445312 42.453125 62.804688 41.910156 61.902344 41.949219 C 60.808594 41.992188 60.34375 42.820312 59.570312 43.414062 C 59.4375 43.515625 59.167969 43.457031 59.140625 43.273438 Z M 71.386719 52.148438 C 71.710938 51.378906 70.921875 51.21875 70.992188 50.542969 C 71.046875 50.015625 72.082031 48.050781 72.714844 49.105469 C 72.820312 49.28125 72.5 49.363281 72.386719 49.289062 C 72.246094 49.199219 72.011719 49.84375 71.953125 49.992188 C 71.742188 50.511719 71.738281 50.46875 71.992188 50.789062 C 72.167969 51.011719 72.316406 51.132812 72.363281 51.4375 C 72.414062 51.746094 72.316406 52.074219 72.203125 52.355469 C 72.003906 52.84375 71.867188 53.328125 71.671875 53.816406 C 71.597656 54.011719 71.269531 54.023438 71.140625 53.886719 C 70.59375 53.3125 71.125 52.761719 71.386719 52.148438 Z M 71.746094 117.707031 C 72.179688 112.65625 70.777344 107.273438 73.769531 102.828125 C 74.527344 101.699219 75.441406 100.585938 75.722656 99.21875 C 76.007812 97.847656 75.542969 96.53125 74.902344 95.332031 C 74.148438 93.917969 73.050781 92.613281 72.675781 91.027344 C 72.570312 90.589844 72.546875 90.148438 72.601562 89.730469 C 72.640625 89.433594 72.71875 89.152344 72.832031 88.890625 C 73.167969 88.125 73.824219 87.535156 74.792969 87.351562 C 75.078125 87.296875 75.167969 86.894531 74.8125 86.878906 C 73.988281 86.851562 73.316406 87.109375 72.804688 87.546875 C 72.769531 87.167969 72.726562 86.800781 72.710938 86.46875 C 72.648438 85.222656 72.589844 83.976562 72.53125 82.730469 C 72.476562 81.585938 72.433594 80.4375 72.367188 79.292969 C 72.332031 78.625 72.320312 77.9375 72.273438 77.257812 C 72.5 77.367188 72.726562 77.472656 72.945312 77.585938 C 72.949219 77.585938 72.949219 77.589844 72.953125 77.589844 C 74.789062 78.503906 76.0625 79.46875 76.960938 80.625 C 78.894531 83.109375 79.144531 86.613281 79.351562 89.425781 L 79.582031 92.640625 C 79.757812 95.058594 79.929688 97.476562 80.105469 99.890625 C 80.140625 100.402344 80.179688 100.90625 80.214844 101.414062 C 80.488281 105.210938 80.765625 109.007812 81.039062 112.804688 C 78.121094 114.800781 75 116.445312 71.746094 117.707031 Z M 71.214844 105.78125 C 70.792969 107.339844 70.660156 108.949219 70.644531 110.558594 C 70.613281 113.105469 70.800781 115.636719 70.539062 118.152344 C 67.015625 119.40625 63.347656 120.21875 59.636719 120.554688 C 53.53125 121.105469 47.355469 120.371094 41.542969 118.457031 C 41.203125 115.722656 41.445312 112.96875 41.386719 110.203125 C 41.355469 108.703125 41.234375 107.191406 40.839844 105.738281 C 40.417969 104.179688 39.636719 102.871094 38.730469 101.550781 C 37.601562 99.902344 37.011719 98.394531 37.839844 96.453125 C 38.496094 94.914062 39.640625 93.625 40.207031 92.042969 C 40.554688 91.066406 40.5625 89.9375 40.222656 88.984375 C 40.371094 88.234375 40.273438 87.363281 40.296875 86.660156 C 40.339844 85.386719 40.378906 84.109375 40.417969 82.835938 C 40.457031 81.625 40.503906 80.414062 40.527344 79.199219 C 40.542969 78.539062 40.585938 77.859375 40.589844 77.179688 C 41.089844 76.949219 41.597656 76.730469 42.101562 76.515625 C 41.957031 79.175781 42.101562 81.882812 42.285156 84.507812 C 42.375 85.804688 42.492188 87.097656 42.644531 88.382812 C 42.671875 88.601562 42.695312 88.816406 42.726562 89.03125 C 43.140625 89.199219 43.5625 89.351562 43.988281 89.496094 C 47.929688 90.820312 52.234375 91.207031 56.355469 91.070312 C 58.878906 90.992188 61.382812 90.675781 63.847656 90.136719 C 65.121094 89.859375 66.421875 89.542969 67.679688 89.109375 C 68.097656 88.964844 68.507812 88.808594 68.910156 88.636719 C 68.953125 88.285156 68.992188 87.9375 69.027344 87.585938 C 69.140625 86.582031 69.226562 85.574219 69.300781 84.570312 C 69.5 81.777344 69.660156 78.871094 69.464844 76.039062 C 69.6875 76.132812 69.90625 76.226562 70.125 76.320312 C 70.539062 76.496094 70.953125 76.671875 71.371094 76.851562 C 71.269531 78.765625 71.5 80.765625 71.5625 82.636719 C 71.601562 83.917969 71.640625 85.195312 71.683594 86.476562 C 71.703125 87.21875 71.574219 88.300781 71.78125 89.132812 C 71.472656 90.070312 71.476562 91.152344 71.808594 92.074219 C 72.414062 93.769531 73.664062 95.128906 74.300781 96.804688 C 75.019531 98.691406 74.320312 100.160156 73.246094 101.726562 C 72.371094 103 71.621094 104.277344 71.214844 105.78125 Z M 31.582031 113.773438 L 32.375 102.796875 L 32.484375 101.320312 L 33.34375 89.425781 C 33.546875 86.613281 33.800781 83.109375 35.734375 80.625 C 36.3125 79.875 37.039062 79.214844 37.957031 78.609375 C 38.503906 78.242188 39.089844 77.914062 39.695312 77.609375 C 39.664062 78.199219 39.644531 78.792969 39.613281 79.371094 C 39.546875 80.585938 39.496094 81.804688 39.441406 83.019531 C 39.382812 84.234375 39.324219 85.453125 39.265625 86.667969 C 39.253906 86.917969 39.222656 87.195312 39.191406 87.488281 C 38.691406 87.089844 38.039062 86.855469 37.242188 86.882812 C 36.910156 86.890625 36.914062 87.292969 37.222656 87.351562 C 38.085938 87.519531 38.75 88.058594 39.128906 88.769531 L 39.128906 88.773438 C 39.308594 89.109375 39.417969 89.480469 39.460938 89.871094 C 39.484375 90.085938 39.484375 90.308594 39.460938 90.53125 C 39.28125 92.222656 38.160156 93.621094 37.34375 95.050781 C 36.65625 96.257812 36.0625 97.601562 36.257812 99.023438 C 36.445312 100.441406 37.363281 101.597656 38.144531 102.742188 C 41.285156 107.363281 39.746094 112.835938 40.285156 118.023438 C 37.253906 116.929688 34.332031 115.507812 31.582031 113.773438 Z M 43.859375 75.765625 C 46.945312 74.414062 49 72.851562 50.140625 70.992188 C 50.183594 70.925781 50.207031 70.847656 50.210938 70.765625 C 50.253906 70.085938 50.265625 69.402344 50.253906 68.71875 C 50.25 68.582031 50.246094 68.441406 50.238281 68.300781 C 50.234375 68.167969 50.226562 68.027344 50.21875 67.894531 C 50.203125 67.625 50.1875 67.359375 50.160156 67.09375 C 50.152344 66.984375 50.140625 66.875 50.128906 66.765625 C 50.117188 66.640625 50.105469 66.519531 50.089844 66.398438 C 50.460938 66.582031 50.832031 66.742188 51.207031 66.882812 C 51.289062 66.914062 51.371094 66.945312 51.449219 66.972656 C 51.472656 66.984375 51.496094 66.992188 51.519531 67 C 51.628906 67.039062 51.738281 67.074219 51.847656 67.109375 C 51.863281 67.113281 51.878906 67.117188 51.890625 67.121094 C 51.980469 67.148438 52.066406 67.175781 52.15625 67.199219 C 52.210938 67.214844 52.269531 67.234375 52.324219 67.246094 C 52.566406 67.3125 52.804688 67.371094 53.046875 67.421875 C 53.175781 67.445312 53.304688 67.472656 53.433594 67.492188 C 53.542969 67.511719 53.65625 67.53125 53.765625 67.546875 C 53.859375 67.558594 53.957031 67.570312 54.050781 67.582031 C 54.058594 67.582031 54.0625 67.582031 54.070312 67.582031 C 54.160156 67.59375 54.253906 67.605469 54.347656 67.613281 C 54.410156 67.621094 54.472656 67.625 54.539062 67.628906 C 54.582031 67.632812 54.628906 67.636719 54.671875 67.636719 C 54.738281 67.644531 54.800781 67.644531 54.863281 67.648438 C 54.9375 67.652344 55.015625 67.65625 55.09375 67.65625 C 55.210938 67.660156 55.324219 67.664062 55.441406 67.664062 C 55.535156 67.664062 55.628906 67.660156 55.722656 67.660156 C 55.816406 67.65625 55.910156 67.652344 56.003906 67.648438 C 56.082031 67.644531 56.164062 67.640625 56.246094 67.636719 C 56.722656 67.605469 57.199219 67.542969 57.671875 67.453125 C 57.765625 67.433594 57.855469 67.417969 57.945312 67.398438 C 58.035156 67.378906 58.125 67.359375 58.214844 67.335938 C 58.636719 67.234375 59.054688 67.109375 59.46875 66.960938 C 59.542969 66.933594 59.621094 66.90625 59.699219 66.875 C 59.742188 66.859375 59.789062 66.84375 59.832031 66.824219 C 59.855469 66.816406 59.878906 66.808594 59.898438 66.796875 L 61.277344 66.148438 C 61.34375 66.113281 61.410156 66.078125 61.476562 66.039062 L 62.773438 65.210938 C 62.765625 65.25 62.757812 65.292969 62.753906 65.332031 C 62.730469 65.460938 62.710938 65.585938 62.691406 65.710938 C 62.671875 65.855469 62.652344 66.003906 62.632812 66.148438 C 62.625 66.199219 62.621094 66.246094 62.613281 66.292969 C 62.597656 66.425781 62.582031 66.554688 62.570312 66.6875 C 62.566406 66.710938 62.5625 66.730469 62.5625 66.753906 C 62.546875 66.890625 62.535156 67.03125 62.523438 67.167969 C 62.511719 67.3125 62.5 67.457031 62.492188 67.605469 C 62.484375 67.675781 62.480469 67.75 62.476562 67.824219 C 62.46875 67.953125 62.460938 68.085938 62.457031 68.214844 C 62.457031 68.230469 62.453125 68.246094 62.457031 68.257812 C 62.449219 68.417969 62.445312 68.582031 62.441406 68.742188 C 62.4375 68.746094 62.4375 68.75 62.441406 68.753906 C 62.4375 68.921875 62.433594 69.089844 62.433594 69.257812 C 62.433594 69.761719 62.449219 70.261719 62.480469 70.761719 C 62.484375 70.84375 62.507812 70.921875 62.550781 70.992188 C 63.667969 72.816406 65.671875 74.355469 68.660156 75.691406 C 68.550781 78.59375 68.539062 81.492188 68.261719 84.394531 C 68.152344 85.570312 68.007812 86.746094 67.851562 87.917969 C 66.417969 88.335938 64.996094 88.785156 63.535156 89.09375 C 61.191406 89.585938 58.792969 89.871094 56.398438 89.960938 C 52.136719 90.117188 48 89.507812 43.859375 88.644531 C 43.664062 87.3125 43.496094 85.980469 43.359375 84.644531 C 43.078125 81.8125 43.050781 78.988281 42.953125 76.15625 C 43.257812 76.027344 43.5625 75.898438 43.859375 75.765625 Z M 70.597656 47.589844 C 71.785156 46.417969 73.226562 47.585938 73.621094 49.058594 C 73.9375 50.238281 73.847656 51.628906 73.664062 52.824219 C 73.296875 55.167969 71.464844 57.683594 68.921875 56.949219 C 68.964844 56.855469 69 56.757812 69.035156 56.664062 C 69.164062 56.320312 69.289062 55.96875 69.402344 55.617188 C 69.4375 55.515625 69.46875 55.410156 69.5 55.304688 C 69.535156 55.203125 69.566406 55.097656 69.59375 54.992188 C 69.648438 54.808594 69.703125 54.621094 69.753906 54.4375 C 69.820312 54.179688 69.882812 53.925781 69.941406 53.667969 C 69.972656 53.542969 70 53.417969 70.027344 53.292969 C 70.070312 53.097656 70.109375 52.90625 70.148438 52.710938 C 70.183594 52.53125 70.214844 52.347656 70.246094 52.164062 C 70.265625 52.054688 70.28125 51.945312 70.296875 51.832031 C 70.316406 51.734375 70.328125 51.636719 70.34375 51.535156 C 70.371094 51.335938 70.398438 51.136719 70.421875 50.941406 C 70.46875 50.546875 70.507812 50.152344 70.535156 49.753906 C 70.578125 49.140625 70.601562 48.519531 70.601562 47.898438 C 70.601562 47.796875 70.601562 47.691406 70.597656 47.589844 Z M 43 56.898438 C 42.917969 56.699219 42.835938 56.492188 42.757812 56.285156 C 41.792969 53.730469 41.261719 50.871094 41.261719 47.898438 C 41.261719 45.382812 41.640625 42.984375 42.316406 40.792969 C 44.746094 40.542969 47.214844 39.667969 49.273438 38.679688 C 51.15625 37.777344 52.949219 36.625 54.503906 35.214844 C 58.320312 38.253906 63.359375 40.089844 68.207031 39.730469 C 69.113281 42.199219 69.617188 44.972656 69.617188 47.898438 C 69.617188 51.0625 69.023438 54.105469 67.929688 56.796875 C 67.863281 56.964844 67.792969 57.132812 67.71875 57.300781 C 66.621094 59.804688 65.085938 61.980469 63.191406 63.625 C 60.886719 65.625 58.207031 66.683594 55.441406 66.683594 C 54.074219 66.683594 52.734375 66.425781 51.445312 65.921875 C 51.210938 65.832031 50.976562 65.730469 50.746094 65.625 C 50.402344 65.464844 50.0625 65.285156 49.730469 65.089844 C 49.726562 65.085938 49.722656 65.085938 49.71875 65.082031 C 46.800781 63.375 44.472656 60.460938 43 56.898438 Z M 37.101562 48.9375 C 37.386719 47.285156 38.941406 45.820312 40.292969 47.277344 C 40.285156 47.484375 40.28125 47.691406 40.28125 47.898438 C 40.28125 48.164062 40.285156 48.425781 40.292969 48.6875 C 40.300781 48.90625 40.308594 49.128906 40.324219 49.347656 C 40.324219 49.390625 40.328125 49.433594 40.332031 49.472656 C 40.339844 49.660156 40.355469 49.847656 40.371094 50.035156 C 40.378906 50.15625 40.390625 50.273438 40.402344 50.386719 C 40.414062 50.488281 40.421875 50.589844 40.433594 50.691406 C 40.464844 50.957031 40.496094 51.21875 40.535156 51.480469 C 40.5625 51.695312 40.597656 51.910156 40.632812 52.125 C 40.644531 52.179688 40.652344 52.238281 40.664062 52.296875 C 40.691406 52.46875 40.722656 52.636719 40.757812 52.808594 C 40.804688 53.054688 40.859375 53.300781 40.917969 53.546875 C 40.941406 53.660156 40.96875 53.773438 40.996094 53.882812 C 41.164062 54.578125 41.363281 55.257812 41.589844 55.917969 C 41.617188 56.007812 41.648438 56.09375 41.679688 56.179688 C 41.726562 56.308594 41.769531 56.4375 41.816406 56.558594 C 39.554688 57.105469 37.722656 54.929688 37.246094 52.816406 C 36.96875 51.582031 36.886719 50.1875 37.101562 48.9375 Z M 84.304688 77.957031 C 82.140625 73.996094 76.847656 70.253906 78.722656 65.195312 C 79.574219 62.902344 81.308594 61.039062 82.015625 58.679688 C 82.75 56.234375 82.230469 53.710938 81.210938 51.425781 C 79.878906 48.433594 77.863281 45.761719 76.046875 43.050781 C 75.914062 42.851562 75.78125 42.652344 75.648438 42.449219 C 75.609375 42.203125 75.566406 41.953125 75.519531 41.703125 C 74.246094 34.734375 70.632812 28.839844 65.605469 25.539062 C 63.640625 24.242188 61.832031 23.609375 60.078125 23.589844 L 60.015625 23.589844 C 58.125 23.589844 56.394531 24.410156 55.441406 25.703125 C 54.476562 24.394531 52.714844 23.570312 50.804688 23.589844 C 49.050781 23.609375 47.242188 24.242188 45.277344 25.539062 C 40.25 28.839844 36.636719 34.734375 35.363281 41.703125 C 35.308594 42.007812 35.257812 42.3125 35.210938 42.617188 C 33.710938 44.847656 32.140625 47.050781 30.804688 49.382812 C 29.488281 51.683594 28.367188 54.285156 28.574219 56.996094 C 28.753906 59.390625 30.074219 61.308594 31.230469 63.328125 C 32.5625 65.664062 33.089844 67.984375 31.859375 70.496094 C 30.789062 72.675781 29.019531 74.433594 27.644531 76.417969 C 24.734375 80.625 23.617188 85.972656 24.59375 90.992188 C 25.453125 95.402344 27.9375 99.371094 31.441406 102.113281 L 30.585938 113.996094 C 30.570312 114.175781 30.65625 114.351562 30.808594 114.445312 C 33.835938 116.378906 37.070312 117.945312 40.433594 119.121094 C 40.859375 119.269531 41.28125 119.410156 41.707031 119.542969 C 46.214844 120.976562 50.9375 121.714844 55.667969 121.714844 C 57.019531 121.714844 58.375 121.65625 59.722656 121.535156 C 63.355469 121.207031 66.941406 120.429688 70.398438 119.242188 C 70.804688 119.101562 71.214844 118.957031 71.621094 118.800781 C 75.203125 117.457031 78.636719 115.660156 81.828125 113.453125 C 81.96875 113.351562 82.050781 113.1875 82.039062 113.011719 C 81.738281 108.859375 81.4375 104.699219 81.136719 100.542969 C 86.902344 94.707031 88.382812 85.425781 84.304688 77.957031 " fill-opacity="1" fill-rule="nonzero"/></g></svg>