<svg xmlns="http://www.w3.org/2000/svg" xmlns:xlink="http://www.w3.org/1999/xlink" width="1000" zoomAndPan="magnify" viewBox="0 0 750 187.499995" height="250" preserveAspectRatio="xMidYMid meet" version="1.0"><defs><g/><clipPath id="06da2c0f3c"><path d="M 0.996094 55 L 84 55 L 84 130 L 0.996094 130 Z M 0.996094 55 " clip-rule="nonzero"/></clipPath></defs><g clip-path="url(#06da2c0f3c)"><g fill="#000000" fill-opacity="1"><g transform="translate(0.997351, 129.415494)"><g><path d="M 57.59375 -15.875 L 23.1875 -15.875 L 16.625 0 L -0.953125 0 L 32.078125 -74.09375 L 49.015625 -74.09375 L 82.140625 0 L 64.15625 0 Z M 52.1875 -28.90625 L 40.4375 -57.265625 L 28.6875 -28.90625 Z M 52.1875 -28.90625 "/></g></g></g></g><g fill="#000000" fill-opacity="1"><g transform="translate(82.081705, 129.415494)"><g><path d="M 76.75 -74.09375 L 76.75 0 L 62.671875 0 L 25.71875 -44.984375 L 25.71875 0 L 8.78125 0 L 8.78125 -74.09375 L 22.96875 -74.09375 L 59.8125 -29.109375 L 59.8125 -74.09375 Z M 76.75 -74.09375 "/></g></g><g transform="translate(167.611945, 129.415494)"><g><path d="M 8.78125 -74.09375 L 42.453125 -74.09375 C 50.492188 -74.09375 57.601562 -72.554688 63.78125 -69.484375 C 69.957031 -66.421875 74.753906 -62.101562 78.171875 -56.53125 C 81.597656 -50.957031 83.3125 -44.460938 83.3125 -37.046875 C 83.3125 -29.640625 81.597656 -23.144531 78.171875 -17.5625 C 74.753906 -11.988281 69.957031 -7.664062 63.78125 -4.59375 C 57.601562 -1.53125 50.492188 0 42.453125 0 L 8.78125 0 Z M 41.609375 -14.078125 C 49.015625 -14.078125 54.921875 -16.140625 59.328125 -20.265625 C 63.742188 -24.398438 65.953125 -29.992188 65.953125 -37.046875 C 65.953125 -44.109375 63.742188 -49.703125 59.328125 -53.828125 C 54.921875 -57.953125 49.015625 -60.015625 41.609375 -60.015625 L 25.9375 -60.015625 L 25.9375 -14.078125 Z M 41.609375 -14.078125 "/></g></g><g transform="translate(255.047561, 129.415494)"><g><path d="M 66.15625 -13.765625 L 66.15625 0 L 8.78125 0 L 8.78125 -74.09375 L 64.78125 -74.09375 L 64.78125 -60.34375 L 25.828125 -60.34375 L 25.828125 -44.25 L 60.234375 -44.25 L 60.234375 -30.90625 L 25.828125 -30.90625 L 25.828125 -13.765625 Z M 66.15625 -13.765625 "/></g></g></g><g fill="#000000" fill-opacity="1"><g transform="translate(326.075743, 129.415494)"><g><path d="M 33.140625 1.265625 C 27.273438 1.265625 21.609375 0.472656 16.140625 -1.109375 C 10.671875 -2.703125 6.28125 -4.765625 2.96875 -7.296875 L 8.78125 -20.21875 C 11.957031 -17.882812 15.734375 -16.007812 20.109375 -14.59375 C 24.484375 -13.1875 28.859375 -12.484375 33.234375 -12.484375 C 38.109375 -12.484375 41.707031 -13.207031 44.03125 -14.65625 C 46.363281 -16.101562 47.53125 -18.03125 47.53125 -20.4375 C 47.53125 -22.195312 46.84375 -23.660156 45.46875 -24.828125 C 44.09375 -25.992188 42.328125 -26.925781 40.171875 -27.625 C 38.015625 -28.332031 35.101562 -29.109375 31.4375 -29.953125 C 25.789062 -31.296875 21.164062 -32.632812 17.5625 -33.96875 C 13.96875 -35.3125 10.882812 -37.46875 8.3125 -40.4375 C 5.738281 -43.40625 4.453125 -47.359375 4.453125 -52.296875 C 4.453125 -56.597656 5.613281 -60.492188 7.9375 -63.984375 C 10.269531 -67.484375 13.78125 -70.253906 18.46875 -72.296875 C 23.164062 -74.347656 28.898438 -75.375 35.671875 -75.375 C 40.398438 -75.375 45.019531 -74.804688 49.53125 -73.671875 C 54.050781 -72.546875 58.003906 -70.925781 61.390625 -68.8125 L 56.109375 -55.78125 C 49.265625 -59.664062 42.414062 -61.609375 35.5625 -61.609375 C 30.769531 -61.609375 27.222656 -60.832031 24.921875 -59.28125 C 22.628906 -57.726562 21.484375 -55.679688 21.484375 -53.140625 C 21.484375 -50.597656 22.804688 -48.707031 25.453125 -47.46875 C 28.097656 -46.238281 32.140625 -45.023438 37.578125 -43.828125 C 43.222656 -42.484375 47.84375 -41.140625 51.4375 -39.796875 C 55.039062 -38.460938 58.128906 -36.347656 60.703125 -33.453125 C 63.285156 -30.554688 64.578125 -26.640625 64.578125 -21.703125 C 64.578125 -17.460938 63.394531 -13.597656 61.03125 -10.109375 C 58.664062 -6.617188 55.117188 -3.847656 50.390625 -1.796875 C 45.660156 0.242188 39.910156 1.265625 33.140625 1.265625 Z M 33.140625 1.265625 "/></g></g></g><g fill="#000000" fill-opacity="1"><g transform="translate(393.610754, 129.415494)"><g/></g></g><g fill="#000000" fill-opacity="1"><g transform="translate(423.567493, 129.415494)"><g><path d="M 44.25 1.265625 C 36.695312 1.265625 29.867188 -0.375 23.765625 -3.65625 C 17.660156 -6.9375 12.859375 -11.488281 9.359375 -17.3125 C 5.867188 -23.132812 4.125 -29.710938 4.125 -37.046875 C 4.125 -44.390625 5.867188 -50.972656 9.359375 -56.796875 C 12.859375 -62.617188 17.660156 -67.171875 23.765625 -70.453125 C 29.867188 -73.734375 36.734375 -75.375 44.359375 -75.375 C 50.773438 -75.375 56.578125 -74.242188 61.765625 -71.984375 C 66.953125 -69.722656 71.3125 -66.476562 74.84375 -62.25 L 63.828125 -52.078125 C 58.816406 -57.867188 52.609375 -60.765625 45.203125 -60.765625 C 40.617188 -60.765625 36.523438 -59.757812 32.921875 -57.75 C 29.316406 -55.738281 26.507812 -52.929688 24.5 -49.328125 C 22.488281 -45.734375 21.484375 -41.640625 21.484375 -37.046875 C 21.484375 -32.460938 22.488281 -28.367188 24.5 -24.765625 C 26.507812 -21.171875 29.316406 -18.367188 32.921875 -16.359375 C 36.523438 -14.347656 40.617188 -13.34375 45.203125 -13.34375 C 52.609375 -13.34375 58.816406 -16.269531 63.828125 -22.125 L 74.84375 -11.96875 C 71.3125 -7.65625 66.929688 -4.367188 61.703125 -2.109375 C 56.484375 0.140625 50.664062 1.265625 44.25 1.265625 Z M 44.25 1.265625 "/></g></g></g><g fill="#000000" fill-opacity="1"><g transform="translate(501.158672, 129.415494)"><g><path d="M 44.671875 1.265625 C 36.984375 1.265625 30.050781 -0.390625 23.875 -3.703125 C 17.695312 -7.023438 12.859375 -11.59375 9.359375 -17.40625 C 5.867188 -23.226562 4.125 -29.773438 4.125 -37.046875 C 4.125 -44.316406 5.867188 -50.863281 9.359375 -56.6875 C 12.859375 -62.507812 17.695312 -67.078125 23.875 -70.390625 C 30.050781 -73.710938 36.984375 -75.375 44.671875 -75.375 C 52.367188 -75.375 59.285156 -73.710938 65.421875 -70.390625 C 71.554688 -67.078125 76.390625 -62.507812 79.921875 -56.6875 C 83.453125 -50.863281 85.21875 -44.316406 85.21875 -37.046875 C 85.21875 -29.773438 83.453125 -23.226562 79.921875 -17.40625 C 76.390625 -11.59375 71.554688 -7.023438 65.421875 -3.703125 C 59.285156 -0.390625 52.367188 1.265625 44.671875 1.265625 Z M 44.671875 -13.34375 C 49.046875 -13.34375 53 -14.347656 56.53125 -16.359375 C 60.0625 -18.367188 62.832031 -21.171875 64.84375 -24.765625 C 66.851562 -28.367188 67.859375 -32.460938 67.859375 -37.046875 C 67.859375 -41.640625 66.851562 -45.734375 64.84375 -49.328125 C 62.832031 -52.929688 60.0625 -55.738281 56.53125 -57.75 C 53 -59.757812 49.046875 -60.765625 44.671875 -60.765625 C 40.296875 -60.765625 36.34375 -59.757812 32.8125 -57.75 C 29.28125 -55.738281 26.507812 -52.929688 24.5 -49.328125 C 22.488281 -45.734375 21.484375 -41.640625 21.484375 -37.046875 C 21.484375 -32.460938 22.488281 -28.367188 24.5 -24.765625 C 26.507812 -21.171875 29.28125 -18.367188 32.8125 -16.359375 C 36.34375 -14.347656 40.296875 -13.34375 44.671875 -13.34375 Z M 44.671875 -13.34375 "/></g></g></g><g fill="#000000" fill-opacity="1"><g transform="translate(590.499621, 129.415494)"><g><path d="M 8.78125 -74.09375 L 42.453125 -74.09375 C 50.492188 -74.09375 57.601562 -72.554688 63.78125 -69.484375 C 69.957031 -66.421875 74.753906 -62.101562 78.171875 -56.53125 C 81.597656 -50.957031 83.3125 -44.460938 83.3125 -37.046875 C 83.3125 -29.640625 81.597656 -23.144531 78.171875 -17.5625 C 74.753906 -11.988281 69.957031 -7.664062 63.78125 -4.59375 C 57.601562 -1.53125 50.492188 0 42.453125 0 L 8.78125 0 Z M 41.609375 -14.078125 C 49.015625 -14.078125 54.921875 -16.140625 59.328125 -20.265625 C 63.742188 -24.398438 65.953125 -29.992188 65.953125 -37.046875 C 65.953125 -44.109375 63.742188 -49.703125 59.328125 -53.828125 C 54.921875 -57.953125 49.015625 -60.015625 41.609375 -60.015625 L 25.9375 -60.015625 L 25.9375 -14.078125 Z M 41.609375 -14.078125 "/></g></g></g><g fill="#000000" fill-opacity="1"><g transform="translate(677.935202, 129.415494)"><g><path d="M 66.15625 -13.765625 L 66.15625 0 L 8.78125 0 L 8.78125 -74.09375 L 64.78125 -74.09375 L 64.78125 -60.34375 L 25.828125 -60.34375 L 25.828125 -44.25 L 60.234375 -44.25 L 60.234375 -30.90625 L 25.828125 -30.90625 L 25.828125 -13.765625 Z M 66.15625 -13.765625 "/></g></g></g></svg>